<svg xmlns="http://www.w3.org/2000/svg" viewBox="0 0 580 400">
  <!-- Created with Method Draw - http://github.com/duopixel/Method-Draw/ -->
  <g>
    <title>background</title>
  </g>
  <g>
    <title>Layer 1</title>
    <path stroke="null" id="svg_2" d="m-1.00003,181.147003c7.79319,2.041 12.82163,-13.959 24.36993,-11.320999c11.548302,2.638 10.283199,21.914001 21.827599,26.923996c5.772202,2.505997 23.913403,-11.472 32.272503,-1.358994c8.3591,10.113998 11.602699,26.319 18.246002,28.523987c6.642998,2.20401 13.352997,-7.758987 32.311996,-7.480988c18.957993,0.278 36.832001,20.796997 44.468994,21.963989c30.55101,4.667007 37.737,-4.082993 61.973999,-8.666992c24.236008,-4.584 36.189011,8.998993 60.272995,8.998993c24.084015,0 48.505005,-22.707993 69.59201,-18.748993c21.088013,3.959 37.509003,24.584991 61.59201,24.584991c12.041992,0 30.499664,-22.307968 42.413666,-25.659958c5.958008,-1.67601 14.77832,-1.280029 22.34433,3.01297c7.565002,4.293991 13.874695,13.150696 20.14267,11.061691c6.266968,-2.088989 13.950989,-15.706741 19.450989,-18.90274c5.501038,-3.197006 12.818115,5.361084 18.353088,2.289093c5.534973,-3.072006 9.955627,-21.106461 16.327637,-22.82045c6.372009,-1.715012 12.028625,6.890396 20.039612,7.765396l-6.994995,114.521011l-578.010187,0c0,-37.923004 0,-75.846008 0,-113.769012z" stroke-opacity="null" stroke-linecap="null" stroke-linejoin="null" stroke-width="0" fill="#79af8a"/>
    <path stroke="null" id="svg_4" d="m-0.000034,223.813995c44.188129,-14.585999 84.396831,38.582001 145.497028,47.916992c61.101013,9.335022 103.41301,-13.667999 151.580002,-13.667999c48.167999,0 84.351013,15.835999 132.518005,15.835999c48.167999,0 92.319977,-36.92099 156.404999,-29.919983l-6.994995,114.520996l-578.010187,0l0,-113.769012z" stroke-opacity="null" stroke-linecap="null" stroke-linejoin="null" stroke-width="0" fill="#80b66b"/>
    <path stroke="null" id="svg_3" d="m-2.000019,282.984375c44.645256,-14.898041 85.269909,-6.555298 147.00217,2.979401c61.733093,9.534729 82.255219,-4.767853 130.920486,-4.767853c48.66629,0 94.316711,13.110596 142.981995,13.110596c48.66629,0 100.347382,-24.432739 165.095367,-17.281952l-1.005249,125.14209l-583.989625,0l0,-116.202881z" stroke-opacity="null" stroke-linecap="null" stroke-linejoin="null" stroke-width="0" fill-opacity="null" fill="#5da364"/>
  </g>
  </svg>