<?xml version="1.0"?>
<svg viewBox="0 0 286 77" xmlns="http://www.w3.org/2000/svg">
 <g>
  <title>Layer 1</title>
  <path id="svg_2" d="m185.57991,4c-27.238281,0 -50.619629,8.057526 -62.064392,19.690247c-4.571808,-1.456116 -9.611664,-2.337341 -14.993866,-2.337341c-16.270126,0 -29.812286,7.466583 -33.996246,17.602844c-7.143814,-1.610413 -15.448914,-2.586334 -24.321754,-2.586334c-26.612007,0 -48.203651,8.306442 -48.203651,18.548096c0,9.242813 15.331665,17.718063 38.33387,19.124191c11.593605,3.872482 23.294106,3.484879 28.794106,3.4077c183.410797,-2.778824 183.17865,-2.143951 188.715042,-2.393951c15.5271,0 28.157043,-6.017761 28.157043,-13.426666c0,-7.406982 -12.629944,-13.424347 -28.157043,-13.424347c-1.900192,0 -3.518845,0.374908 -5.317154,0.547348c1.572968,-2.963562 2.615265,-5.984207 2.615265,-9.200027c0,-19.608276 -31.116821,-35.551758 -69.561218,-35.551758l0,0z" stroke-width="0" stroke="#000" fill="#d8d8d8"/>
  <path id="svg_3" d="m183.57991,0c-27.238281,0 -50.619629,8.057526 -62.064392,19.690247c-4.571808,-1.456116 -9.611664,-2.337341 -14.993866,-2.337341c-16.270126,0 -29.812286,7.466583 -33.996246,17.602844c-7.143814,-1.610413 -15.448914,-2.586334 -24.321754,-2.586334c-26.612007,0 -48.203651,8.306442 -48.203651,18.548096c0,9.242813 15.331661,17.718063 38.33387,19.124191c11.593605,3.872482 23.294106,3.484879 28.794106,3.4077c183.410797,-2.778824 183.17865,-2.143951 188.715027,-2.393951c15.527115,0 28.157059,-6.017761 28.157059,-13.426666c0,-7.406982 -12.629944,-13.424347 -28.157059,-13.424347c-1.900177,0 -3.518829,0.374908 -5.317139,0.547348c1.572968,-2.963562 2.615265,-5.984207 2.615265,-9.200027c0,-19.608276 -31.116821,-35.551758 -69.561218,-35.551758l0,0z" stroke-width="0" stroke="#000" fill="#fff"/>
 </g>
</svg>