<?xml version="1.0" encoding="UTF-8" standalone="no"?>
<svg
   xmlns:dc="http://purl.org/dc/elements/1.1/"
   xmlns:cc="http://creativecommons.org/ns#"
   xmlns:rdf="http://www.w3.org/1999/02/22-rdf-syntax-ns#"
   xmlns:svg="http://www.w3.org/2000/svg"
   xmlns="http://www.w3.org/2000/svg"
   xmlns:sodipodi="http://sodipodi.sourceforge.net/DTD/sodipodi-0.dtd"
   xmlns:inkscape="http://www.inkscape.org/namespaces/inkscape"
   sodipodi:docname="fig2.svg"
   inkscape:version="1.0beta1 (32d4812, 2019-09-19)"
   id="svg3513"
   version="1.1"
   viewBox="0 0 74 105"
   height="105mm"
   width="74mm">
  <defs
     id="defs3507" />
  <sodipodi:namedview
     inkscape:window-maximized="0"
     inkscape:window-y="25"
     inkscape:window-x="0"
     inkscape:window-height="875"
     inkscape:window-width="1440"
     showborder="true"
     inkscape:pagecheckerboard="true"
     fit-margin-bottom="0"
     fit-margin-right="0"
     fit-margin-left="0"
     fit-margin-top="0"
     showgrid="false"
     inkscape:document-rotation="0"
     inkscape:current-layer="layer4"
     inkscape:document-units="mm"
     inkscape:cy="195.14285"
     inkscape:cx="75.193804"
     inkscape:zoom="2.0741012"
     inkscape:pageshadow="2"
     inkscape:pageopacity="0.0"
     borderopacity="1.0"
     bordercolor="#666666"
     pagecolor="#ffffff"
     id="base" />
  <metadata
     id="metadata3510">
    <rdf:RDF>
      <cc:Work
         rdf:about="">
        <dc:format>image/svg+xml</dc:format>
        <dc:type
           rdf:resource="http://purl.org/dc/dcmitype/StillImage" />
        <dc:title></dc:title>
      </cc:Work>
    </rdf:RDF>
  </metadata>
  <g
     sodipodi:insensitive="true"
     style="display:none"
     transform="translate(-21.010707,-17.093706)"
     id="layer1"
     inkscape:groupmode="layer"
     inkscape:label="Layer 1">
    <g
       transform="matrix(0.35277777,0,0,-0.35277777,19.185761,307.48818)"
       id="g3645">
      <g
         transform="translate(124.037,649.3382)"
         id="g2925"
         style="opacity:1;stop-opacity:1">
        <path
           inkscape:connector-curvature="0"
           id="path2927"
           style="fill:#3c3c3b;fill-opacity:1;fill-rule:nonzero;stroke:none"
           d="m 0,0 c 2.303,8.737 4.34,17.686 5.831,26.714 5.199,2.5 9.237,7.032 8.988,13.084 -0.038,0.92 -1.451,1.199 -1.669,0.226 -1.127,-5.05 -3.556,-8.264 -6.857,-10.378 1.25,8.256 2.023,16.567 2.095,24.831 1.07,-0.412 2.288,-0.602 3.678,-0.483 1.321,0.114 2.493,0.472 3.531,1.013 C 18.351,45.169 22.044,35.493 25.303,25.81 28.237,17.092 30.55,7.324 34.752,-0.915 23.197,-0.246 11.574,-0.17 0,0 m 5.054,67.088 c 0.466,4.71 2.225,8.32 6.139,10.505 0.137,-0.144 0.332,-0.235 0.592,-0.216 10.586,0.77 10.483,-19.28 0.968,-21.181 C 6.333,54.913 4.58,62.305 5.054,67.088 M 17.136,-43.995 c 0.369,0.732 1.396,0.467 1.957,0.154 0.468,-0.262 0.826,-0.656 1.176,-1.056 -1.421,-0.149 -3.703,-0.226 -3.133,0.902 M 6.183,-44.079 c -0.336,0.07 -3.191,1.15 -1.523,1.635 0.621,0.181 1.888,-0.526 2.389,-0.788 0.542,-0.282 1.008,-0.668 1.496,-1.021 -0.792,-0.016 -1.586,0.012 -2.362,0.174 M -8.876,24.457 c -0.512,-0.61 -1.404,-0.799 -2.051,-0.29 0.578,0.494 0.833,1.211 1.651,1.448 0.238,0.069 0.868,0.146 0.931,-0.027 0.083,-0.229 -0.39,-0.964 -0.531,-1.131 M -11.207,-4.4 c 0.19,-0.368 0.494,-0.491 0.798,-0.473 0.331,-0.814 0.723,-1.607 1.166,-2.392 0.668,-1.181 1.448,-2.7 2.481,-3.778 -0.025,-0.026 -0.052,-0.046 -0.077,-0.075 -6.463,-7.503 -21.173,-6.869 -30.082,-5.34 -4.584,0.786 -9.201,2.088 -13.403,4.103 -2.102,1.008 -4.104,2.191 -5.935,3.633 -0.666,0.525 -3.101,2.369 -4.216,3.886 23.412,3.574 26.079,35.784 25.269,54.735 1.27,-0.527 2.764,-0.696 4.493,-0.386 0.558,0.1 1.081,0.27 1.587,0.471 0.667,-6.959 2.15,-14.002 4.186,-20.954 -2.41,1.984 -4.058,4.497 -5.5,7.346 -0.294,0.581 -1.141,0.163 -1.011,-0.427 0.852,-3.873 3.751,-7.499 7.408,-9.846 3.367,-10.659 7.956,-21.044 12.836,-30.503 m -27.014,68.846 c 0.901,4.571 2.884,8.074 7.003,10.131 0.238,-0.365 0.73,-0.601 1.181,-0.36 4.247,2.269 6.389,-10.406 6.221,-12.364 -0.409,-4.779 -3.988,-11.511 -9.673,-9.983 -5.501,1.479 -5.626,8.038 -4.732,12.576 m 23.782,-110.107 c -0.005,0.026 -0.011,0.053 -0.017,0.08 0.756,0.621 1.561,1.122 2.541,1.39 0.61,0.167 3.247,0.481 3.446,0.013 0.125,-0.293 -3.028,-1.774 -3.43,-1.91 -0.927,-0.311 -1.89,-0.339 -2.829,-0.49 0.227,0.211 0.37,0.52 0.289,0.917 m 5.973,86.63 c 0.393,0.714 1.334,0.735 1.63,-0.08 0.262,-0.72 -0.156,-1.347 -0.857,-1.545 -0.641,-0.18 -1.35,0.046 -1.58,0.712 -0.061,0.176 -0.083,0.353 -0.081,0.528 0.314,-0.099 0.667,-0.018 0.888,0.385 M 36.287,-1.359 c -1.589,9.623 -6.032,19.41 -9.186,28.617 -3.271,9.544 -6.167,19.35 -9.94,28.704 -0.01,0.023 -0.027,0.035 -0.037,0.057 7.78,6.342 5.175,25.058 -4.628,23.236 C 2.192,79.802 -0.711,60.189 7.085,55.141 7.017,55.042 6.963,54.929 6.947,54.787 5.938,45.845 4.882,36.993 3.526,28.197 0.599,26.956 -2.799,26.275 -6.476,25.818 c -0.077,0.791 -0.537,1.458 -1.572,1.662 -0.625,0.124 -1.474,0.001 -2.242,-0.315 -0.063,0.045 -0.135,0.08 -0.223,0.089 -1.392,0.136 -2.44,-0.936 -2.618,-2.175 -3.016,0.301 -5.765,0.616 -8.427,1.829 -1.458,4.93 -2.66,9.916 -3.884,14.899 5.035,0.404 9.699,-0.295 14.473,-1.877 0.022,-0.223 0.063,-0.442 0.135,-0.648 0.603,-1.736 2.7,-2.264 4.261,-1.509 1.078,0.522 1.673,1.598 1.666,2.693 1.682,0.429 3.356,0.877 5.073,1.15 1.585,0.253 3.249,0.112 4.726,0.754 0.655,0.285 0.355,1.177 -0.179,1.375 -1.546,0.573 -3.488,0.08 -5.063,-0.258 -1.699,-0.365 -3.331,-0.931 -4.875,-1.721 -0.088,0.175 -0.187,0.348 -0.315,0.509 -0.71,0.896 -1.981,1.175 -3.008,0.814 -0.102,0.044 -0.219,0.067 -0.352,0.043 -0.788,-0.144 -1.37,-0.69 -1.719,-1.376 -4.796,1.902 -10.032,2.228 -15.075,1.237 -0.015,-0.003 -0.023,-0.012 -0.037,-0.016 -0.636,2.579 -1.283,5.156 -1.981,7.722 4.379,2.764 6.329,9.319 5.843,14.065 -0.334,3.262 -3.786,13.834 -8.485,11.294 -0.042,0.008 -0.081,0.021 -0.13,0.02 -0.38,-0.006 -0.748,-0.042 -1.106,-0.1 2.414,5.756 -5.182,11.661 -10.341,11.972 -3.6,0.217 -7.035,-1.31 -9.672,-3.702 -1.505,-1.366 -2.573,-2.953 -3.652,-4.668 -2.239,-3.562 -4.5,-5.161 -8.592,-6.355 -0.948,-0.277 -0.798,-1.798 0.238,-1.761 5.903,0.211 8.241,4.502 11.268,8.819 3.281,4.679 8.996,7.811 14.551,4.662 2.05,-1.162 3.059,-2.758 3.79,-4.528 -1.967,3.203 -5.779,4.988 -10.04,3.964 -9.22,-2.215 -6.689,-15.594 -14.902,-19.074 -1.231,-0.521 -0.171,-2.338 1.056,-1.806 3.99,1.73 5.639,5.285 7.013,9.213 1.005,2.874 1.791,6.252 4.086,8.431 4.365,4.145 9.567,1.68 11.855,-2.632 -1.998,2.48 -5.777,3.38 -8.967,1.837 -8.944,-4.326 -3.277,-16.623 -10.741,-21.842 -1.056,-0.738 -0.157,-2.287 1.009,-1.727 3.572,1.719 4.975,5.299 5.544,9.043 0.482,3.171 0.224,6.684 1.958,9.524 2.761,4.522 9.653,4.921 11.148,-0.711 -0.256,-0.175 -0.501,-0.369 -0.741,-0.571 -2.077,2.408 -5.797,2.374 -7.786,-0.497 -3.943,-5.69 2.396,-16.636 -6.897,-18.378 -0.888,-0.166 -0.873,-1.601 0,-1.78 3.465,-0.707 6.256,1.999 7.251,5.208 0.71,2.29 0.467,4.723 0.394,7.076 -0.104,3.326 1.586,11.376 6.137,7.506 -5.498,-5.93 -5.657,-19.269 0.63,-22.904 -1.529,-18.516 -2.429,-49.334 -25.772,-53.049 -0.31,-0.049 -0.525,-0.219 -0.656,-0.446 -0.102,-0.123 -0.166,-0.276 -0.151,-0.435 0.002,-0.012 0.005,-0.025 0.006,-0.037 -0.027,-0.265 0.022,-0.543 0.141,-0.777 0.874,-3.505 4.984,-6.418 7.8,-8.191 5.1,-3.212 11.164,-5.113 17.07,-6.119 0.312,-0.053 0.642,-0.103 0.967,-0.154 0.077,-4.449 2.13,-9.271 3.001,-13.497 1.199,-5.815 1.492,-11.901 2.955,-17.628 0.216,-0.847 1.437,-0.648 1.499,0.176 0.662,0.324 1.199,0.848 1.904,1.122 0.458,0.179 2.864,0.767 2.953,-0.202 0.095,-1.025 -2.043,-1.095 -2.628,-1.177 -1.014,-0.143 -2.096,-0.158 -3.002,-0.658 -0.533,-0.294 -0.444,-1.206 0.175,-1.339 0.947,-0.203 1.879,0.046 2.827,0.19 0.859,0.13 1.767,0.211 2.567,0.574 1.09,0.496 1.999,1.664 1.646,2.923 -0.383,1.369 -1.974,1.665 -3.198,1.567 -0.791,-0.064 -1.576,-0.302 -2.277,-0.675 -0.165,-0.088 -0.574,-0.333 -0.952,-0.621 -0.089,4.578 -1.186,9.344 -2.089,13.757 -1.037,5.073 -3.047,10.171 -3.966,15.281 3.506,-0.481 7.588,-0.791 11.678,-0.615 1.839,-8.85 4.593,-17.791 7.184,-26.444 0.106,-0.352 0.334,-0.544 0.593,-0.629 -0.775,-0.265 -0.729,-1.316 0.024,-1.58 1.922,-0.673 4.507,0.32 6.198,1.269 1.155,0.648 3.834,2.286 2.658,3.915 -0.887,1.227 -3.363,1.045 -4.63,0.75 -1.213,-0.283 -2.37,-0.897 -3.277,-1.76 -1.736,8.246 -4.065,16.826 -7.381,24.557 6.664,0.471 13.148,2.325 16.893,6.931 0.195,0.241 0.272,0.504 0.269,0.758 0.226,0.125 0.377,0.37 0.279,0.658 -0.57,1.671 -2.06,3.055 -2.977,4.581 -0.845,1.405 -1.54,2.89 -2.352,4.311 -4.124,8.7 -7.825,17.503 -10.744,26.692 -0.02,0.062 -0.037,0.123 -0.056,0.185 2.565,-0.992 5.294,-1.337 7.857,-0.737 0.042,-0.098 0.087,-0.195 0.143,-0.29 1.077,-1.84 3.683,-1.958 5.15,-0.574 0.501,0.473 0.905,1.174 1.09,1.891 3.032,-0.507 6.471,-0.18 9.695,0.875 -1.426,-8.839 -3.18,-17.625 -5.535,-26.392 -0.182,-0.679 0.336,-1.342 1.032,-1.354 4.165,-0.069 8.33,-0.187 12.494,-0.312 -0.042,-13.463 -0.464,-26.616 -2.228,-39.956 -1.988,1.476 -5.312,2.677 -6.25,0.436 -0.554,-1.322 0.302,-2.607 1.481,-3.179 1.492,-0.723 3.362,-0.724 4.922,-0.21 0.482,-0.344 1.22,-0.285 1.347,0.458 2.37,13.854 3.41,28.397 1.981,42.413 4.903,-0.15 9.806,-0.305 14.709,-0.424 -3.095,-13.071 -4.524,-26.942 -5.848,-40.352 -0.716,0.727 -1.593,1.3 -2.586,1.473 -1.365,0.239 -2.798,-0.375 -3.26,-1.744 -0.429,-1.273 0.183,-2.549 1.464,-2.977 1.317,-0.44 2.899,-0.254 4.158,0.373 0.203,-0.881 1.81,-1.028 1.949,0 1.925,14.256 4.348,28.829 5.079,43.204 2.493,-0.058 4.986,-0.108 7.479,-0.135 0.999,-0.011 1.245,1.08 0.778,1.693" />
      </g>
      <g
         transform="translate(109.455,704.8135)"
         id="g2929"
         style="opacity:1;stop-opacity:1">
        <path
           inkscape:connector-curvature="0"
           id="path2931"
           style="fill:#e20613;fill-opacity:1;fill-rule:nonzero;stroke:none"
           d="M 0,0 C 0.299,-0.01 0.57,-0.125 0.82,-0.294 0.748,-0.33 0.676,-0.364 0.604,-0.413 c -0.339,0.15 -0.7,0.264 -1.079,0.346 C -0.338,-0.022 -0.185,0.007 0,0 M 4.898,3.116 C 3.616,4.063 1.489,4.565 0.368,3.097 0.103,2.75 -0.043,2.349 -0.095,1.946 c -0.076,0.01 -0.143,0.036 -0.223,0.04 -1.769,0.1 -2.942,-1.453 -2.909,-3.12 0.069,-3.368 5.427,-5.985 8.3,-4.593 3.48,1.687 2.448,6.906 -0.175,8.843" />
      </g>
      <g
         transform="translate(123.1347,724.4781)"
         id="g2933"
         style="opacity:1;stop-opacity:1">
        <path
           inkscape:connector-curvature="0"
           id="path2935"
           style="fill:#e20613;fill-opacity:1;fill-rule:nonzero;stroke:none"
           d="m 0,0 c -0.568,3.361 -3.455,2.577 -5.17,0.69 -0.009,0.872 -0.239,1.644 -1.458,2.097 -1.629,0.606 -3.399,-0.429 -4.354,-1.709 -2.587,-3.465 -0.749,-9.397 3.903,-9.834 C -3.129,-9.128 0.609,-3.608 0,0" />
      </g>
      <g
         transform="translate(105.895,736.1487)"
         id="g2937"
         style="opacity:1;stop-opacity:1">
        <path
           inkscape:connector-curvature="0"
           id="path2939"
           style="fill:#e20613;fill-opacity:1;fill-rule:nonzero;stroke:none"
           d="M 0,0 C -0.847,0.949 -2.479,1.822 -3.643,0.897 -3.94,0.662 -4.13,0.339 -4.248,-0.017 -4.43,0.095 -4.625,0.194 -4.847,0.256 -6.138,0.622 -7.309,-0.228 -7.775,-1.393 -9.04,-4.564 -5.667,-7.761 -2.539,-7.134 0.691,-6.486 2.26,-2.533 0,0" />
      </g>
      <g
         transform="translate(121.2895,751.3328)"
         id="g2941"
         style="opacity:1;stop-opacity:1">
        <path
           inkscape:connector-curvature="0"
           id="path2943"
           style="fill:#e20613;fill-opacity:1;fill-rule:nonzero;stroke:none"
           d="M 0,0 C -0.974,-0.031 -1.77,-0.562 -2.352,-1.291 -2.538,-0.936 -2.8,-0.61 -3.164,-0.332 -4.369,0.586 -6.03,0.336 -6.778,-1.025 -8.47,-4.105 -7.259,-8.25 -3.552,-8.752 -0.047,-9.226 2.532,-5.85 2.531,-2.585 2.531,-1.097 1.542,0.049 0,0" />
      </g>
    </g>
    <path
       transform="matrix(0.26458333,0,0,0.26458333,21.010707,17.093706)"
       inkscape:connector-curvature="0"
       id="path3692"
       d="m 110.30251,159.20625 c -2.6087,-3.31643 -3.15932,-11.52966 -1.13257,-16.89389 1.69752,-4.49285 6.65168,-9.33381 9.55207,-9.33381 4.22743,0 8.56191,12.43781 6.79201,19.48968 -0.3848,1.53316 -2.00752,4.34189 -3.60604,6.24163 -3.75045,4.45715 -8.33566,4.65327 -11.60547,0.49639 z"
       style="fill:#f5f5f5;stroke-width:1.12251" />
    <path
       transform="matrix(0.26458333,0,0,0.26458333,21.010707,17.093706)"
       inkscape:connector-curvature="0"
       id="path3694"
       d="m 105.16973,252.08674 c -9.853595,-2.45545 -16.880397,-5.58913 -21.737793,-9.6942 l -3.777567,-3.19249 5.598164,-2.47062 c 14.883856,-6.56866 23.099826,-21.56185 26.097656,-47.62518 0.6036,-5.24775 1.1016,-12.41232 1.10667,-15.92127 0.009,-6.1228 0.1336,-6.3942 3.09612,-6.73508 3.06796,-0.35301 3.10146,-0.28281 5.45524,11.43121 1.30258,6.48252 2.24418,11.93925 2.09244,12.12607 -0.15173,0.18682 -1.38496,-1.45486 -2.7405,-3.64817 -2.44499,-3.95607 -4.52655,-5.19001 -4.52655,-2.68332 0,2.22277 5.57187,10.94236 7.73043,12.09758 1.14756,0.61416 3.40924,4.9401 5.14592,9.84265 3.80115,10.73043 11.71203,27.82826 16.40329,35.45253 l 3.49091,5.67345 -2.63448,2.04858 c -7.06775,5.49592 -25.8785,7.01658 -40.79995,3.29826 z"
       style="fill:#f5f5f5;stroke-width:1.12251" />
    <path
       transform="matrix(0.26458333,0,0,0.26458333,21.010707,17.093706)"
       inkscape:connector-curvature="0"
       id="path3696"
       d="m 169.2273,154.38838 c -6.33786,-7.00326 -2.62962,-23.62101 5.48559,-24.58259 9.35444,-1.10841 12.99237,15.66235 5.10782,23.54691 -3.71288,3.71287 -7.80824,4.11327 -10.59341,1.03568 z"
       style="fill:#f5f5f5;stroke-width:1.12251" />
    <path
       transform="matrix(0.26458333,0,0,0.26458333,21.010707,17.093706)"
       inkscape:connector-curvature="0"
       id="path3698"
       d="m 181.22005,232.01617 c -14.30421,-0.20181 -21.60839,-0.70775 -21.60839,-1.49674 0,-0.65554 0.9742,-5.06453 2.1649,-9.79776 1.19069,-4.73324 2.78629,-11.88924 3.54577,-15.90222 1.18641,-6.26885 1.99222,-7.82596 5.72213,-11.05718 5.15543,-4.46615 7.64994,-8.89513 7.64994,-13.58239 0,-4.88359 -2.7377,-4.33945 -4.2935,0.85337 -0.70472,2.35215 -2.63353,5.50922 -4.28623,7.01571 -2.47375,2.25489 -2.87096,2.36788 -2.24714,0.63917 0.41677,-1.15493 1.08177,-8.12567 1.47777,-15.49053 l 0.72001,-13.39065 4.47782,0.3366 4.47782,0.33659 12.07255,35.92045 c 6.6399,19.75625 11.99658,35.92045 11.90375,35.92045 -0.0928,0 -9.89258,-0.13719 -21.7772,-0.30487 z"
       style="fill:#f5f5f5;stroke-width:1.12251" />
    <path
       transform="matrix(0.26458333,0,0,0.26458333,21.010707,17.093706)"
       inkscape:connector-curvature="0"
       id="path3700"
       d="m 146.47689,178.69756 c -0.25536,-0.41318 1.19377,-2.06652 1.81916,-2.07552 0.66773,-0.01 1.1368,1.1109 0.75987,1.81519 -0.36221,0.6768 -2.20658,0.86297 -2.57903,0.26033 z"
       style="fill:#f5f5f5;stroke-width:0.348612" />
    <path
       transform="matrix(0.26458333,0,0,0.26458333,21.010707,17.093706)"
       inkscape:connector-curvature="0"
       id="path3702"
       d="m 144.88355,198.78572 c 0.91235,-0.97115 2.12252,-1.3996 2.12252,-0.75146 0,0.68425 -1.19223,1.59015 -2.09273,1.59015 h -0.8177 z"
       style="fill:#f5f5f5;stroke-width:0.348612" />
    <path
       transform="matrix(0.26458333,0,0,0.26458333,21.010707,17.093706)"
       inkscape:connector-curvature="0"
       id="path3704"
       d="m 139.33661,293.18667 c 0,-0.26013 0.62767,-0.88834 1.39482,-1.39601 1.1037,-0.7304 1.92227,-0.95228 3.92189,-1.06306 l 2.52706,-0.14 -2.37117,1.24631 c -2.72661,1.43314 -5.4726,2.11191 -5.4726,1.35276 z"
       style="fill:#f5f5f5;stroke-width:0.348612" />
    <path
       transform="matrix(0.26458333,0,0,0.26458333,21.010707,17.093706)"
       inkscape:connector-curvature="0"
       id="path3706"
       d="m 166.35404,290.1892 c -1.7476,-0.61477 -2.62102,-1.66873 -1.38286,-1.66873 0.57701,0 3.99745,1.64563 3.99745,1.92324 0,0.28205 -1.50603,0.13545 -2.61459,-0.25451 z"
       style="fill:#f5f5f5;stroke-width:0.348612" />
    <path
       transform="matrix(0.26458333,0,0,0.26458333,21.010707,17.093706)"
       inkscape:connector-curvature="0"
       id="path3708"
       d="m 182.10883,291.41384 c -0.36403,-0.0943 -0.57901,-0.4084 -0.50926,-0.74394 0.16746,-0.80553 1.9395,-0.63257 2.85028,0.27821 l 0.70987,0.70987 -1.21046,-0.0404 c -0.66575,-0.0222 -1.49395,-0.11391 -1.84043,-0.2037 z"
       style="fill:#f5f5f5;stroke-width:0.348612" />
    <path
       transform="matrix(0.26458333,0,0,0.26458333,21.010707,17.093706)"
       inkscape:connector-curvature="0"
       id="path3710"
       d=""
       style="fill:#f5f5f5;stroke-width:0.348612" />
    <path
       transform="matrix(0.26458333,0,0,0.26458333,21.010707,17.093706)"
       inkscape:connector-curvature="0"
       id="path3712"
       d="m 119.98864,298.35629 c 0.19174,-0.19359 0.97379,-0.68178 1.7379,-1.08486 2.29095,-1.20853 5.54183,-0.80716 3.58954,0.44318 -0.93317,0.59765 -5.87315,1.19266 -5.32744,0.64168 z"
       style="fill:#f5f5f5;stroke-width:0.348612" />
  </g>
  <g
     style="display:inline"
     inkscape:label="Layer 2"
     id="layer4"
     inkscape:groupmode="layer">
    <g
       transform="matrix(1.0959659,0,0,1.0959659,-4.8528867,-8.1274033)"
       id="g3851">
      <g
         id="g3747"
         transform="matrix(0.35277777,0,0,-0.35277777,-201.42326,290.39455)">
        <g
           style="opacity:1;stop-opacity:1"
           id="g2861"
           transform="translate(691.9683,690.4976)">
          <path
             d="m 0,0 c -8.341,4.664 2.98,21.674 11.303,20.548 0.035,-0.04 0.062,-0.082 0.108,-0.117 C 19.005,14.665 10.063,-5.627 0,0 m 12.187,-36.128 c 2.834,-5.012 6.431,-9.647 10.702,-13.519 3.163,-2.868 7.647,-6.408 12.17,-5.985 -16.535,-15.46 -40.453,-12.132 -58.335,-0.728 5.713,7.775 9.817,16.473 13.106,25.525 1.405,3.868 2.767,7.802 4.037,11.773 2.871,0.247 5.607,1.033 7.777,2.779 0.505,0.406 -0.04,1.277 -0.628,1.079 -2.277,-0.769 -4.311,-1.538 -6.555,-1.97 0.88,2.833 1.699,5.683 2.448,8.543 0.439,-0.281 0.876,-0.562 1.309,-0.877 0.752,-0.547 1.717,0.694 1,1.296 -0.594,0.498 -1.214,0.957 -1.853,1.38 0.456,1.82 0.89,3.642 1.274,5.466 2.157,-1.37 4.485,-1.611 6.687,-1.098 C 5.314,-2.498 5.293,-2.523 5.285,-2.562 3.086,-13.643 6.74,-26.496 12.187,-36.128 M -0.571,-86.702 c -0.23,0.05 -0.476,0.07 -0.7,0.093 -0.238,0.024 -0.475,0.018 -0.711,0.01 -0.073,0.065 -0.135,0.136 -0.22,0.193 -1.341,0.883 -3.409,-0.215 -4.592,-0.941 -0.613,-0.376 -1.167,-0.83 -1.602,-1.361 -2.183,8.967 -4.893,18.51 -9.092,26.755 6.235,-3.015 12.984,-5.087 19.755,-5.859 -1.704,-6.083 -2.492,-12.541 -2.838,-18.89 m -0.159,-3.65 c -0.341,-0.317 -0.829,-0.468 -1.291,-0.463 -0.278,0.003 -0.551,0.123 -0.822,0.196 0.254,0.155 0.499,0.325 0.713,0.539 0.634,0.632 0.944,1.626 0.745,2.479 0.027,-0.005 0.053,-0.003 0.08,-0.009 0.249,-0.051 0.462,-0.135 0.675,-0.177 -0.04,-0.858 -0.074,-1.714 -0.1,-2.565 m -22.72,50.358 c 4.21,2.466 7.956,5.389 10.627,9.64 0.549,0.875 -0.473,1.647 -1.233,1.314 -0.057,0.151 -0.143,0.296 -0.298,0.413 -4.199,3.172 -8.277,6.325 -12.1,9.845 1.662,0.001 3.304,0.16 4.893,0.498 0.279,-1.429 1.847,-2.329 3.321,-2.021 0.989,0.206 1.826,0.998 2.156,1.934 2.275,-0.396 4.825,-0.746 7.373,-0.778 -3.244,-10.024 -6.508,-19.966 -11.772,-29.154 -0.007,0.032 0,0.059 -0.011,0.093 -0.855,2.759 -1.9,5.515 -2.956,8.216 m -4.744,-0.159 c -5.314,-2.744 -10.725,-5.226 -16.553,-6.575 0.254,15.072 -1.493,30.763 -7.021,44.855 0.023,-0.002 0.046,-0.008 0.07,-0.009 3.43,-0.246 6.039,1.084 7.574,3.311 2.897,-6.347 7.101,-12.411 12.071,-17.785 -2.847,0.367 -5.681,0.938 -8.61,1.904 -0.514,0.169 -0.876,-0.653 -0.374,-0.887 3.367,-1.572 7.226,-2.768 11.118,-3.233 4.499,-4.497 9.518,-8.429 14.708,-11.522 0.053,-0.031 0.101,-0.036 0.152,-0.056 -3.405,-4.496 -8.164,-7.435 -13.135,-10.003 M -60.162,6.919 c -0.689,2.013 -0.699,4.214 -0.122,6.256 0.48,1.702 2.85,6.989 5.614,5.474 0.345,-0.19 0.63,0.036 0.681,0.321 9.283,0.208 14.613,-19.543 2.79,-19.085 -4.056,0.157 -7.676,3.27 -8.963,7.034 m 41.253,-25.653 c -1.312,-0.022 -1.464,1.158 -0.961,1.997 0.174,-0.201 0.46,-0.297 0.722,-0.122 0.514,0.344 1.339,0.417 1.607,-0.295 0.302,-0.803 -0.656,-1.567 -1.368,-1.58 m -16.076,15.017 c 1.593,0.183 3.184,0.293 4.788,0.313 2.828,0.033 5.576,-0.323 8.377,-0.588 -0.03,-0.225 -0.04,-0.453 -0.005,-0.679 0.252,-1.629 2.05,-2.184 3.385,-1.413 0.578,0.334 0.961,0.852 1.135,1.42 0.098,-0.194 0.28,-0.34 0.536,-0.331 4.364,0.163 8.258,-0.676 11.911,-2.604 -1.159,-3.289 -2.248,-6.593 -3.317,-9.895 -2.58,-0.151 -5.174,-0.047 -7.759,-0.012 -0.003,0.401 -0.106,0.805 -0.339,1.181 -0.516,0.832 -1.681,1.276 -2.624,1.037 -1.187,0.209 -2.233,-0.662 -2.584,-1.757 -2.458,0.071 -4.82,0.153 -7.145,0.332 -0.695,0.687 -1.382,1.388 -2.056,2.11 -3.007,3.219 -5.759,6.674 -8.415,10.2 0.082,0.062 0.115,0.195 -0.002,0.247 0.912,-0.404 3.075,0.32 4.114,0.439 M -20.094,-4.1 c 0.075,0.299 0.15,0.699 0.484,0.819 0.304,0.11 0.62,-0.126 0.747,-0.394 0.243,-0.512 -0.249,-0.995 -0.716,-1.13 -0.455,-0.132 -0.723,0.058 -0.838,0.367 0.147,0.057 0.278,0.156 0.323,0.338 m 35.469,-86.728 c -1.413,-0.235 -3.281,-0.564 -4.249,0.4 -1.045,1.04 0.826,1.869 1.724,1.672 0.951,-0.208 1.619,-0.948 2.543,-1.184 0.014,-0.004 0.028,-0.002 0.042,-0.004 -0.021,-0.294 -0.039,-0.59 -0.06,-0.884 m -31.242,0.166 c 0.712,-0.063 1.551,-0.091 0.615,-0.837 -0.329,-0.262 -0.734,-0.473 -1.113,-0.648 -1.045,-0.482 -2.162,-0.646 -3.295,-0.615 0.823,1.307 2.124,2.248 3.793,2.1 m 54.222,99.61 c 0.452,0.569 -0.134,1.598 -0.852,1.105 -9.107,-6.264 -14.244,5.264 -19.845,10.296 -1.58,1.421 -4.192,3.3 -5.878,1.408 -1.026,0.558 -2.166,0.718 -3.356,0.552 4.832,3.098 10.646,2.121 14.24,-3.145 1.673,-2.452 2.823,-5.357 5.347,-7.117 2.614,-1.824 6.635,-2.174 8.257,1.015 0.229,0.451 -0.263,1.073 -0.746,0.746 C 27.803,8.579 24.309,23.223 17.925,25.595 12.917,27.455 7.756,25.424 4.991,21.047 -2.046,16.995 -8.646,4.723 -2.278,-0.692 c -0.691,-1.717 -1.336,-3.446 -1.964,-5.179 -3.854,2.072 -8.301,2.862 -12.695,2.115 -0.118,-0.02 -0.204,-0.076 -0.274,-0.143 -0.024,0.641 -0.305,1.272 -0.917,1.72 -0.692,0.506 -1.61,0.575 -2.333,0.096 -0.077,-0.05 -0.149,-0.109 -0.219,-0.171 -0.198,-0.105 -0.372,-0.244 -0.525,-0.408 -5.957,1.499 -12.748,1.095 -18.607,-0.783 -1.34,1.795 -2.661,3.602 -3.98,5.404 1.025,1.771 1.442,4.012 1.117,6.46 -0.67,5.038 -6.246,14.384 -12.492,11.827 -0.082,-0.033 -0.143,-0.079 -0.203,-0.126 -1.457,0.504 -2.767,-0.183 -3.858,-1.422 -0.078,0.165 -0.177,0.302 -0.27,0.447 -0.146,-0.283 -0.305,-0.558 -0.485,-0.819 -0.149,-0.217 -0.313,-0.421 -0.471,-0.63 0.1,-0.084 0.202,-0.164 0.297,-0.263 -1.504,-2.403 -2.398,-5.711 -2.377,-7.398 0.067,-5.411 4.102,-10.561 9.4,-11.7 0.003,-0.028 -0.003,-0.051 0.005,-0.081 3.799,-15.356 6.634,-30.418 6.234,-46.317 -0.019,-0.734 0.691,-1.155 1.346,-1.026 4.128,0.813 8.075,2.22 11.905,3.914 2.204,-16.371 6.472,-32.884 11.611,-48.551 0.229,-0.699 0.993,-0.771 1.444,-0.443 0.117,-0.092 0.254,-0.165 0.435,-0.18 2.016,-0.172 4.019,0.352 5.662,1.551 1.094,0.798 1.918,2.3 0.369,3.12 -2.194,1.161 -5.358,-0.063 -6.515,-2.236 -4.238,15.691 -7.9,31.482 -11.92,47.225 2.266,1.041 4.495,2.171 6.694,3.341 0.473,0.252 0.936,0.511 1.399,0.771 0.536,-2.74 1.273,-5.529 2.296,-8.095 0.208,-0.522 0.735,-0.668 1.152,-0.542 -1.394,-2.359 -2.92,-4.667 -4.623,-6.91 -0.35,-0.461 -0.05,-1.136 0.371,-1.414 2.047,-1.351 4.191,-2.594 6.403,-3.726 2.276,-9.821 5.99,-19.582 9.003,-29.205 0.102,-0.324 0.316,-0.504 0.56,-0.588 0,-0.019 -0.004,-0.036 -0.004,-0.055 -0.003,-0.393 0.534,-0.434 0.657,-0.089 0.026,0.073 0.066,0.133 0.095,0.203 0.304,0.153 0.514,0.456 0.477,0.868 0.418,0.599 0.956,1.098 1.608,1.497 0.715,0.439 2.254,1.336 3.136,1.147 1.26,-0.269 0.253,-1.534 -0.291,-1.868 -0.505,-0.311 -1.095,-0.479 -1.649,-0.678 -1.086,-0.389 -2.191,-0.74 -3.245,-1.21 -0.8,-0.357 -0.229,-1.643 0.591,-1.402 1.186,0.349 2.349,0.838 3.5,1.29 0.198,0.078 0.398,0.156 0.596,0.238 0,-0.001 0,-0.002 0,-0.003 0.003,-0.965 1.333,-1.133 2.057,-0.988 0.53,0.106 0.942,0.382 1.258,0.759 0.406,-0.344 1.216,-0.143 1.285,0.562 0.751,7.622 1.921,15.237 2.561,22.865 4.605,-0.431 9.208,-0.252 13.657,0.653 -0.635,-7.039 -0.971,-14.143 -1.452,-21.204 -0.987,0.904 -2.584,1.492 -3.81,1.256 -1.257,-0.242 -2.496,-1.323 -2.449,-2.689 0.1,-2.952 4.232,-2.991 6.335,-1.77 0.406,-0.328 1.168,-0.264 1.28,0.357 1.409,7.824 1.921,16.293 0.831,24.221 7.141,1.59 13.861,5.069 19.508,10.948 0.747,0.777 -0.221,1.891 -1.045,1.498 -5.39,2.183 -9.696,4.11 -13.907,8.414 -3.755,3.837 -6.897,8.237 -9.362,13.004 -5.096,9.851 -5.903,19.613 -6.086,30.462 -0.004,0.291 -0.17,0.506 -0.386,0.635 2.622,0.935 4.964,2.918 6.494,5.326 1.227,-2.345 1.044,-12.875 1.517,-14.169 1.08,-2.954 3.597,-5.109 6.79,-4.573 1.177,0.197 0.717,1.773 -0.257,1.899 -7.248,0.938 -3.755,10.322 -5.284,15.034 -0.345,1.065 -1.029,2.543 -2.035,3.106 0.61,1.223 1.16,2.679 1.563,4.24 4.822,-4.693 1.72,-11.835 5.783,-16.772 2.08,-2.526 6.885,-3.511 8.533,-0.027 0.398,0.841 -0.554,1.579 -1.27,0.98 -3.124,-2.613 -6.061,0.224 -6.912,3.399 -0.545,2.036 -0.473,4.187 -0.801,6.26 -0.505,3.191 -1.831,5.719 -4.632,7.401 -0.135,0.081 -0.271,0.096 -0.401,0.081 0.213,1.09 0.355,2.202 0.38,3.294 2.96,-0.46 5.792,-7.956 7.195,-9.941 1.293,-1.829 2.846,-3.555 4.818,-4.666 3.27,-1.841 7.919,-1.936 9.483,2.013 0.385,0.974 -1.032,1.358 -1.559,0.657 -3.52,-4.689 -8.882,0.134 -10.959,3.038 -1.476,2.064 -2.546,4.394 -3.969,6.495 -1.215,1.794 -2.807,4.172 -5.049,3.958 -0.205,2.477 -1.076,4.712 -2.995,6.101 4.449,0.899 16.286,-23.619 25.479,-12.05"
             style="fill:#3c3c3b;fill-opacity:1;fill-rule:nonzero;stroke:none"
             id="path2863"
             inkscape:connector-curvature="0" />
        </g>
        <g
           style="opacity:1;stop-opacity:1"
           id="g2865"
           transform="translate(646.0418,724.6239)">
          <path
             d="m 0,0 c -1.327,2.735 -4.325,1.985 -5.827,0.061 -0.399,0.55 -0.97,0.957 -1.734,1.039 -1.484,0.161 -2.461,-1.266 -2.733,-2.567 -0.691,-3.309 2.403,-6.283 5.638,-5.786 C -1.558,-6.778 1.545,-3.186 0,0"
             style="fill:#e20613;fill-opacity:1;fill-rule:nonzero;stroke:none"
             id="path2867"
             inkscape:connector-curvature="0" />
        </g>
        <g
           style="opacity:1;stop-opacity:1"
           id="g2869"
           transform="translate(634.9031,739.3171)">
          <path
             d="m 0,0 c -2.54,2.779 -7.62,1.538 -8.429,-2.017 -2.166,0.815 -4.814,-0.272 -5.217,-3.198 -0.727,-5.278 6.975,-6.551 10.56,-5.053 C 0.894,-8.606 3.243,-3.549 0,0"
             style="fill:#e20613;fill-opacity:1;fill-rule:nonzero;stroke:none"
             id="path2871"
             inkscape:connector-curvature="0" />
        </g>
        <g
           style="opacity:1;stop-opacity:1"
           id="g2873"
           transform="translate(646.2748,747.5713)">
          <path
             d="M 0,0 C -0.192,0.306 -0.461,0.56 -0.791,0.733 -2.052,1.391 -3.571,0.842 -4.421,-0.204 -6.25,-2.453 -5.076,-6.098 -2.38,-6.996 0.675,-8.013 4.93,-5.62 4.669,-2.123 4.477,0.457 1.644,1.156 0,0"
             style="fill:#e20613;fill-opacity:1;fill-rule:nonzero;stroke:none"
             id="path2875"
             inkscape:connector-curvature="0" />
        </g>
        <g
           style="opacity:1;stop-opacity:1"
           id="g2877"
           transform="translate(704.1458,723.5072)">
          <path
             d="m 0,0 c -0.947,2.124 -3.984,2.56 -5.389,1.263 -0.322,0.268 -0.708,0.476 -1.157,0.581 -1.694,0.397 -3.484,-0.809 -4.31,-2.228 -2.164,-3.721 2.67,-6.785 5.927,-6.499 C -1.619,-6.593 1.544,-3.462 0,0"
             style="fill:#e20613;fill-opacity:1;fill-rule:nonzero;stroke:none"
             id="path2879"
             inkscape:connector-curvature="0" />
        </g>
        <g
           style="opacity:1;stop-opacity:1"
           id="g2881"
           transform="translate(721.4662,730.9416)">
          <path
             d="M 0,0 C -0.157,1.718 -1.456,3.443 -3.248,3.644 -4.125,3.743 -4.991,3.468 -5.633,2.945 -5.805,3.695 -6.187,4.388 -6.88,4.947 -8.452,6.212 -10.506,5.573 -11.813,4.257 -15.143,0.906 -14.395,-5.256 -9.785,-6.952 -5.467,-8.54 0.448,-4.891 0,0"
             style="fill:#e20613;fill-opacity:1;fill-rule:nonzero;stroke:none"
             id="path2883"
             inkscape:connector-curvature="0" />
        </g>
        <g
           style="opacity:1;stop-opacity:1"
           id="g2885"
           transform="translate(711.4783,749.852)">
          <path
             d="M 0,0 C -0.932,1.62 -2.802,2.974 -4.748,2.686 -5.81,2.528 -6.683,1.802 -7.019,0.9 c -1.548,0.944 -3.766,0.84 -5.104,-1.043 -2.966,-4.174 3.155,-8.473 6.855,-8.573 C -0.774,-8.838 2.255,-3.922 0,0"
             style="fill:#e20613;fill-opacity:1;fill-rule:nonzero;stroke:none"
             id="path2887"
             inkscape:connector-curvature="0" />
        </g>
      </g>
      <path
         style="fill:#f5f5f5;stroke-width:0.68916"
         d="m 161.79665,176.36006 c -3.15276,-2.12464 -4.20956,-4.33801 -3.77213,-7.90039 0.8241,-6.71135 7.49476,-15.3691 13.65398,-17.72133 3.81951,-1.45868 4.87542,-1.1687 6.7118,1.84326 4.02532,6.60219 -0.89998,20.61215 -8.51709,24.2267 -3.21993,1.52796 -5.31677,1.41159 -8.07656,-0.44824 z"
         id="path3806"
         inkscape:connector-curvature="0"
         transform="scale(0.26458333)" />
      <path
         style="fill:#f5f5f5;stroke-width:0.68916"
         d="m 162.89072,264.04874 c -9.20964,-1.43224 -22.31056,-6.16335 -29.75217,-10.74432 l -2.18578,-1.34555 3.12319,-4.79554 c 4.93589,-7.57887 10.93472,-20.36674 15.33293,-32.6856 2.85241,-7.98927 4.42813,-11.48855 5.32131,-11.81735 0.69791,-0.25692 2.50941,-0.81312 4.02557,-1.236 3.48861,-0.97303 5.45233,-2.46338 4.95465,-3.76032 -0.33225,-0.86582 -0.99193,-0.82001 -4.66815,0.32416 -2.35467,0.73286 -4.32981,1.24923 -4.38919,1.14749 -0.0594,-0.10174 0.54038,-2.41521 1.33281,-5.14104 1.1127,-3.82751 1.65634,-4.82283 2.38742,-4.37101 1.21341,0.74994 2.79451,0.15031 2.79451,-1.05981 0,-0.51467 -0.62024,-1.26771 -1.37831,-1.67342 -1.57484,-0.84282 -1.64876,-1.41059 -0.65127,-5.00242 0.6245,-2.24873 0.8907,-2.49869 2.01833,-1.89519 0.71443,0.38235 2.48231,0.69483 3.92862,0.6944 l 2.62965,-7.7e-4 -0.23222,7.13966 c -0.39239,12.06391 2.52992,23.59604 9.11728,35.979 7.00984,13.17713 18.72833,24.87019 27.21426,27.15521 l 2.93284,0.78973 -2.97625,2.40139 c -4.02046,3.24392 -13.00968,7.56148 -18.48234,8.87715 -5.61439,1.34975 -16.95645,1.86635 -22.39769,1.02015 z"
         id="path3808"
         inkscape:connector-curvature="0"
         transform="scale(0.26458333)" />
      <path
         style="fill:#f5f5f5;stroke-width:0.68916"
         d="m 88.052999,174.94892 c -6.440605,-3.4015 -8.973387,-11.63716 -5.586034,-18.16368 1.941407,-3.74057 3.566543,-4.81375 7.022353,-4.63731 5.396907,0.27555 10.21781,5.35593 11.802702,12.43796 2.11397,9.44625 -4.770791,14.8354 -13.239021,10.36303 z"
         id="path3810"
         inkscape:connector-curvature="0"
         transform="scale(0.26458333)" />
      <path
         style="fill:#f5f5f5;stroke-width:0.68916"
         d="m 101.90009,231.46093 c 0,-14.42128 -2.735707,-32.56297 -6.830542,-45.29637 l -1.984934,-6.1724 2.748794,-0.43955 c 1.511836,-0.24175 3.628608,-1.17986 4.703942,-2.08469 l 1.95514,-1.64515 2.46555,4.69195 c 1.35605,2.58057 4.6131,7.55177 7.23789,11.04711 2.62479,3.49534 4.39332,6.35516 3.93006,6.35516 -0.46326,0 -2.62824,-0.46518 -4.81108,-1.03374 -4.89085,-1.27391 -5.27986,-1.27805 -5.27986,-0.0562 0,1.00815 5.70525,3.16766 11.99795,4.54138 2.61064,0.56992 4.32396,1.60937 7.50113,4.55087 2.26472,2.09673 6.57936,5.53719 9.58807,7.64545 l 5.4704,3.83321 -2.63413,2.71214 c -3.65949,3.76787 -9.6628,7.67059 -17.98783,11.6938 -6.28214,3.03594 -15.93964,6.7735 -17.5021,6.7735 -0.31265,0 -0.56845,-3.20241 -0.56845,-7.11648 z"
         id="path3812"
         inkscape:connector-curvature="0"
         transform="scale(0.26458333)" />
      <path
         style="fill:#f5f5f5;stroke-width:0.272991"
         d="m 134.52794,183.08856 c -0.21558,-0.34881 0.51046,-1.54245 0.93819,-1.54245 0.66314,0 0.49354,1.26834 -0.20411,1.52642 -0.33305,0.1232 -0.66339,0.13041 -0.73408,0.016 z"
         id="path3814"
         inkscape:connector-curvature="0"
         transform="scale(0.26458333)" />
      <path
         style="fill:#f5f5f5;stroke-width:0.272991"
         d="m 134.92456,201.2165 c -0.43346,-0.52228 -0.25741,-1.64911 0.26052,-1.66754 0.22522,-0.008 0.74891,-0.11386 1.16376,-0.23523 0.81344,-0.23797 1.56615,0.16056 1.56615,0.82921 0,1.13994 -2.26153,1.95183 -2.99043,1.07356 z"
         id="path3816"
         inkscape:connector-curvature="0"
         transform="scale(0.26458333)" />
      <path
         style="fill:#f5f5f5;stroke-width:0.272991"
         d="m 136.14055,299.61678 c 1.03548,-1.12302 2.23739,-1.63994 3.81311,-1.63994 1.41852,0 1.55766,0.29128 0.4865,1.01844 -1.15971,0.78728 -2.10206,1.12754 -3.67439,1.32674 l -1.44419,0.18296 z"
         id="path3818"
         inkscape:connector-curvature="0"
         transform="scale(0.26458333)" />
      <path
         style="fill:#f5f5f5;stroke-width:0.272991"
         d="m 150.66637,297.43128 c 0.35918,-1.3735 4.85721,-4.05261 6.22688,-3.70885 0.84073,0.21101 0.8611,0.74149 0.0629,1.63772 -0.51231,0.57522 -5.36308,2.61669 -6.21755,2.61669 -0.11818,0 -0.15067,-0.2455 -0.0722,-0.54556 z"
         id="path3820"
         inkscape:connector-curvature="0"
         transform="scale(0.26458333)" />
      <path
         style="fill:#f5f5f5;stroke-width:0.272991"
         d="m 158.7747,296.86375 c 0.38879,-0.46205 0.78395,-1.32198 0.87813,-1.91094 0.26561,-1.66103 0.64744,-1.2633 0.64744,0.6744 0,1.86533 -0.15753,2.07664 -1.54805,2.07664 h -0.68442 z"
         id="path3822"
         inkscape:connector-curvature="0"
         transform="scale(0.26458333)" />
      <path
         style="fill:#f5f5f5;stroke-width:0.272991"
         d="m 177.57304,298.03176 c -0.84606,-0.26629 -1.76932,-1.10753 -1.64755,-1.5012 0.0558,-0.18049 0.55498,-0.55302 1.10922,-0.82784 l 1.00772,-0.49968 1.91207,0.88133 c 1.73293,0.79876 2.28429,1.35721 1.69784,1.71966 -0.40196,0.24843 -3.46946,0.41967 -4.0793,0.22773 z"
         id="path3824"
         inkscape:connector-curvature="0"
         transform="scale(0.26458333)" />
    </g>
  </g>
</svg>
