<?xml version="1.0" encoding="UTF-8" standalone="no"?>
<svg
   xmlns:dc="http://purl.org/dc/elements/1.1/"
   xmlns:cc="http://creativecommons.org/ns#"
   xmlns:rdf="http://www.w3.org/1999/02/22-rdf-syntax-ns#"
   xmlns:svg="http://www.w3.org/2000/svg"
   xmlns="http://www.w3.org/2000/svg"
   xmlns:sodipodi="http://sodipodi.sourceforge.net/DTD/sodipodi-0.dtd"
   xmlns:inkscape="http://www.inkscape.org/namespaces/inkscape"
   sodipodi:docname="fig3.svg"
   inkscape:version="1.0beta1 (32d4812, 2019-09-19)"
   id="svg3513"
   version="1.1"
   viewBox="0 0 74 105"
   height="105mm"
   width="74mm">
  <defs
     id="defs3507" />
  <sodipodi:namedview
     inkscape:window-maximized="0"
     inkscape:window-y="25"
     inkscape:window-x="0"
     inkscape:window-height="875"
     inkscape:window-width="1440"
     showborder="true"
     inkscape:pagecheckerboard="true"
     fit-margin-bottom="0"
     fit-margin-right="0"
     fit-margin-left="0"
     fit-margin-top="0"
     showgrid="false"
     inkscape:document-rotation="0"
     inkscape:current-layer="layer5"
     inkscape:document-units="mm"
     inkscape:cy="180.28952"
     inkscape:cx="17.165691"
     inkscape:zoom="1.8745116"
     inkscape:pageshadow="2"
     inkscape:pageopacity="0.0"
     borderopacity="1.0"
     bordercolor="#666666"
     pagecolor="#ffffff"
     id="base" />
  <metadata
     id="metadata3510">
    <rdf:RDF>
      <cc:Work
         rdf:about="">
        <dc:format>image/svg+xml</dc:format>
        <dc:type
           rdf:resource="http://purl.org/dc/dcmitype/StillImage" />
        <dc:title></dc:title>
      </cc:Work>
    </rdf:RDF>
  </metadata>
  <g
     sodipodi:insensitive="true"
     style="display:none"
     transform="translate(-21.010707,-17.093706)"
     id="layer1"
     inkscape:groupmode="layer"
     inkscape:label="Layer 1">
    <g
       transform="matrix(0.35277777,0,0,-0.35277777,19.185761,307.48818)"
       id="g3645">
      <g
         transform="translate(124.037,649.3382)"
         id="g2925"
         style="opacity:1;stop-opacity:1">
        <path
           inkscape:connector-curvature="0"
           id="path2927"
           style="fill:#3c3c3b;fill-opacity:1;fill-rule:nonzero;stroke:none"
           d="m 0,0 c 2.303,8.737 4.34,17.686 5.831,26.714 5.199,2.5 9.237,7.032 8.988,13.084 -0.038,0.92 -1.451,1.199 -1.669,0.226 -1.127,-5.05 -3.556,-8.264 -6.857,-10.378 1.25,8.256 2.023,16.567 2.095,24.831 1.07,-0.412 2.288,-0.602 3.678,-0.483 1.321,0.114 2.493,0.472 3.531,1.013 C 18.351,45.169 22.044,35.493 25.303,25.81 28.237,17.092 30.55,7.324 34.752,-0.915 23.197,-0.246 11.574,-0.17 0,0 m 5.054,67.088 c 0.466,4.71 2.225,8.32 6.139,10.505 0.137,-0.144 0.332,-0.235 0.592,-0.216 10.586,0.77 10.483,-19.28 0.968,-21.181 C 6.333,54.913 4.58,62.305 5.054,67.088 M 17.136,-43.995 c 0.369,0.732 1.396,0.467 1.957,0.154 0.468,-0.262 0.826,-0.656 1.176,-1.056 -1.421,-0.149 -3.703,-0.226 -3.133,0.902 M 6.183,-44.079 c -0.336,0.07 -3.191,1.15 -1.523,1.635 0.621,0.181 1.888,-0.526 2.389,-0.788 0.542,-0.282 1.008,-0.668 1.496,-1.021 -0.792,-0.016 -1.586,0.012 -2.362,0.174 M -8.876,24.457 c -0.512,-0.61 -1.404,-0.799 -2.051,-0.29 0.578,0.494 0.833,1.211 1.651,1.448 0.238,0.069 0.868,0.146 0.931,-0.027 0.083,-0.229 -0.39,-0.964 -0.531,-1.131 M -11.207,-4.4 c 0.19,-0.368 0.494,-0.491 0.798,-0.473 0.331,-0.814 0.723,-1.607 1.166,-2.392 0.668,-1.181 1.448,-2.7 2.481,-3.778 -0.025,-0.026 -0.052,-0.046 -0.077,-0.075 -6.463,-7.503 -21.173,-6.869 -30.082,-5.34 -4.584,0.786 -9.201,2.088 -13.403,4.103 -2.102,1.008 -4.104,2.191 -5.935,3.633 -0.666,0.525 -3.101,2.369 -4.216,3.886 23.412,3.574 26.079,35.784 25.269,54.735 1.27,-0.527 2.764,-0.696 4.493,-0.386 0.558,0.1 1.081,0.27 1.587,0.471 0.667,-6.959 2.15,-14.002 4.186,-20.954 -2.41,1.984 -4.058,4.497 -5.5,7.346 -0.294,0.581 -1.141,0.163 -1.011,-0.427 0.852,-3.873 3.751,-7.499 7.408,-9.846 3.367,-10.659 7.956,-21.044 12.836,-30.503 m -27.014,68.846 c 0.901,4.571 2.884,8.074 7.003,10.131 0.238,-0.365 0.73,-0.601 1.181,-0.36 4.247,2.269 6.389,-10.406 6.221,-12.364 -0.409,-4.779 -3.988,-11.511 -9.673,-9.983 -5.501,1.479 -5.626,8.038 -4.732,12.576 m 23.782,-110.107 c -0.005,0.026 -0.011,0.053 -0.017,0.08 0.756,0.621 1.561,1.122 2.541,1.39 0.61,0.167 3.247,0.481 3.446,0.013 0.125,-0.293 -3.028,-1.774 -3.43,-1.91 -0.927,-0.311 -1.89,-0.339 -2.829,-0.49 0.227,0.211 0.37,0.52 0.289,0.917 m 5.973,86.63 c 0.393,0.714 1.334,0.735 1.63,-0.08 0.262,-0.72 -0.156,-1.347 -0.857,-1.545 -0.641,-0.18 -1.35,0.046 -1.58,0.712 -0.061,0.176 -0.083,0.353 -0.081,0.528 0.314,-0.099 0.667,-0.018 0.888,0.385 M 36.287,-1.359 c -1.589,9.623 -6.032,19.41 -9.186,28.617 -3.271,9.544 -6.167,19.35 -9.94,28.704 -0.01,0.023 -0.027,0.035 -0.037,0.057 7.78,6.342 5.175,25.058 -4.628,23.236 C 2.192,79.802 -0.711,60.189 7.085,55.141 7.017,55.042 6.963,54.929 6.947,54.787 5.938,45.845 4.882,36.993 3.526,28.197 0.599,26.956 -2.799,26.275 -6.476,25.818 c -0.077,0.791 -0.537,1.458 -1.572,1.662 -0.625,0.124 -1.474,0.001 -2.242,-0.315 -0.063,0.045 -0.135,0.08 -0.223,0.089 -1.392,0.136 -2.44,-0.936 -2.618,-2.175 -3.016,0.301 -5.765,0.616 -8.427,1.829 -1.458,4.93 -2.66,9.916 -3.884,14.899 5.035,0.404 9.699,-0.295 14.473,-1.877 0.022,-0.223 0.063,-0.442 0.135,-0.648 0.603,-1.736 2.7,-2.264 4.261,-1.509 1.078,0.522 1.673,1.598 1.666,2.693 1.682,0.429 3.356,0.877 5.073,1.15 1.585,0.253 3.249,0.112 4.726,0.754 0.655,0.285 0.355,1.177 -0.179,1.375 -1.546,0.573 -3.488,0.08 -5.063,-0.258 -1.699,-0.365 -3.331,-0.931 -4.875,-1.721 -0.088,0.175 -0.187,0.348 -0.315,0.509 -0.71,0.896 -1.981,1.175 -3.008,0.814 -0.102,0.044 -0.219,0.067 -0.352,0.043 -0.788,-0.144 -1.37,-0.69 -1.719,-1.376 -4.796,1.902 -10.032,2.228 -15.075,1.237 -0.015,-0.003 -0.023,-0.012 -0.037,-0.016 -0.636,2.579 -1.283,5.156 -1.981,7.722 4.379,2.764 6.329,9.319 5.843,14.065 -0.334,3.262 -3.786,13.834 -8.485,11.294 -0.042,0.008 -0.081,0.021 -0.13,0.02 -0.38,-0.006 -0.748,-0.042 -1.106,-0.1 2.414,5.756 -5.182,11.661 -10.341,11.972 -3.6,0.217 -7.035,-1.31 -9.672,-3.702 -1.505,-1.366 -2.573,-2.953 -3.652,-4.668 -2.239,-3.562 -4.5,-5.161 -8.592,-6.355 -0.948,-0.277 -0.798,-1.798 0.238,-1.761 5.903,0.211 8.241,4.502 11.268,8.819 3.281,4.679 8.996,7.811 14.551,4.662 2.05,-1.162 3.059,-2.758 3.79,-4.528 -1.967,3.203 -5.779,4.988 -10.04,3.964 -9.22,-2.215 -6.689,-15.594 -14.902,-19.074 -1.231,-0.521 -0.171,-2.338 1.056,-1.806 3.99,1.73 5.639,5.285 7.013,9.213 1.005,2.874 1.791,6.252 4.086,8.431 4.365,4.145 9.567,1.68 11.855,-2.632 -1.998,2.48 -5.777,3.38 -8.967,1.837 -8.944,-4.326 -3.277,-16.623 -10.741,-21.842 -1.056,-0.738 -0.157,-2.287 1.009,-1.727 3.572,1.719 4.975,5.299 5.544,9.043 0.482,3.171 0.224,6.684 1.958,9.524 2.761,4.522 9.653,4.921 11.148,-0.711 -0.256,-0.175 -0.501,-0.369 -0.741,-0.571 -2.077,2.408 -5.797,2.374 -7.786,-0.497 -3.943,-5.69 2.396,-16.636 -6.897,-18.378 -0.888,-0.166 -0.873,-1.601 0,-1.78 3.465,-0.707 6.256,1.999 7.251,5.208 0.71,2.29 0.467,4.723 0.394,7.076 -0.104,3.326 1.586,11.376 6.137,7.506 -5.498,-5.93 -5.657,-19.269 0.63,-22.904 -1.529,-18.516 -2.429,-49.334 -25.772,-53.049 -0.31,-0.049 -0.525,-0.219 -0.656,-0.446 -0.102,-0.123 -0.166,-0.276 -0.151,-0.435 0.002,-0.012 0.005,-0.025 0.006,-0.037 -0.027,-0.265 0.022,-0.543 0.141,-0.777 0.874,-3.505 4.984,-6.418 7.8,-8.191 5.1,-3.212 11.164,-5.113 17.07,-6.119 0.312,-0.053 0.642,-0.103 0.967,-0.154 0.077,-4.449 2.13,-9.271 3.001,-13.497 1.199,-5.815 1.492,-11.901 2.955,-17.628 0.216,-0.847 1.437,-0.648 1.499,0.176 0.662,0.324 1.199,0.848 1.904,1.122 0.458,0.179 2.864,0.767 2.953,-0.202 0.095,-1.025 -2.043,-1.095 -2.628,-1.177 -1.014,-0.143 -2.096,-0.158 -3.002,-0.658 -0.533,-0.294 -0.444,-1.206 0.175,-1.339 0.947,-0.203 1.879,0.046 2.827,0.19 0.859,0.13 1.767,0.211 2.567,0.574 1.09,0.496 1.999,1.664 1.646,2.923 -0.383,1.369 -1.974,1.665 -3.198,1.567 -0.791,-0.064 -1.576,-0.302 -2.277,-0.675 -0.165,-0.088 -0.574,-0.333 -0.952,-0.621 -0.089,4.578 -1.186,9.344 -2.089,13.757 -1.037,5.073 -3.047,10.171 -3.966,15.281 3.506,-0.481 7.588,-0.791 11.678,-0.615 1.839,-8.85 4.593,-17.791 7.184,-26.444 0.106,-0.352 0.334,-0.544 0.593,-0.629 -0.775,-0.265 -0.729,-1.316 0.024,-1.58 1.922,-0.673 4.507,0.32 6.198,1.269 1.155,0.648 3.834,2.286 2.658,3.915 -0.887,1.227 -3.363,1.045 -4.63,0.75 -1.213,-0.283 -2.37,-0.897 -3.277,-1.76 -1.736,8.246 -4.065,16.826 -7.381,24.557 6.664,0.471 13.148,2.325 16.893,6.931 0.195,0.241 0.272,0.504 0.269,0.758 0.226,0.125 0.377,0.37 0.279,0.658 -0.57,1.671 -2.06,3.055 -2.977,4.581 -0.845,1.405 -1.54,2.89 -2.352,4.311 -4.124,8.7 -7.825,17.503 -10.744,26.692 -0.02,0.062 -0.037,0.123 -0.056,0.185 2.565,-0.992 5.294,-1.337 7.857,-0.737 0.042,-0.098 0.087,-0.195 0.143,-0.29 1.077,-1.84 3.683,-1.958 5.15,-0.574 0.501,0.473 0.905,1.174 1.09,1.891 3.032,-0.507 6.471,-0.18 9.695,0.875 -1.426,-8.839 -3.18,-17.625 -5.535,-26.392 -0.182,-0.679 0.336,-1.342 1.032,-1.354 4.165,-0.069 8.33,-0.187 12.494,-0.312 -0.042,-13.463 -0.464,-26.616 -2.228,-39.956 -1.988,1.476 -5.312,2.677 -6.25,0.436 -0.554,-1.322 0.302,-2.607 1.481,-3.179 1.492,-0.723 3.362,-0.724 4.922,-0.21 0.482,-0.344 1.22,-0.285 1.347,0.458 2.37,13.854 3.41,28.397 1.981,42.413 4.903,-0.15 9.806,-0.305 14.709,-0.424 -3.095,-13.071 -4.524,-26.942 -5.848,-40.352 -0.716,0.727 -1.593,1.3 -2.586,1.473 -1.365,0.239 -2.798,-0.375 -3.26,-1.744 -0.429,-1.273 0.183,-2.549 1.464,-2.977 1.317,-0.44 2.899,-0.254 4.158,0.373 0.203,-0.881 1.81,-1.028 1.949,0 1.925,14.256 4.348,28.829 5.079,43.204 2.493,-0.058 4.986,-0.108 7.479,-0.135 0.999,-0.011 1.245,1.08 0.778,1.693" />
      </g>
      <g
         transform="translate(109.455,704.8135)"
         id="g2929"
         style="opacity:1;stop-opacity:1">
        <path
           inkscape:connector-curvature="0"
           id="path2931"
           style="fill:#e20613;fill-opacity:1;fill-rule:nonzero;stroke:none"
           d="M 0,0 C 0.299,-0.01 0.57,-0.125 0.82,-0.294 0.748,-0.33 0.676,-0.364 0.604,-0.413 c -0.339,0.15 -0.7,0.264 -1.079,0.346 C -0.338,-0.022 -0.185,0.007 0,0 M 4.898,3.116 C 3.616,4.063 1.489,4.565 0.368,3.097 0.103,2.75 -0.043,2.349 -0.095,1.946 c -0.076,0.01 -0.143,0.036 -0.223,0.04 -1.769,0.1 -2.942,-1.453 -2.909,-3.12 0.069,-3.368 5.427,-5.985 8.3,-4.593 3.48,1.687 2.448,6.906 -0.175,8.843" />
      </g>
      <g
         transform="translate(123.1347,724.4781)"
         id="g2933"
         style="opacity:1;stop-opacity:1">
        <path
           inkscape:connector-curvature="0"
           id="path2935"
           style="fill:#e20613;fill-opacity:1;fill-rule:nonzero;stroke:none"
           d="m 0,0 c -0.568,3.361 -3.455,2.577 -5.17,0.69 -0.009,0.872 -0.239,1.644 -1.458,2.097 -1.629,0.606 -3.399,-0.429 -4.354,-1.709 -2.587,-3.465 -0.749,-9.397 3.903,-9.834 C -3.129,-9.128 0.609,-3.608 0,0" />
      </g>
      <g
         transform="translate(105.895,736.1487)"
         id="g2937"
         style="opacity:1;stop-opacity:1">
        <path
           inkscape:connector-curvature="0"
           id="path2939"
           style="fill:#e20613;fill-opacity:1;fill-rule:nonzero;stroke:none"
           d="M 0,0 C -0.847,0.949 -2.479,1.822 -3.643,0.897 -3.94,0.662 -4.13,0.339 -4.248,-0.017 -4.43,0.095 -4.625,0.194 -4.847,0.256 -6.138,0.622 -7.309,-0.228 -7.775,-1.393 -9.04,-4.564 -5.667,-7.761 -2.539,-7.134 0.691,-6.486 2.26,-2.533 0,0" />
      </g>
      <g
         transform="translate(121.2895,751.3328)"
         id="g2941"
         style="opacity:1;stop-opacity:1">
        <path
           inkscape:connector-curvature="0"
           id="path2943"
           style="fill:#e20613;fill-opacity:1;fill-rule:nonzero;stroke:none"
           d="M 0,0 C -0.974,-0.031 -1.77,-0.562 -2.352,-1.291 -2.538,-0.936 -2.8,-0.61 -3.164,-0.332 -4.369,0.586 -6.03,0.336 -6.778,-1.025 -8.47,-4.105 -7.259,-8.25 -3.552,-8.752 -0.047,-9.226 2.532,-5.85 2.531,-2.585 2.531,-1.097 1.542,0.049 0,0" />
      </g>
    </g>
    <path
       transform="matrix(0.26458333,0,0,0.26458333,21.010707,17.093706)"
       inkscape:connector-curvature="0"
       id="path3692"
       d="m 110.30251,159.20625 c -2.6087,-3.31643 -3.15932,-11.52966 -1.13257,-16.89389 1.69752,-4.49285 6.65168,-9.33381 9.55207,-9.33381 4.22743,0 8.56191,12.43781 6.79201,19.48968 -0.3848,1.53316 -2.00752,4.34189 -3.60604,6.24163 -3.75045,4.45715 -8.33566,4.65327 -11.60547,0.49639 z"
       style="fill:#f5f5f5;stroke-width:1.12251" />
    <path
       transform="matrix(0.26458333,0,0,0.26458333,21.010707,17.093706)"
       inkscape:connector-curvature="0"
       id="path3694"
       d="m 105.16973,252.08674 c -9.853595,-2.45545 -16.880397,-5.58913 -21.737793,-9.6942 l -3.777567,-3.19249 5.598164,-2.47062 c 14.883856,-6.56866 23.099826,-21.56185 26.097656,-47.62518 0.6036,-5.24775 1.1016,-12.41232 1.10667,-15.92127 0.009,-6.1228 0.1336,-6.3942 3.09612,-6.73508 3.06796,-0.35301 3.10146,-0.28281 5.45524,11.43121 1.30258,6.48252 2.24418,11.93925 2.09244,12.12607 -0.15173,0.18682 -1.38496,-1.45486 -2.7405,-3.64817 -2.44499,-3.95607 -4.52655,-5.19001 -4.52655,-2.68332 0,2.22277 5.57187,10.94236 7.73043,12.09758 1.14756,0.61416 3.40924,4.9401 5.14592,9.84265 3.80115,10.73043 11.71203,27.82826 16.40329,35.45253 l 3.49091,5.67345 -2.63448,2.04858 c -7.06775,5.49592 -25.8785,7.01658 -40.79995,3.29826 z"
       style="fill:#f5f5f5;stroke-width:1.12251" />
    <path
       transform="matrix(0.26458333,0,0,0.26458333,21.010707,17.093706)"
       inkscape:connector-curvature="0"
       id="path3696"
       d="m 169.2273,154.38838 c -6.33786,-7.00326 -2.62962,-23.62101 5.48559,-24.58259 9.35444,-1.10841 12.99237,15.66235 5.10782,23.54691 -3.71288,3.71287 -7.80824,4.11327 -10.59341,1.03568 z"
       style="fill:#f5f5f5;stroke-width:1.12251" />
    <path
       transform="matrix(0.26458333,0,0,0.26458333,21.010707,17.093706)"
       inkscape:connector-curvature="0"
       id="path3698"
       d="m 181.22005,232.01617 c -14.30421,-0.20181 -21.60839,-0.70775 -21.60839,-1.49674 0,-0.65554 0.9742,-5.06453 2.1649,-9.79776 1.19069,-4.73324 2.78629,-11.88924 3.54577,-15.90222 1.18641,-6.26885 1.99222,-7.82596 5.72213,-11.05718 5.15543,-4.46615 7.64994,-8.89513 7.64994,-13.58239 0,-4.88359 -2.7377,-4.33945 -4.2935,0.85337 -0.70472,2.35215 -2.63353,5.50922 -4.28623,7.01571 -2.47375,2.25489 -2.87096,2.36788 -2.24714,0.63917 0.41677,-1.15493 1.08177,-8.12567 1.47777,-15.49053 l 0.72001,-13.39065 4.47782,0.3366 4.47782,0.33659 12.07255,35.92045 c 6.6399,19.75625 11.99658,35.92045 11.90375,35.92045 -0.0928,0 -9.89258,-0.13719 -21.7772,-0.30487 z"
       style="fill:#f5f5f5;stroke-width:1.12251" />
    <path
       transform="matrix(0.26458333,0,0,0.26458333,21.010707,17.093706)"
       inkscape:connector-curvature="0"
       id="path3700"
       d="m 146.47689,178.69756 c -0.25536,-0.41318 1.19377,-2.06652 1.81916,-2.07552 0.66773,-0.01 1.1368,1.1109 0.75987,1.81519 -0.36221,0.6768 -2.20658,0.86297 -2.57903,0.26033 z"
       style="fill:#f5f5f5;stroke-width:0.348612" />
    <path
       transform="matrix(0.26458333,0,0,0.26458333,21.010707,17.093706)"
       inkscape:connector-curvature="0"
       id="path3702"
       d="m 144.88355,198.78572 c 0.91235,-0.97115 2.12252,-1.3996 2.12252,-0.75146 0,0.68425 -1.19223,1.59015 -2.09273,1.59015 h -0.8177 z"
       style="fill:#f5f5f5;stroke-width:0.348612" />
    <path
       transform="matrix(0.26458333,0,0,0.26458333,21.010707,17.093706)"
       inkscape:connector-curvature="0"
       id="path3704"
       d="m 139.33661,293.18667 c 0,-0.26013 0.62767,-0.88834 1.39482,-1.39601 1.1037,-0.7304 1.92227,-0.95228 3.92189,-1.06306 l 2.52706,-0.14 -2.37117,1.24631 c -2.72661,1.43314 -5.4726,2.11191 -5.4726,1.35276 z"
       style="fill:#f5f5f5;stroke-width:0.348612" />
    <path
       transform="matrix(0.26458333,0,0,0.26458333,21.010707,17.093706)"
       inkscape:connector-curvature="0"
       id="path3706"
       d="m 166.35404,290.1892 c -1.7476,-0.61477 -2.62102,-1.66873 -1.38286,-1.66873 0.57701,0 3.99745,1.64563 3.99745,1.92324 0,0.28205 -1.50603,0.13545 -2.61459,-0.25451 z"
       style="fill:#f5f5f5;stroke-width:0.348612" />
    <path
       transform="matrix(0.26458333,0,0,0.26458333,21.010707,17.093706)"
       inkscape:connector-curvature="0"
       id="path3708"
       d="m 182.10883,291.41384 c -0.36403,-0.0943 -0.57901,-0.4084 -0.50926,-0.74394 0.16746,-0.80553 1.9395,-0.63257 2.85028,0.27821 l 0.70987,0.70987 -1.21046,-0.0404 c -0.66575,-0.0222 -1.49395,-0.11391 -1.84043,-0.2037 z"
       style="fill:#f5f5f5;stroke-width:0.348612" />
    <path
       transform="matrix(0.26458333,0,0,0.26458333,21.010707,17.093706)"
       inkscape:connector-curvature="0"
       id="path3710"
       d=""
       style="fill:#f5f5f5;stroke-width:0.348612" />
    <path
       transform="matrix(0.26458333,0,0,0.26458333,21.010707,17.093706)"
       inkscape:connector-curvature="0"
       id="path3712"
       d="m 119.98864,298.35629 c 0.19174,-0.19359 0.97379,-0.68178 1.7379,-1.08486 2.29095,-1.20853 5.54183,-0.80716 3.58954,0.44318 -0.93317,0.59765 -5.87315,1.19266 -5.32744,0.64168 z"
       style="fill:#f5f5f5;stroke-width:0.348612" />
  </g>
  <g
     sodipodi:insensitive="true"
     style="display:none"
     inkscape:label="Layer 2"
     id="layer4"
     inkscape:groupmode="layer">
    <g
       transform="matrix(1.0959659,0,0,1.0959659,-4.8528867,-8.1274033)"
       id="g3851">
      <g
         id="g3747"
         transform="matrix(0.35277777,0,0,-0.35277777,-201.42326,290.39455)">
        <g
           style="opacity:1;stop-opacity:1"
           id="g2861"
           transform="translate(691.9683,690.4976)">
          <path
             d="m 0,0 c -8.341,4.664 2.98,21.674 11.303,20.548 0.035,-0.04 0.062,-0.082 0.108,-0.117 C 19.005,14.665 10.063,-5.627 0,0 m 12.187,-36.128 c 2.834,-5.012 6.431,-9.647 10.702,-13.519 3.163,-2.868 7.647,-6.408 12.17,-5.985 -16.535,-15.46 -40.453,-12.132 -58.335,-0.728 5.713,7.775 9.817,16.473 13.106,25.525 1.405,3.868 2.767,7.802 4.037,11.773 2.871,0.247 5.607,1.033 7.777,2.779 0.505,0.406 -0.04,1.277 -0.628,1.079 -2.277,-0.769 -4.311,-1.538 -6.555,-1.97 0.88,2.833 1.699,5.683 2.448,8.543 0.439,-0.281 0.876,-0.562 1.309,-0.877 0.752,-0.547 1.717,0.694 1,1.296 -0.594,0.498 -1.214,0.957 -1.853,1.38 0.456,1.82 0.89,3.642 1.274,5.466 2.157,-1.37 4.485,-1.611 6.687,-1.098 C 5.314,-2.498 5.293,-2.523 5.285,-2.562 3.086,-13.643 6.74,-26.496 12.187,-36.128 M -0.571,-86.702 c -0.23,0.05 -0.476,0.07 -0.7,0.093 -0.238,0.024 -0.475,0.018 -0.711,0.01 -0.073,0.065 -0.135,0.136 -0.22,0.193 -1.341,0.883 -3.409,-0.215 -4.592,-0.941 -0.613,-0.376 -1.167,-0.83 -1.602,-1.361 -2.183,8.967 -4.893,18.51 -9.092,26.755 6.235,-3.015 12.984,-5.087 19.755,-5.859 -1.704,-6.083 -2.492,-12.541 -2.838,-18.89 m -0.159,-3.65 c -0.341,-0.317 -0.829,-0.468 -1.291,-0.463 -0.278,0.003 -0.551,0.123 -0.822,0.196 0.254,0.155 0.499,0.325 0.713,0.539 0.634,0.632 0.944,1.626 0.745,2.479 0.027,-0.005 0.053,-0.003 0.08,-0.009 0.249,-0.051 0.462,-0.135 0.675,-0.177 -0.04,-0.858 -0.074,-1.714 -0.1,-2.565 m -22.72,50.358 c 4.21,2.466 7.956,5.389 10.627,9.64 0.549,0.875 -0.473,1.647 -1.233,1.314 -0.057,0.151 -0.143,0.296 -0.298,0.413 -4.199,3.172 -8.277,6.325 -12.1,9.845 1.662,0.001 3.304,0.16 4.893,0.498 0.279,-1.429 1.847,-2.329 3.321,-2.021 0.989,0.206 1.826,0.998 2.156,1.934 2.275,-0.396 4.825,-0.746 7.373,-0.778 -3.244,-10.024 -6.508,-19.966 -11.772,-29.154 -0.007,0.032 0,0.059 -0.011,0.093 -0.855,2.759 -1.9,5.515 -2.956,8.216 m -4.744,-0.159 c -5.314,-2.744 -10.725,-5.226 -16.553,-6.575 0.254,15.072 -1.493,30.763 -7.021,44.855 0.023,-0.002 0.046,-0.008 0.07,-0.009 3.43,-0.246 6.039,1.084 7.574,3.311 2.897,-6.347 7.101,-12.411 12.071,-17.785 -2.847,0.367 -5.681,0.938 -8.61,1.904 -0.514,0.169 -0.876,-0.653 -0.374,-0.887 3.367,-1.572 7.226,-2.768 11.118,-3.233 4.499,-4.497 9.518,-8.429 14.708,-11.522 0.053,-0.031 0.101,-0.036 0.152,-0.056 -3.405,-4.496 -8.164,-7.435 -13.135,-10.003 M -60.162,6.919 c -0.689,2.013 -0.699,4.214 -0.122,6.256 0.48,1.702 2.85,6.989 5.614,5.474 0.345,-0.19 0.63,0.036 0.681,0.321 9.283,0.208 14.613,-19.543 2.79,-19.085 -4.056,0.157 -7.676,3.27 -8.963,7.034 m 41.253,-25.653 c -1.312,-0.022 -1.464,1.158 -0.961,1.997 0.174,-0.201 0.46,-0.297 0.722,-0.122 0.514,0.344 1.339,0.417 1.607,-0.295 0.302,-0.803 -0.656,-1.567 -1.368,-1.58 m -16.076,15.017 c 1.593,0.183 3.184,0.293 4.788,0.313 2.828,0.033 5.576,-0.323 8.377,-0.588 -0.03,-0.225 -0.04,-0.453 -0.005,-0.679 0.252,-1.629 2.05,-2.184 3.385,-1.413 0.578,0.334 0.961,0.852 1.135,1.42 0.098,-0.194 0.28,-0.34 0.536,-0.331 4.364,0.163 8.258,-0.676 11.911,-2.604 -1.159,-3.289 -2.248,-6.593 -3.317,-9.895 -2.58,-0.151 -5.174,-0.047 -7.759,-0.012 -0.003,0.401 -0.106,0.805 -0.339,1.181 -0.516,0.832 -1.681,1.276 -2.624,1.037 -1.187,0.209 -2.233,-0.662 -2.584,-1.757 -2.458,0.071 -4.82,0.153 -7.145,0.332 -0.695,0.687 -1.382,1.388 -2.056,2.11 -3.007,3.219 -5.759,6.674 -8.415,10.2 0.082,0.062 0.115,0.195 -0.002,0.247 0.912,-0.404 3.075,0.32 4.114,0.439 M -20.094,-4.1 c 0.075,0.299 0.15,0.699 0.484,0.819 0.304,0.11 0.62,-0.126 0.747,-0.394 0.243,-0.512 -0.249,-0.995 -0.716,-1.13 -0.455,-0.132 -0.723,0.058 -0.838,0.367 0.147,0.057 0.278,0.156 0.323,0.338 m 35.469,-86.728 c -1.413,-0.235 -3.281,-0.564 -4.249,0.4 -1.045,1.04 0.826,1.869 1.724,1.672 0.951,-0.208 1.619,-0.948 2.543,-1.184 0.014,-0.004 0.028,-0.002 0.042,-0.004 -0.021,-0.294 -0.039,-0.59 -0.06,-0.884 m -31.242,0.166 c 0.712,-0.063 1.551,-0.091 0.615,-0.837 -0.329,-0.262 -0.734,-0.473 -1.113,-0.648 -1.045,-0.482 -2.162,-0.646 -3.295,-0.615 0.823,1.307 2.124,2.248 3.793,2.1 m 54.222,99.61 c 0.452,0.569 -0.134,1.598 -0.852,1.105 -9.107,-6.264 -14.244,5.264 -19.845,10.296 -1.58,1.421 -4.192,3.3 -5.878,1.408 -1.026,0.558 -2.166,0.718 -3.356,0.552 4.832,3.098 10.646,2.121 14.24,-3.145 1.673,-2.452 2.823,-5.357 5.347,-7.117 2.614,-1.824 6.635,-2.174 8.257,1.015 0.229,0.451 -0.263,1.073 -0.746,0.746 C 27.803,8.579 24.309,23.223 17.925,25.595 12.917,27.455 7.756,25.424 4.991,21.047 -2.046,16.995 -8.646,4.723 -2.278,-0.692 c -0.691,-1.717 -1.336,-3.446 -1.964,-5.179 -3.854,2.072 -8.301,2.862 -12.695,2.115 -0.118,-0.02 -0.204,-0.076 -0.274,-0.143 -0.024,0.641 -0.305,1.272 -0.917,1.72 -0.692,0.506 -1.61,0.575 -2.333,0.096 -0.077,-0.05 -0.149,-0.109 -0.219,-0.171 -0.198,-0.105 -0.372,-0.244 -0.525,-0.408 -5.957,1.499 -12.748,1.095 -18.607,-0.783 -1.34,1.795 -2.661,3.602 -3.98,5.404 1.025,1.771 1.442,4.012 1.117,6.46 -0.67,5.038 -6.246,14.384 -12.492,11.827 -0.082,-0.033 -0.143,-0.079 -0.203,-0.126 -1.457,0.504 -2.767,-0.183 -3.858,-1.422 -0.078,0.165 -0.177,0.302 -0.27,0.447 -0.146,-0.283 -0.305,-0.558 -0.485,-0.819 -0.149,-0.217 -0.313,-0.421 -0.471,-0.63 0.1,-0.084 0.202,-0.164 0.297,-0.263 -1.504,-2.403 -2.398,-5.711 -2.377,-7.398 0.067,-5.411 4.102,-10.561 9.4,-11.7 0.003,-0.028 -0.003,-0.051 0.005,-0.081 3.799,-15.356 6.634,-30.418 6.234,-46.317 -0.019,-0.734 0.691,-1.155 1.346,-1.026 4.128,0.813 8.075,2.22 11.905,3.914 2.204,-16.371 6.472,-32.884 11.611,-48.551 0.229,-0.699 0.993,-0.771 1.444,-0.443 0.117,-0.092 0.254,-0.165 0.435,-0.18 2.016,-0.172 4.019,0.352 5.662,1.551 1.094,0.798 1.918,2.3 0.369,3.12 -2.194,1.161 -5.358,-0.063 -6.515,-2.236 -4.238,15.691 -7.9,31.482 -11.92,47.225 2.266,1.041 4.495,2.171 6.694,3.341 0.473,0.252 0.936,0.511 1.399,0.771 0.536,-2.74 1.273,-5.529 2.296,-8.095 0.208,-0.522 0.735,-0.668 1.152,-0.542 -1.394,-2.359 -2.92,-4.667 -4.623,-6.91 -0.35,-0.461 -0.05,-1.136 0.371,-1.414 2.047,-1.351 4.191,-2.594 6.403,-3.726 2.276,-9.821 5.99,-19.582 9.003,-29.205 0.102,-0.324 0.316,-0.504 0.56,-0.588 0,-0.019 -0.004,-0.036 -0.004,-0.055 -0.003,-0.393 0.534,-0.434 0.657,-0.089 0.026,0.073 0.066,0.133 0.095,0.203 0.304,0.153 0.514,0.456 0.477,0.868 0.418,0.599 0.956,1.098 1.608,1.497 0.715,0.439 2.254,1.336 3.136,1.147 1.26,-0.269 0.253,-1.534 -0.291,-1.868 -0.505,-0.311 -1.095,-0.479 -1.649,-0.678 -1.086,-0.389 -2.191,-0.74 -3.245,-1.21 -0.8,-0.357 -0.229,-1.643 0.591,-1.402 1.186,0.349 2.349,0.838 3.5,1.29 0.198,0.078 0.398,0.156 0.596,0.238 0,-0.001 0,-0.002 0,-0.003 0.003,-0.965 1.333,-1.133 2.057,-0.988 0.53,0.106 0.942,0.382 1.258,0.759 0.406,-0.344 1.216,-0.143 1.285,0.562 0.751,7.622 1.921,15.237 2.561,22.865 4.605,-0.431 9.208,-0.252 13.657,0.653 -0.635,-7.039 -0.971,-14.143 -1.452,-21.204 -0.987,0.904 -2.584,1.492 -3.81,1.256 -1.257,-0.242 -2.496,-1.323 -2.449,-2.689 0.1,-2.952 4.232,-2.991 6.335,-1.77 0.406,-0.328 1.168,-0.264 1.28,0.357 1.409,7.824 1.921,16.293 0.831,24.221 7.141,1.59 13.861,5.069 19.508,10.948 0.747,0.777 -0.221,1.891 -1.045,1.498 -5.39,2.183 -9.696,4.11 -13.907,8.414 -3.755,3.837 -6.897,8.237 -9.362,13.004 -5.096,9.851 -5.903,19.613 -6.086,30.462 -0.004,0.291 -0.17,0.506 -0.386,0.635 2.622,0.935 4.964,2.918 6.494,5.326 1.227,-2.345 1.044,-12.875 1.517,-14.169 1.08,-2.954 3.597,-5.109 6.79,-4.573 1.177,0.197 0.717,1.773 -0.257,1.899 -7.248,0.938 -3.755,10.322 -5.284,15.034 -0.345,1.065 -1.029,2.543 -2.035,3.106 0.61,1.223 1.16,2.679 1.563,4.24 4.822,-4.693 1.72,-11.835 5.783,-16.772 2.08,-2.526 6.885,-3.511 8.533,-0.027 0.398,0.841 -0.554,1.579 -1.27,0.98 -3.124,-2.613 -6.061,0.224 -6.912,3.399 -0.545,2.036 -0.473,4.187 -0.801,6.26 -0.505,3.191 -1.831,5.719 -4.632,7.401 -0.135,0.081 -0.271,0.096 -0.401,0.081 0.213,1.09 0.355,2.202 0.38,3.294 2.96,-0.46 5.792,-7.956 7.195,-9.941 1.293,-1.829 2.846,-3.555 4.818,-4.666 3.27,-1.841 7.919,-1.936 9.483,2.013 0.385,0.974 -1.032,1.358 -1.559,0.657 -3.52,-4.689 -8.882,0.134 -10.959,3.038 -1.476,2.064 -2.546,4.394 -3.969,6.495 -1.215,1.794 -2.807,4.172 -5.049,3.958 -0.205,2.477 -1.076,4.712 -2.995,6.101 4.449,0.899 16.286,-23.619 25.479,-12.05"
             style="fill:#3c3c3b;fill-opacity:1;fill-rule:nonzero;stroke:none"
             id="path2863"
             inkscape:connector-curvature="0" />
        </g>
        <g
           style="opacity:1;stop-opacity:1"
           id="g2865"
           transform="translate(646.0418,724.6239)">
          <path
             d="m 0,0 c -1.327,2.735 -4.325,1.985 -5.827,0.061 -0.399,0.55 -0.97,0.957 -1.734,1.039 -1.484,0.161 -2.461,-1.266 -2.733,-2.567 -0.691,-3.309 2.403,-6.283 5.638,-5.786 C -1.558,-6.778 1.545,-3.186 0,0"
             style="fill:#e20613;fill-opacity:1;fill-rule:nonzero;stroke:none"
             id="path2867"
             inkscape:connector-curvature="0" />
        </g>
        <g
           style="opacity:1;stop-opacity:1"
           id="g2869"
           transform="translate(634.9031,739.3171)">
          <path
             d="m 0,0 c -2.54,2.779 -7.62,1.538 -8.429,-2.017 -2.166,0.815 -4.814,-0.272 -5.217,-3.198 -0.727,-5.278 6.975,-6.551 10.56,-5.053 C 0.894,-8.606 3.243,-3.549 0,0"
             style="fill:#e20613;fill-opacity:1;fill-rule:nonzero;stroke:none"
             id="path2871"
             inkscape:connector-curvature="0" />
        </g>
        <g
           style="opacity:1;stop-opacity:1"
           id="g2873"
           transform="translate(646.2748,747.5713)">
          <path
             d="M 0,0 C -0.192,0.306 -0.461,0.56 -0.791,0.733 -2.052,1.391 -3.571,0.842 -4.421,-0.204 -6.25,-2.453 -5.076,-6.098 -2.38,-6.996 0.675,-8.013 4.93,-5.62 4.669,-2.123 4.477,0.457 1.644,1.156 0,0"
             style="fill:#e20613;fill-opacity:1;fill-rule:nonzero;stroke:none"
             id="path2875"
             inkscape:connector-curvature="0" />
        </g>
        <g
           style="opacity:1;stop-opacity:1"
           id="g2877"
           transform="translate(704.1458,723.5072)">
          <path
             d="m 0,0 c -0.947,2.124 -3.984,2.56 -5.389,1.263 -0.322,0.268 -0.708,0.476 -1.157,0.581 -1.694,0.397 -3.484,-0.809 -4.31,-2.228 -2.164,-3.721 2.67,-6.785 5.927,-6.499 C -1.619,-6.593 1.544,-3.462 0,0"
             style="fill:#e20613;fill-opacity:1;fill-rule:nonzero;stroke:none"
             id="path2879"
             inkscape:connector-curvature="0" />
        </g>
        <g
           style="opacity:1;stop-opacity:1"
           id="g2881"
           transform="translate(721.4662,730.9416)">
          <path
             d="M 0,0 C -0.157,1.718 -1.456,3.443 -3.248,3.644 -4.125,3.743 -4.991,3.468 -5.633,2.945 -5.805,3.695 -6.187,4.388 -6.88,4.947 -8.452,6.212 -10.506,5.573 -11.813,4.257 -15.143,0.906 -14.395,-5.256 -9.785,-6.952 -5.467,-8.54 0.448,-4.891 0,0"
             style="fill:#e20613;fill-opacity:1;fill-rule:nonzero;stroke:none"
             id="path2883"
             inkscape:connector-curvature="0" />
        </g>
        <g
           style="opacity:1;stop-opacity:1"
           id="g2885"
           transform="translate(711.4783,749.852)">
          <path
             d="M 0,0 C -0.932,1.62 -2.802,2.974 -4.748,2.686 -5.81,2.528 -6.683,1.802 -7.019,0.9 c -1.548,0.944 -3.766,0.84 -5.104,-1.043 -2.966,-4.174 3.155,-8.473 6.855,-8.573 C -0.774,-8.838 2.255,-3.922 0,0"
             style="fill:#e20613;fill-opacity:1;fill-rule:nonzero;stroke:none"
             id="path2887"
             inkscape:connector-curvature="0" />
        </g>
      </g>
      <path
         style="fill:#f5f5f5;stroke-width:0.68916"
         d="m 161.79665,176.36006 c -3.15276,-2.12464 -4.20956,-4.33801 -3.77213,-7.90039 0.8241,-6.71135 7.49476,-15.3691 13.65398,-17.72133 3.81951,-1.45868 4.87542,-1.1687 6.7118,1.84326 4.02532,6.60219 -0.89998,20.61215 -8.51709,24.2267 -3.21993,1.52796 -5.31677,1.41159 -8.07656,-0.44824 z"
         id="path3806"
         inkscape:connector-curvature="0"
         transform="scale(0.26458333)" />
      <path
         style="fill:#f5f5f5;stroke-width:0.68916"
         d="m 162.89072,264.04874 c -9.20964,-1.43224 -22.31056,-6.16335 -29.75217,-10.74432 l -2.18578,-1.34555 3.12319,-4.79554 c 4.93589,-7.57887 10.93472,-20.36674 15.33293,-32.6856 2.85241,-7.98927 4.42813,-11.48855 5.32131,-11.81735 0.69791,-0.25692 2.50941,-0.81312 4.02557,-1.236 3.48861,-0.97303 5.45233,-2.46338 4.95465,-3.76032 -0.33225,-0.86582 -0.99193,-0.82001 -4.66815,0.32416 -2.35467,0.73286 -4.32981,1.24923 -4.38919,1.14749 -0.0594,-0.10174 0.54038,-2.41521 1.33281,-5.14104 1.1127,-3.82751 1.65634,-4.82283 2.38742,-4.37101 1.21341,0.74994 2.79451,0.15031 2.79451,-1.05981 0,-0.51467 -0.62024,-1.26771 -1.37831,-1.67342 -1.57484,-0.84282 -1.64876,-1.41059 -0.65127,-5.00242 0.6245,-2.24873 0.8907,-2.49869 2.01833,-1.89519 0.71443,0.38235 2.48231,0.69483 3.92862,0.6944 l 2.62965,-7.7e-4 -0.23222,7.13966 c -0.39239,12.06391 2.52992,23.59604 9.11728,35.979 7.00984,13.17713 18.72833,24.87019 27.21426,27.15521 l 2.93284,0.78973 -2.97625,2.40139 c -4.02046,3.24392 -13.00968,7.56148 -18.48234,8.87715 -5.61439,1.34975 -16.95645,1.86635 -22.39769,1.02015 z"
         id="path3808"
         inkscape:connector-curvature="0"
         transform="scale(0.26458333)" />
      <path
         style="fill:#f5f5f5;stroke-width:0.68916"
         d="m 88.052999,174.94892 c -6.440605,-3.4015 -8.973387,-11.63716 -5.586034,-18.16368 1.941407,-3.74057 3.566543,-4.81375 7.022353,-4.63731 5.396907,0.27555 10.21781,5.35593 11.802702,12.43796 2.11397,9.44625 -4.770791,14.8354 -13.239021,10.36303 z"
         id="path3810"
         inkscape:connector-curvature="0"
         transform="scale(0.26458333)" />
      <path
         style="fill:#f5f5f5;stroke-width:0.68916"
         d="m 101.90009,231.46093 c 0,-14.42128 -2.735707,-32.56297 -6.830542,-45.29637 l -1.984934,-6.1724 2.748794,-0.43955 c 1.511836,-0.24175 3.628608,-1.17986 4.703942,-2.08469 l 1.95514,-1.64515 2.46555,4.69195 c 1.35605,2.58057 4.6131,7.55177 7.23789,11.04711 2.62479,3.49534 4.39332,6.35516 3.93006,6.35516 -0.46326,0 -2.62824,-0.46518 -4.81108,-1.03374 -4.89085,-1.27391 -5.27986,-1.27805 -5.27986,-0.0562 0,1.00815 5.70525,3.16766 11.99795,4.54138 2.61064,0.56992 4.32396,1.60937 7.50113,4.55087 2.26472,2.09673 6.57936,5.53719 9.58807,7.64545 l 5.4704,3.83321 -2.63413,2.71214 c -3.65949,3.76787 -9.6628,7.67059 -17.98783,11.6938 -6.28214,3.03594 -15.93964,6.7735 -17.5021,6.7735 -0.31265,0 -0.56845,-3.20241 -0.56845,-7.11648 z"
         id="path3812"
         inkscape:connector-curvature="0"
         transform="scale(0.26458333)" />
      <path
         style="fill:#f5f5f5;stroke-width:0.272991"
         d="m 134.52794,183.08856 c -0.21558,-0.34881 0.51046,-1.54245 0.93819,-1.54245 0.66314,0 0.49354,1.26834 -0.20411,1.52642 -0.33305,0.1232 -0.66339,0.13041 -0.73408,0.016 z"
         id="path3814"
         inkscape:connector-curvature="0"
         transform="scale(0.26458333)" />
      <path
         style="fill:#f5f5f5;stroke-width:0.272991"
         d="m 134.92456,201.2165 c -0.43346,-0.52228 -0.25741,-1.64911 0.26052,-1.66754 0.22522,-0.008 0.74891,-0.11386 1.16376,-0.23523 0.81344,-0.23797 1.56615,0.16056 1.56615,0.82921 0,1.13994 -2.26153,1.95183 -2.99043,1.07356 z"
         id="path3816"
         inkscape:connector-curvature="0"
         transform="scale(0.26458333)" />
      <path
         style="fill:#f5f5f5;stroke-width:0.272991"
         d="m 136.14055,299.61678 c 1.03548,-1.12302 2.23739,-1.63994 3.81311,-1.63994 1.41852,0 1.55766,0.29128 0.4865,1.01844 -1.15971,0.78728 -2.10206,1.12754 -3.67439,1.32674 l -1.44419,0.18296 z"
         id="path3818"
         inkscape:connector-curvature="0"
         transform="scale(0.26458333)" />
      <path
         style="fill:#f5f5f5;stroke-width:0.272991"
         d="m 150.66637,297.43128 c 0.35918,-1.3735 4.85721,-4.05261 6.22688,-3.70885 0.84073,0.21101 0.8611,0.74149 0.0629,1.63772 -0.51231,0.57522 -5.36308,2.61669 -6.21755,2.61669 -0.11818,0 -0.15067,-0.2455 -0.0722,-0.54556 z"
         id="path3820"
         inkscape:connector-curvature="0"
         transform="scale(0.26458333)" />
      <path
         style="fill:#f5f5f5;stroke-width:0.272991"
         d="m 158.7747,296.86375 c 0.38879,-0.46205 0.78395,-1.32198 0.87813,-1.91094 0.26561,-1.66103 0.64744,-1.2633 0.64744,0.6744 0,1.86533 -0.15753,2.07664 -1.54805,2.07664 h -0.68442 z"
         id="path3822"
         inkscape:connector-curvature="0"
         transform="scale(0.26458333)" />
      <path
         style="fill:#f5f5f5;stroke-width:0.272991"
         d="m 177.57304,298.03176 c -0.84606,-0.26629 -1.76932,-1.10753 -1.64755,-1.5012 0.0558,-0.18049 0.55498,-0.55302 1.10922,-0.82784 l 1.00772,-0.49968 1.91207,0.88133 c 1.73293,0.79876 2.28429,1.35721 1.69784,1.71966 -0.40196,0.24843 -3.46946,0.41967 -4.0793,0.22773 z"
         id="path3824"
         inkscape:connector-curvature="0"
         transform="scale(0.26458333)" />
    </g>
  </g>
  <g
     style="display:inline"
     inkscape:label="Layer 3"
     id="layer5"
     inkscape:groupmode="layer">
    <g
       transform="matrix(1.2535415,0,0,1.2535415,-14.016042,-15.461318)"
       id="g3978">
      <g
         id="g3881"
         transform="matrix(0.35277777,0,0,-0.35277777,-201.26338,105.47518)">
        <g
           style="opacity:1;stop-opacity:1"
           id="g2709"
           transform="translate(716.6031,122.5329)">
          <path
             d="m 0,0 c -8.842,-3.161 -17.991,-2.071 -26.705,0.772 0.169,0.069 0.327,0.182 0.442,0.393 2.961,5.443 5.508,11.128 7.683,16.944 0.594,-0.476 1.448,-0.637 2.172,-0.406 0.395,-1.08 1.43,-1.962 2.604,-1.9 1.284,0.068 2.262,1.39 2.592,2.661 0.073,0.053 0.145,0.108 0.205,0.19 4.291,5.816 5.969,14.573 2.86,21.282 -0.164,0.354 -0.812,0.193 -0.76,-0.206 0.921,-7.074 0.582,-12.766 -2.772,-18.932 -0.549,0.678 -1.37,1.107 -2.009,0.593 -0.004,0.007 -0.01,0.015 -0.014,0.023 0.16,0.142 0.318,0.265 0.466,0.362 0.217,0.142 0.03,0.452 -0.201,0.344 -0.177,-0.083 -0.354,-0.168 -0.529,-0.255 -0.615,0.899 -1.666,1.666 -2.724,1.61 0.296,0.897 0.591,1.795 0.87,2.697 2.466,7.977 4.782,16.575 5.096,25.001 0.317,-0.069 0.646,-0.12 0.989,-0.153 1.334,-0.126 2.582,0.103 3.715,0.593 C -5.868,37.361 0.988,13.574 18.112,14.372 13.522,7.913 7.593,2.715 0,0 m 0.956,-21.413 c 0.376,-4.31 0.832,-8.721 2.755,-12.618 -1.378,0.385 -2.932,0.419 -3.895,-0.783 -0.554,-0.691 -0.779,-1.686 -0.528,-2.527 -3.013,0.062 -6.028,0.111 -9.044,0.138 0.284,0.205 0.551,0.424 0.776,0.661 0.365,0.383 0.007,1.137 -0.548,0.94 -0.877,-0.31 -1.648,-0.893 -2.559,-1.113 -0.795,-0.191 -2.884,0.307 -2.21,1.628 0.431,0.845 2.09,0.895 2.844,0.774 0.833,-0.134 1.701,-0.503 2.383,-0.992 0.135,-0.096 0.291,0 0.349,0.133 0.329,0.061 0.612,0.298 0.599,0.736 -0.304,10.189 -0.533,20.465 -1.533,30.616 3.199,0.227 6.371,0.895 9.424,1.936 -0.038,-6.494 0.625,-13.065 1.187,-19.529 m 3.463,-13.939 c 0.05,-0.083 0.116,-0.141 0.188,-0.186 0.046,-0.213 0.109,-0.421 0.083,-0.644 -0.051,-0.445 -0.392,-0.816 -0.777,-1.006 -0.194,-0.096 -0.521,-0.18 -0.888,-0.237 -0.559,0.015 -1.119,0.024 -1.678,0.038 -0.201,0.059 -0.376,0.138 -0.483,0.259 -0.401,0.454 -0.038,1.295 0.35,1.624 0.841,0.713 2.124,0.527 3.123,0.305 0.029,-0.05 0.051,-0.103 0.082,-0.153 M -14.33,20.755 c 0.088,-0.063 0.185,-0.085 0.28,-0.08 0.035,-0.152 0.125,-0.293 0.257,-0.374 0.274,-0.169 0.697,-0.172 0.918,-0.406 0.369,-0.391 0.154,-1.057 -0.032,-1.463 -0.351,-0.763 -0.957,-1.452 -1.756,-0.735 -0.935,0.838 -0.432,2.11 0.333,3.058 m -2.17,-1.516 c -0.473,-0.236 -0.988,-0.361 -1.424,0.034 -0.064,0.058 -0.099,0.132 -0.146,0.201 0.322,0.888 0.629,1.78 0.933,2.673 0.814,-0.197 1.604,-0.291 2.236,-0.805 -0.772,-0.499 -1.396,-1.137 -1.599,-2.103 m -2.214,13.795 c 0.901,3.024 2.357,5.453 4.502,7.658 -0.902,-4.438 -1.866,-8.862 -3.209,-13.234 -0.515,-1.672 -1.072,-3.326 -1.65,-4.97 -1.818,3.043 -0.569,7.44 0.357,10.546 m 3.854,31.318 c 0.762,4.039 2.369,7.527 6.383,8.866 0.159,-0.069 0.326,-0.027 0.459,0.079 3.091,-1.707 5.568,-4.243 6.443,-7.789 1.231,-4.986 -1.225,-12.499 -7.327,-12.493 -6.145,0.005 -6.826,6.729 -5.958,11.337 m 12.303,8.784 c 0.419,-0.464 0.677,-1.091 0.841,-1.683 0.2,-0.724 0.242,-1.437 0.195,-2.148 -0.88,1.43 -2.028,2.699 -3.41,3.729 0.319,0.915 1.767,0.774 2.374,0.102 M -29.5,-36.004 c -0.017,0.018 -0.037,0.033 -0.058,0.047 0.241,0.477 2.238,1.204 2.389,1.253 0.345,0.113 0.758,0.308 1.124,0.322 0.634,0.025 1.275,-0.348 0.483,-0.927 -1.185,-0.865 -2.584,-0.687 -3.938,-0.695 m -14.25,-1.008 c -0.667,0.01 -1.336,0.012 -2.003,0.02 0.01,0.088 0.011,0.18 -0.004,0.278 -0.692,4.61 -1.858,9.105 -3.501,13.463 3.795,-0.13 7.582,-0.069 11.18,0.201 3.442,0.259 2.652,2 1.598,4.041 -0.052,0.317 -0.109,0.633 -0.163,0.95 1.635,1.163 3.32,1.96 5.229,2.469 0.248,-6.9 0.288,-13.77 0.19,-20.677 -0.003,-0.254 0.089,-0.444 0.232,-0.57 0.025,-0.105 0.077,-0.198 0.141,-0.281 -4.306,0.016 -8.608,0.041 -12.899,0.106 m -18.18,16.048 c 10e-4,0.004 0.004,0.006 0.004,0.009 1.551,7.398 2.893,14.845 4.317,22.268 1.274,6.636 3.11,13.487 3.476,20.253 1.124,-0.672 2.536,-1.024 4.275,-0.902 1.07,0.075 2.042,0.289 2.918,0.611 0.439,-4.453 1.296,-8.865 2.235,-13.247 -1.287,0.231 -2.527,0.684 -3.759,1.298 -0.424,0.211 -0.959,-0.363 -0.541,-0.701 1.177,-0.953 2.825,-1.638 4.599,-1.977 0.214,-0.981 0.429,-1.962 0.643,-2.94 1.422,-6.485 2.702,-13.165 4.802,-19.468 -0.052,-0.086 -0.093,-0.181 -0.098,-0.294 -0.068,-1.384 0.837,-2.637 0.846,-3.75 0.015,-1.805 -0.958,-1.26 -2.59,-1.499 -1.446,-0.211 -3.09,0.049 -4.542,0.085 -5.514,0.135 -11.07,0.492 -16.585,0.254 m 6.447,50.428 c 0.303,4.233 2.105,7.556 6.157,8.848 0.093,-0.102 0.209,-0.19 0.378,-0.234 7.851,-2.084 8.439,-13.277 0.229,-15.325 -1.752,-0.437 -4.578,-0.321 -5.794,1.308 -1.013,1.358 -1.086,3.78 -0.97,5.403 M -39.14,16.532 c 1.589,-0.091 3.123,-0.53 4.693,-0.663 -0.05,-0.494 0.03,-1 0.282,-1.46 0.021,-0.038 0.048,-0.065 0.075,-0.091 -1.232,-0.412 -2.266,-1.568 -1.72,-2.889 0.073,-0.177 0.198,-0.293 0.339,-0.356 0.036,-0.143 0.088,-0.282 0.15,-0.418 -0.021,-0.007 -0.041,-0.009 -0.061,-0.019 -2.17,-1.034 -3.79,-2.423 -6.305,-2.713 -0.321,-0.037 -0.637,-0.057 -0.95,-0.064 -0.566,2.763 -1.137,5.529 -1.775,8.275 1.748,0.319 3.486,0.501 5.272,0.398 m 6.209,-3.609 c 0.834,-0.282 0.899,-1.171 0.306,-1.737 -0.94,-0.895 -1.746,0.134 -1.695,1.097 0.278,0.507 0.68,0.88 1.389,0.64 m 1.985,3.654 c 0.547,-0.445 0.692,-1.153 0.318,-1.759 -0.291,-0.473 -0.759,-0.562 -1.17,-0.758 -0.19,0.125 -0.4,0.231 -0.635,0.309 -0.319,0.106 -0.671,0.13 -1.026,0.089 0.037,0.076 0.053,0.164 0.03,0.262 -0.345,1.457 1.141,2.95 2.483,1.857 m -31.343,-53.509 c 0.383,0.436 0.683,0.959 0.875,1.453 0.434,1.115 0.549,2.319 0.331,3.469 4.169,-1.72 8.452,-3.186 12.612,-4.955 -4.598,0.039 -9.207,0.038 -13.818,0.033 m -0.174,3.119 c -0.076,-0.525 -1.138,-3.723 -2.135,-2.206 -0.403,0.613 0.07,2.055 0.254,2.657 0.244,0.795 0.633,1.56 1.084,2.269 0.199,-0.089 0.403,-0.167 0.603,-0.254 0.202,-0.81 0.317,-1.622 0.194,-2.466 M 20.938,16.383 C 11.655,15.694 4.574,21.19 0.712,29.351 c -3.424,7.237 -3.867,15.19 -5.597,22.874 0.584,0.368 1.114,0.824 1.613,1.316 -0.154,-5.586 5.531,-10.418 11.1,-7.743 0.783,0.377 0.205,1.489 -0.562,1.334 -2.412,-0.488 -4.794,-0.418 -6.79,1.201 -1.943,1.576 -2.808,4.016 -2.633,6.47 0,0.003 -10e-4,0.004 -10e-4,0.006 0.359,0.48 0.697,0.976 0.986,1.503 0.896,-4.435 6.524,-7.95 10.562,-4.963 0.617,0.457 0.25,1.346 -0.515,1.221 -2.186,-0.357 -4.17,-0.694 -6.153,0.595 -1.747,1.135 -2.542,2.934 -2.964,4.895 -0.015,0.071 -0.042,0.128 -0.074,0.178 0.166,0.472 0.315,0.947 0.422,1.425 0.462,-0.925 1.156,-1.745 2.079,-2.378 2.031,-1.394 5.451,-1.754 7.282,0.145 0.398,0.413 -0.008,1.033 -0.539,0.925 -2.018,-0.411 -3.814,-0.998 -5.735,0.153 -1.688,1.011 -2.614,3.027 -2.812,4.926 -0.001,0.007 -0.005,0.012 -0.006,0.019 -0.106,1.375 -0.42,2.701 -0.926,3.941 0.932,2.383 0.597,5.819 -1.578,7.337 -1.331,0.93 -3.412,0.283 -3.731,-1.062 -0.619,0.388 -1.275,0.733 -1.966,1.028 0.323,1.142 2.23,2.522 2.942,2.739 1.637,0.5 3.034,0.004 4.251,-0.984 1.865,-1.515 2.487,-3.947 2.555,-6.271 0.072,-2.454 -0.653,-5.086 0.567,-7.374 1.425,-2.673 5.472,-3.439 6.554,-0.111 0.24,0.738 -0.899,1.227 -1.259,0.531 -2.784,-0.62 -4.176,0.006 -4.177,1.877 -0.132,0.629 -0.166,1.264 -0.102,1.905 0.006,0.714 0.111,1.426 0.128,2.14 0.038,1.626 -0.081,3.251 -0.599,4.801 -0.719,2.151 -2.213,4.111 -4.38,4.958 -2.703,1.056 -9.282,-1.532 -7.779,-4.822 -0.543,-0.105 -1.06,-0.27 -1.552,-0.482 0.005,0.032 0.019,0.059 0.019,0.094 0.032,5.085 4.358,9.48 9.622,7.677 4.696,-1.609 5.186,-5.896 6.462,-9.957 0.952,-3.03 3.106,-5.599 6.49,-4.674 0.789,0.215 0.662,1.53 -0.199,1.467 -1.781,-0.13 -4.433,3.681 -4.963,5.189 -0.418,1.187 -0.475,2.441 -0.964,3.618 -0.459,1.107 -1.071,2.129 -1.879,3.024 -1.797,1.99 -4.439,3.378 -7.148,3.448 -5.34,0.138 -9.622,-4.776 -8.715,-9.967 0.037,-0.216 0.164,-0.344 0.32,-0.413 -6.866,-4.131 -7.864,-18.488 -0.324,-21.545 -0.723,-3.182 -1.348,-6.371 -1.989,-9.556 -0.021,-0.007 -0.042,-0.009 -0.063,-0.02 -4.463,-2.385 -6.258,-7.12 -7.11,-11.875 -0.544,-3.038 -1.433,-7.482 1.485,-9.223 -2.349,-6.424 -5.156,-12.648 -8.256,-18.775 -0.213,-0.421 -0.095,-0.818 0.158,-1.086 -0.39,-0.094 -0.563,-0.713 -0.143,-0.948 5.312,-2.967 11.227,-4.19 17.109,-3.957 -0.032,-9.992 0.585,-20.022 1.035,-30.002 -0.81,0.636 -1.804,0.964 -2.93,0.928 -1.308,-0.042 -2.914,-0.682 -3.166,-2.122 -0.134,-0.767 0.17,-1.516 0.678,-2.095 -3.462,0.017 -6.924,0.023 -10.384,0.031 0.175,0.079 0.346,0.16 0.498,0.249 1.227,0.717 2.254,2.511 0.856,3.605 -1.279,1 -3.297,0.059 -4.532,-0.573 -0.228,-0.116 -0.55,-0.317 -0.865,-0.563 0.307,6.601 0.206,13.249 -0.27,19.833 -0.037,0.517 -0.481,0.911 -1.013,0.772 -2.279,-0.598 -4.219,-1.587 -5.991,-3.043 -0.132,0.8 -0.267,1.634 -0.729,2.287 -0.03,0.044 -0.08,0.07 -0.125,0.1 -1.072,5.98 -2.709,11.899 -3.995,17.836 -0.22,1.015 -0.432,2.033 -0.642,3.052 3.084,-0.096 6.162,0.914 7.6,3.47 0.964,-0.827 2.5,-0.613 3.391,0.399 0.68,0.774 0.809,1.746 0.503,2.569 0.646,0.306 1.242,0.97 1.486,1.481 0.572,1.197 0.172,2.585 -0.882,3.362 -0.989,0.73 -2.377,0.788 -3.313,-0.064 -0.253,-0.23 -0.452,-0.504 -0.604,-0.799 -2.997,1.625 -7.266,1.221 -10.474,0.234 -0.377,1.573 -0.772,3.14 -1.221,4.692 7.124,3.735 6.368,15.633 -2.655,17.905 -0.377,0.095 -0.672,-0.059 -0.847,-0.303 -7.623,0.319 -10.802,-12.522 -5.704,-17.114 -0.009,-0.019 -0.022,-0.032 -0.029,-0.052 -2.378,-6.748 -3.24,-14.238 -4.604,-21.25 -1.387,-7.123 -2.856,-14.238 -4.123,-21.383 -0.11,-0.622 0.311,-1.064 0.786,-1.19 0.035,-0.135 0.132,-0.249 0.315,-0.281 3.973,-0.696 8.205,-1.131 12.445,-1.317 0.911,-4.088 1.787,-8.18 2.617,-12.285 -4.894,2.317 -10.108,4.627 -15.378,5.643 -0.387,0.074 -0.727,-0.247 -0.783,-0.578 -1.195,-1.1 -1.965,-2.534 -2.221,-4.164 -0.117,-0.747 0.06243,-1.592226 0.257,-2.331 -8.721813,0.874178 -9.958,-1.245 -9.958,-1.245 10.357,-0.224 20.714,-0.404 31.072,-0.576 20.652,-0.344 41.5,-1.54 62.143,-0.94 1.074,0.031 1.062,1.595 0,1.66 -3.922,0.238 -7.854,0.402 -11.792,0.529 0.566,0.958 0.848,2.416 -0.209,2.797 -3.89,10.556 -2.978,22.135 -4.894,33.117 8.073,2.957 15.202,8.608 19.429,16.154 0.38,0.056 0.757,0.104 1.146,0.184 0.913,0.186 0.721,1.709 -0.221,1.639"
             style="fill:#3c3c3b;fill-opacity:1;fill-rule:nonzero;stroke:none"
             id="path2711"
             inkscape:connector-curvature="0"
             sodipodi:nodetypes="ccccccccccccccccccccccccccccccccccccccccccccccccccccccccccccccccccccccccccccccccccccccccccccccccccccccccccccccccccccccccccccccccccccccccccccccccccccccccccccccccccccccccccccccccccccccccccccccccccccccccccccccccccccccccccccccccccccccccccccccccccccccccccccccccccccc" />
        </g>
        <g
           style="opacity:1;stop-opacity:1"
           id="g2713"
           transform="translate(692.56,174.0884)">
          <path
             d="m 0,0 c -0.938,1.553 -2.719,2.181 -4.427,1.531 -1.235,-0.469 -2.001,-1.379 -2.422,-2.466 -1.079,1.411 -2.422,2.569 -4.285,2.82 -2.201,0.296 -4.522,-0.836 -4.91,-3.18 -0.982,-5.929 6.717,-9.973 11.535,-10.137 0.423,-0.014 0.626,0.387 0.556,0.725 C -0.305,-9.072 2.174,-3.6 0,0"
             style="fill:#e20613;fill-opacity:1;fill-rule:nonzero;stroke:none"
             id="path2715"
             inkscape:connector-curvature="0" />
        </g>
        <g
           style="opacity:1;stop-opacity:1"
           id="g2717"
           transform="translate(695.3552,193.5496)">
          <path
             d="M 0,0 C -0.326,1.683 -1.833,2.36 -3.447,2.037 -4.905,1.745 -5.982,0.677 -6.84,-0.518 -7.525,0.463 -8.422,1.29 -9.637,1.441 c -1.593,0.199 -2.997,-0.933 -3.407,-2.442 -0.769,-2.832 2.671,-8.525 6.043,-7.277 0.041,0.016 0.075,0.04 0.108,0.066 0.07,-0.013 0.131,-0.036 0.211,-0.035 C -2.891,-8.192 0.729,-3.765 0,0"
             style="fill:#e20613;fill-opacity:1;fill-rule:nonzero;stroke:none"
             id="path2719"
             inkscape:connector-curvature="0" />
        </g>
        <g
           style="opacity:1;stop-opacity:1"
           id="g2721"
           transform="translate(671.6447,195.4636)">
          <path
             d="m 0,0 c -0.72,1.24 -2.114,1.792 -3.43,1.14 -0.99,-0.49 -1.447,-1.361 -1.638,-2.331 -0.483,0.25 -1.006,0.402 -1.557,0.373 -1.134,-0.06 -2.045,-0.933 -2.178,-2.058 -0.329,-2.796 3.119,-4.854 5.56,-4.601 0.012,0.001 0.023,0.008 0.035,0.01 0.233,-0.273 0.592,-0.435 0.954,-0.307 2.845,1 3.645,5.377 2.254,7.774"
             style="fill:#e20613;fill-opacity:1;fill-rule:nonzero;stroke:none"
             id="path2723"
             inkscape:connector-curvature="0" />
        </g>
        <g
           style="opacity:1;stop-opacity:1"
           id="g2725"
           transform="translate(681.9967,216.8038)">
          <path
             d="m 0,0 c -1.062,0.608 -2.471,0.406 -3.394,-0.375 -0.089,-0.075 -0.161,-0.159 -0.238,-0.239 -0.393,0.528 -0.901,0.963 -1.579,1.234 -1.43,0.573 -3.075,0.103 -3.766,-1.33 -0.534,-1.11 -0.481,-2.085 -0.101,-2.967 0.076,-1.566 0.888,-3.223 1.93,-4.097 2.23,-1.871 5.768,-1.562 7.602,0.695 C 1.97,-5.214 2.43,-1.391 0,0"
             style="fill:#e20613;fill-opacity:1;fill-rule:nonzero;stroke:none"
             id="path2727"
             inkscape:connector-curvature="0" />
        </g>
      </g>
      <path
         style="fill:#f5f5f5;stroke-width:0.482137"
         d="m 124.08851,204.25205 c -4.35587,-1.89254 -3.99893,-12.37883 0.57712,-16.95488 2.54223,-2.54223 4.07575,-2.96209 6.62319,-1.81336 3.40006,1.53322 6.20282,5.79807 6.19434,9.4257 -0.0158,6.7567 -7.43537,11.93172 -13.39465,9.34254 z"
         id="path3929"
         inkscape:connector-curvature="0"
         transform="scale(0.26458333)" />
      <path
         style="fill:#f5f5f5;stroke-width:0.482137"
         d="m 119.59687,262.95679 -7.0409,-0.14694 1.58836,-8.0633 c 0.87361,-4.43482 3.01593,-15.29751 4.76071,-24.13933 1.74479,-8.84181 3.30356,-17.62875 3.46395,-19.52653 l 0.29161,-3.4505 h 4.76054 c 4.55015,0 4.76055,0.0458 4.76087,1.03689 1.8e-4,0.5703 0.44828,3.60776 0.99578,6.74992 0.54749,3.14215 1.11999,6.42869 1.27223,7.30341 l 0.27678,1.59039 -2.43172,-0.92398 c -1.36911,-0.52022 -2.70156,-0.75721 -3.04924,-0.54233 -1.02181,0.63151 0.30992,1.77103 3.37655,2.88917 l 2.74307,1.00018 2.29605,10.38769 c 1.26283,5.71323 2.82473,12.21202 3.47088,14.44175 0.64615,2.22974 1.17482,4.45743 1.17482,4.95043 0,0.49301 0.32858,1.82767 0.73018,2.96593 0.4016,1.13825 0.60394,2.4673 0.44965,2.95343 -0.29948,0.94357 -1.99342,0.9807 -23.89017,0.52372 z"
         id="path3931"
         inkscape:connector-curvature="0"
         transform="scale(0.26458333)" />
      <path
         style="fill:#f5f5f5;stroke-width:0.482137"
         d="m 180.27089,163.81225 c -2.44025,-0.90094 -3.01995,-1.44675 -4.26232,-4.01314 -0.83541,-1.72573 -1.05557,-3.02317 -1.03648,-6.10823 0.0349,-5.64396 1.45442,-9.81351 4.36833,-12.83124 3.0491,-3.15773 4.28006,-3.41241 7.01169,-1.45069 5.30796,3.81189 7.61671,10.16602 5.87308,16.16389 -1.94683,6.69685 -6.89495,10.10731 -11.9543,8.23941 z"
         id="path3933"
         inkscape:connector-curvature="0"
         transform="scale(0.26458333)" />
      <path
         style="fill:#f5f5f5;stroke-width:0.482137"
         d="m 173.64609,237.2442 c -1.98882,-0.24336 -5.89846,-1.00631 -8.6881,-1.69545 l -5.07207,-1.25297 2.90245,-5.86032 c 1.59636,-3.22318 3.87879,-8.30289 5.07208,-11.28825 l 2.16961,-5.42792 1.44639,0.31038 c 0.79551,0.1707 1.71254,0.69035 2.03783,1.15477 0.77579,1.1076 2.80048,1.59061 3.99276,0.95252 1.03333,-0.55302 3.57559,-4.31627 5.556,-8.22443 2.83664,-5.59783 3.92899,-14.4818 2.45924,-20.00073 -0.72595,-2.72595 -1.59565,-4.55805 -2.1637,-4.55805 -0.20815,0 -0.36323,3.41714 -0.34464,7.59365 0.0353,7.92457 -0.34221,10.10968 -2.69756,15.61491 -0.75871,1.77335 -1.14844,2.18542 -1.88484,1.99284 -0.5106,-0.13352 -0.92836,-0.45764 -0.92836,-0.72026 0,-0.26261 -0.30506,-0.36042 -0.67791,-0.21735 -0.37284,0.14308 -1.05736,-0.15915 -1.52113,-0.67162 -0.46378,-0.51246 -1.13505,-0.93176 -1.49171,-0.93176 -0.90392,0 -0.83851,-0.48148 0.77874,-5.73219 3.2055,-10.40727 5.78261,-22.72918 5.80937,-27.7763 0.006,-1.0607 0.16962,-2.1707 0.36444,-2.46666 0.19482,-0.29597 1.60175,-0.63926 3.12651,-0.76288 l 2.77228,-0.22474 v 2.1474 c 0,3.33905 1.36796,11.94044 2.66939,16.78443 2.68322,9.98712 6.7382,17.76325 12.03578,23.08071 4.4625,4.47925 8.1049,6.26281 14.83049,7.26196 1.58252,0.23511 1.75226,0.38244 1.33619,1.15987 -0.93623,1.74935 -7.8799,8.74268 -11.00246,11.08114 -9.04293,6.77219 -21.53018,10.06696 -32.88707,8.6773 z"
         id="path3935"
         inkscape:connector-curvature="0"
         transform="scale(0.26458333)" />
      <path
         style="fill:#f5f5f5;stroke-width:0.482137"
         d="m 175.16764,210.91548 c -0.28998,-0.51817 -0.2763,-1.20486 0.0377,-1.8941 0.41524,-0.91136 0.63445,-0.99268 1.39522,-0.51757 1.03046,0.64353 1.17184,1.79815 0.32401,2.64597 -0.78548,0.78549 -1.21859,0.72773 -1.75697,-0.2343 z"
         id="path3937"
         inkscape:connector-curvature="0"
         transform="scale(0.26458333)" />
      <path
         style="fill:#f5f5f5;stroke-width:0.482137"
         d="m 171.2354,209.10798 c 0,-0.3805 0.20506,-1.23114 0.45568,-1.89032 0.33989,-0.89398 0.70741,-1.13268 1.44641,-0.93943 1.22755,0.32101 1.22671,0.34863 -0.0642,2.09469 -1.14531,1.54911 -1.83788,1.82611 -1.83788,0.73506 z"
         id="path3941"
         inkscape:connector-curvature="0"
         transform="scale(0.26458333)" />
      <path
         style="fill:#f5f5f5;stroke-width:0.482137"
         d="m 151.1062,215.75719 c -0.82628,-0.34564 -0.75614,-1.39581 0.15402,-2.30597 1.0397,-1.0397 2.73686,-0.15109 2.52699,1.3231 -0.14832,1.04183 -1.42296,1.50912 -2.68101,0.98287 z"
         id="path3943"
         inkscape:connector-curvature="0"
         transform="scale(0.26458333)" />
      <path
         style="fill:#f5f5f5;stroke-width:0.482137"
         d=""
         id="path3945"
         inkscape:connector-curvature="0"
         transform="scale(0.26458333)" />
      <path
         style="fill:#f5f5f5;stroke-width:0.482137"
         d="m 108.82007,283.11909 c -0.3901,-0.63119 0.47567,-3.88014 1.3541,-5.08146 0.65282,-0.89278 0.68158,-0.8887 1.00903,0.143 0.6108,1.92447 -1.49985,6.33529 -2.36313,4.93846 z"
         id="path3947"
         inkscape:connector-curvature="0"
         transform="scale(0.26458333)" />
      <path
         style="fill:#f5f5f5;stroke-width:0.482137"
         d="m 156.28917,282.88881 c 0,-0.10766 0.97633,-0.52841 2.16961,-0.93501 2.25917,-0.76977 3.11013,-0.16723 0.93289,0.66055 -1.24547,0.47353 -3.1025,0.63781 -3.1025,0.27446 z"
         id="path3949"
         inkscape:connector-curvature="0"
         transform="scale(0.26458333)" />
      <path
         style="fill:#f5f5f5;stroke-width:0.482137"
         d="m 176.65944,283.72952 c -0.33147,-0.13375 -0.60267,-0.65489 -0.60267,-1.15809 0,-1.25311 2.01996,-1.68511 4.4604,-0.95394 l 1.96236,0.58794 -2.05869,0.9217 c -2.09646,0.93861 -2.69185,1.03396 -3.7614,0.60239 z"
         id="path3951"
         inkscape:connector-curvature="0"
         transform="scale(0.26458333)" />
      <path
         style="fill:#f5f5f5;stroke-width:0.482137"
         d="m 196.04666,284.50059 c -0.51886,-0.83954 1.26793,-2.38031 2.76038,-2.38031 1.7261,0 2.37111,1.3111 1.10167,2.23934 -1.06408,0.77808 -3.41525,0.8639 -3.86205,0.14097 z"
         id="path3953"
         inkscape:connector-curvature="0"
         transform="scale(0.26458333)" />
    </g>
  </g>
</svg>
