<?xml version="1.0" encoding="UTF-8"?>
<svg width="67.934mm" height="183.61mm" version="1.1" viewBox="0 0 67.934 183.61" xmlns="http://www.w3.org/2000/svg" xmlns:cc="http://creativecommons.org/ns#" xmlns:dc="http://purl.org/dc/elements/1.1/" xmlns:rdf="http://www.w3.org/1999/02/22-rdf-syntax-ns#">
 <defs>
  <pattern id="pattern2855" width="34.2871" height="34.2871" patternTransform="translate(-1023.6 875.84)" patternUnits="userSpaceOnUse">
   <path d="m34.287 0h-34.287v34.287h34.287v-34.287z" fill="#97d669"/>
  </pattern>
  <pattern id="pattern2863" width="34.2871" height="34.2871" patternTransform="translate(-1023.6 875.84)" patternUnits="userSpaceOnUse">
   <path d="m34.287 0h-34.287v34.287h34.287v-34.287z" fill="#72ac47"/>
  </pattern>
 </defs>
 <metadata>
  <rdf:RDF>
   <cc:Work rdf:about="">
    <dc:format>image/svg+xml</dc:format>
    <dc:type rdf:resource="http://purl.org/dc/dcmitype/StillImage"/>
    <dc:title/>
   </cc:Work>
  </rdf:RDF>
 </metadata>
 <g transform="translate(-71.866 -56.361)">
  <g transform="matrix(.35278 0 0 -.35278 -222.12 521.36)">
   <g transform="translate(929.62 1318.1)">
    <path d="m0 0c-20.551-32.511-96.285-161-96.285-289.18 0-128.16 66.968-140.75 96.285-140.75s96.285 12.587 96.285 140.75c0 128.17-75.736 256.66-96.285 289.18" fill="url(#pattern2855)"/>
   </g>
   <g transform="translate(929.62 1318.1)">
    <path d="m0 0v-429.93c29.317 0 96.285 12.587 96.285 140.75 0 128.17-75.736 256.66-96.285 289.18" fill="url(#pattern2863)"/>
   </g>
   <g transform="translate(979.57 1088.7)">
    <path d="m0 0c-0.809 0.43-1.814 0.124-2.248-0.684l-40.304-75.307c-0.11 15.242-0.286 30.285-0.474 44.68-0.166 11.965-0.275 23.463-0.403 34.327l19.018 40.166c0.374 0.796 0.065 1.759-0.718 2.176-0.81 0.43-1.816 0.125-2.248-0.683l-16.2-30.347c-0.073 4.999-0.156 9.825-0.261 14.445-0.35 17.586-0.641 32.237-0.844 42.498-0.269 10.26-0.423 16.118-0.423 16.118-0.054 1.916-1.595 3.482-3.531 3.532-2.002 0.051-3.668-1.529-3.719-3.532 0 0-0.155-5.858-0.425-16.118-0.204-10.261-0.494-24.912-0.843-42.498-0.09-3.993-0.165-8.159-0.231-12.437l-18.675 34.979c-0.43 0.809-1.438 1.114-2.246 0.684-0.785-0.416-1.094-1.381-0.72-2.177l21.481-45.364c-0.137-11.279-0.248-23.275-0.422-35.769-0.18-13.75-0.347-28.095-0.459-42.627l-42.763 79.895c-0.432 0.809-1.44 1.113-2.248 0.684-0.794-0.429-1.102-1.411-0.699-2.213l45.633-90.723c-0.022-4.626-0.044-9.26-0.048-13.893-0.076-19.538-0.154-39.027-0.228-57.713l-37.596 53.349c-0.529 0.752-1.566 0.926-2.315 0.397-0.73-0.51-0.918-1.511-0.441-2.25 0 0 39.702-61.179 40.312-61.415-2e-3 -0.411-3e-3 -0.833-4e-3 -1.243-0.069-10.66-6.664-122.04-6.664-122.04h26.305s-6.452 109.58-6.504 119.24l37.849 58.814c0.476 0.741 0.29 1.742-0.439 2.252-0.751 0.528-1.786 0.355-2.315-0.398l-35.141-49.867c-0.077 19.645-0.16 40.229-0.24 60.873-5e-3 4.042-0.026 8.079-0.042 12.121l43.183 85.853c0.403 0.803 0.096 1.785-0.7 2.214" fill="#29491e"/>
   </g>
  </g>
 </g>
</svg>
