<?xml version="1.0" encoding="UTF-8"?>
<svg width="117.81mm" height="318.41mm" version="1.1" viewBox="0 0 117.81 318.41" xmlns="http://www.w3.org/2000/svg" xmlns:cc="http://creativecommons.org/ns#" xmlns:dc="http://purl.org/dc/elements/1.1/" xmlns:rdf="http://www.w3.org/1999/02/22-rdf-syntax-ns#">
 <defs>
  <pattern id="pattern2835" width="34.2871" height="34.2871" patternTransform="translate(-1023.6 875.84)" patternUnits="userSpaceOnUse">
   <path d="m34.287 0h-34.287v34.287h34.287v-34.287z" fill="#97d669"/>
  </pattern>
  <pattern id="pattern2843" width="34.2871" height="34.2871" patternTransform="translate(-1023.6 875.84)" patternUnits="userSpaceOnUse">
   <path d="m34.287 0h-34.287v34.287h34.287v-34.287z" fill="#72ac47"/>
  </pattern>
 </defs>
 <metadata>
  <rdf:RDF>
   <cc:Work rdf:about="">
    <dc:format>image/svg+xml</dc:format>
    <dc:type rdf:resource="http://purl.org/dc/dcmitype/StillImage"/>
    <dc:title/>
   </cc:Work>
  </rdf:RDF>
 </metadata>
 <g transform="translate(-46.928 11.04)">
  <g transform="matrix(.35278 0 0 -.35278 -412.51 561.93)">
   <g transform="translate(1469.3 1624.2)">
    <path d="m0 0c-35.636-56.377-166.98-279.21-166.98-501.48 0-222.26 116.13-244.09 166.98-244.09 50.842 0 166.98 21.827 166.98 244.09 0 222.26-131.34 445.1-166.98 501.48" fill="url(#pattern2835)"/>
   </g>
   <g transform="translate(1469.3 1624.2)">
    <path d="m0 0v-745.57c50.842 0 166.98 21.827 166.98 244.09 0 222.26-131.34 445.1-166.98 501.48" fill="url(#pattern2843)"/>
   </g>
   <g transform="translate(1556 1226.4)">
    <path d="m0 0c-1.403 0.752-3.15 0.224-3.9-1.182l-69.893-130.59c-0.192 26.421-0.497 52.515-0.824 77.476-0.286 20.745-0.476 40.694-0.699 59.524l32.982 69.661c0.65 1.374 0.113 3.048-1.246 3.768-1.406 0.752-3.15 0.224-3.899-1.181l-28.092-52.622c-0.128 8.663-0.274 17.04-0.455 25.042-0.606 30.496-1.11 55.912-1.461 73.703-0.47 17.792-0.734 27.953-0.734 27.953-0.093 3.32-2.767 6.038-6.122 6.125-3.472 0.093-6.361-2.651-6.455-6.125 0 0-0.264-10.161-0.734-27.953-0.351-17.791-0.855-43.207-1.46-73.703-0.159-6.92-0.286-14.141-0.402-21.565l-32.382 60.661c-0.75 1.405-2.495 1.935-3.901 1.189-1.358-0.729-1.896-2.395-1.247-3.776l37.25-78.671c-0.237-19.562-0.426-40.364-0.728-62.03-0.314-23.842-0.602-48.722-0.796-73.926l-74.159 138.56c-0.748 1.399-2.497 1.928-3.899 1.176-1.378-0.734-1.909-2.439-1.213-3.831l79.135-157.34c-0.037-8.023-0.075-16.051-0.081-24.092-0.134-33.885-0.268-67.676-0.396-100.09l-65.201 92.52c-0.914 1.299-2.711 1.611-4.014 0.696-1.265-0.89-1.588-2.624-0.761-3.911 0 0 68.849-106.1 69.908-106.5-3e-3 -0.709-6e-3 -1.449-9e-3 -2.164-0.118-18.482-11.554-211.63-11.554-211.63h45.617s-11.191 190.03-11.281 206.78l65.637 101.98c0.826 1.294 0.504 3.022-0.761 3.918-1.304 0.914-3.097 0.604-4.014-0.696l-60.944-86.476c-0.133 34.065-0.276 69.76-0.416 105.56-5e-3 7.015-0.041 14.016-0.072 21.018l74.888 148.89c0.696 1.388 0.165 3.092-1.212 3.832" fill="#29491e"/>
   </g>
  </g>
 </g>
</svg>
