<?xml version="1.0" encoding="UTF-8"?>
<svg width="172.36mm" height="233.6mm" version="1.1" viewBox="0 0 172.36 233.6" xmlns="http://www.w3.org/2000/svg" xmlns:cc="http://creativecommons.org/ns#" xmlns:dc="http://purl.org/dc/elements/1.1/" xmlns:rdf="http://www.w3.org/1999/02/22-rdf-syntax-ns#">
 <defs>
  <pattern id="pattern2875" width="34.2871" height="34.2871" patternTransform="translate(-1023.6 875.84)" patternUnits="userSpaceOnUse">
   <path d="m34.287 0h-34.287v34.287h34.287v-34.287z" fill="#619e35"/>
  </pattern>
  <pattern id="pattern2883" width="34.2871" height="34.2871" patternTransform="translate(-1023.6 875.84)" patternUnits="userSpaceOnUse">
   <path d="m34.287 0h-34.287v34.287h34.287v-34.287z" fill="#4e822b"/>
  </pattern>
  <pattern id="pattern2895" width="34.2871" height="34.2871" patternTransform="translate(-1023.6 875.84)" patternUnits="userSpaceOnUse">
   <path d="m34.287 0h-34.287v34.287h34.287v-34.287z" fill="#619e35"/>
  </pattern>
  <pattern id="pattern2903" width="34.2871" height="34.2871" patternTransform="translate(-1023.6 875.84)" patternUnits="userSpaceOnUse">
   <path d="m34.287 0h-34.287v34.287h34.287v-34.287z" fill="#4e822b"/>
  </pattern>
 </defs>
 <metadata>
  <rdf:RDF>
   <cc:Work rdf:about="">
    <dc:format>image/svg+xml</dc:format>
    <dc:type rdf:resource="http://purl.org/dc/dcmitype/StillImage"/>
    <dc:title/>
   </cc:Work>
  </rdf:RDF>
 </metadata>
 <g transform="translate(-55.988 89.166)">
  <g transform="matrix(.35278 0 0 -.35278 -9.4924 428.62)">
   <g transform="translate(302.29 1395.5)">
    <path d="m0 0 3.441-30.376-14.495 13.331c-25.599-39.909-53.634-86.884-74.409-130.43l47.061-73.864-53.561 59.774c-14.885-33.313-24.713-63.833-24.713-86.456 0-8.11 0.513-15.927 1.408-23.506l18.284-21.33-16.06 7.019c21.836-111.57 136.35-161.63 162.58-171.72v529.79c-8.861-12.315-27.666-38.886-49.536-72.231" fill="url(#pattern2875)"/>
   </g>
   <g transform="translate(351.83 1467.7)">
    <path d="m0 0c29.2-40.592 166.21-235.56 166.21-320.26 0-138.26-137.19-198.37-166.21-209.53z" fill="url(#pattern2883)"/>
   </g>
   <g transform="translate(361.73 1023.5)">
    <path d="m0 0 96.895 130.2-4.102 3.184-93.039-114.78c-0.106 8.184-0.214 16.454-0.324 24.8-0.257 14.931-0.519 30.079-0.78 45.239l51.95 112.29-4.673 2.27-47.659-93.521c-0.466 25.048-1.042 49.861-1.633 73.758l31.112 72.303-4.729 2.152-26.862-55.892c-0.41 14.365-0.804 28.294-1.18 41.558-0.496 14.881-0.961 28.948-1.394 41.925-0.982 25.97-1.803 47.611-2.375 62.759-0.709 15.143-1.114 23.8-1.114 23.8s-0.407-8.657-1.115-23.8c-0.573-15.148-1.394-36.789-2.376-62.759-0.432-12.977-0.9-27.044-1.393-41.925-0.389-13.749-0.803-28.213-1.225-43.131l-27.62 57.465-4.726-2.152 31.867-74.063c-0.588-23.848-1.156-48.573-1.617-73.515l-48.433 95.038-4.673-2.27 52.723-113.96c-0.251-14.606-0.503-29.189-0.752-43.572-0.115-8.676-0.228-17.275-0.336-25.77l-93.828 115.75-4.102-3.184 97.685-131.26c-0.026-1.846-13.477-180.85-13.477-180.85h46.752s-13.42 179.71-13.447 181.9" fill="#224818"/>
   </g>
   <g transform="translate(490.46 1277.2)">
    <path d="m0 0 2.931-25.869-12.343 11.354c-21.8-33.99-45.68-73.987-63.368-111.08l40.077-62.901-45.617 50.898c-12.673-28.369-21.044-54.355-21.044-73.621 0-6.909 0.436-13.562 1.197-20.017l15.572-18.164-13.677 5.975c18.599-95.012 116.12-137.65 138.46-146.24v451.19c-7.546-10.492-23.559-33.121-42.186-61.521" fill="url(#pattern2895)"/>
   </g>
   <g transform="translate(532.65 1338.8)">
    <path d="m0 0c24.868-34.568 141.55-200.61 141.55-272.74 0-117.76-116.83-168.93-141.55-178.45z" fill="url(#pattern2903)"/>
   </g>
   <g transform="translate(541.09 960.47)">
    <path d="m0 0 82.521 110.88-3.493 2.712-79.233-97.743c-0.09 6.964-0.184 14.009-0.277 21.118-0.22 12.717-0.442 25.613-0.665 38.53l44.243 95.622-3.981 1.935-40.586-79.642c-0.397 21.33-0.888 42.461-1.392 62.814l26.495 61.576-4.028 1.828-22.875-47.596c-0.347 12.232-0.686 24.096-1.006 35.396-0.42 12.668-0.819 24.644-1.186 35.7-0.836 22.113-1.536 40.546-2.023 53.442-0.604 12.904-0.95 20.273-0.95 20.273s-0.344-7.369-0.947-20.273c-0.488-12.896-1.188-31.329-2.024-53.442-0.367-11.056-0.765-23.032-1.185-35.7-0.332-11.71-0.684-24.03-1.045-36.74l-23.522 48.94-4.026-1.828 27.14-63.075c-0.502-20.31-0.984-41.372-1.377-62.614l-41.247 80.941-3.977-1.935 44.898-97.047c-0.215-12.436-0.43-24.854-0.641-37.105-0.096-7.389-0.192-14.713-0.285-21.946l-79.906 98.571-3.494-2.712 83.191-111.78c-0.022-1.574-11.476-154.02-11.476-154.02h39.814s-11.43 153.04-11.455 154.92" fill="#224818"/>
   </g>
  </g>
 </g>
</svg>
