<?xml version="1.0" encoding="UTF-8" standalone="no"?>
<svg
   xmlns:dc="http://purl.org/dc/elements/1.1/"
   xmlns:cc="http://creativecommons.org/ns#"
   xmlns:rdf="http://www.w3.org/1999/02/22-rdf-syntax-ns#"
   xmlns:svg="http://www.w3.org/2000/svg"
   xmlns="http://www.w3.org/2000/svg"
   xmlns:sodipodi="http://sodipodi.sourceforge.net/DTD/sodipodi-0.dtd"
   xmlns:inkscape="http://www.inkscape.org/namespaces/inkscape"
   sodipodi:docname="bride_1.svg"
   inkscape:version="1.0beta1 (32d4812, 2019-09-19)"
   id="svg3206"
   version="1.1"
   viewBox="0 0 34.976398 76.233322"
   height="76.233322mm"
   width="34.976398mm">
  <defs
     id="defs3200" />
  <sodipodi:namedview
     inkscape:window-maximized="0"
     inkscape:window-y="25"
     inkscape:window-x="0"
     inkscape:window-height="875"
     inkscape:window-width="1440"
     fit-margin-bottom="0"
     fit-margin-right="0"
     fit-margin-left="0"
     fit-margin-top="0"
     inkscape:pagecheckerboard="true"
     showgrid="false"
     inkscape:document-rotation="0"
     inkscape:current-layer="g2821"
     inkscape:document-units="mm"
     inkscape:cy="151.58477"
     inkscape:cx="-23.313825"
     inkscape:zoom="2.4086493"
     inkscape:pageshadow="2"
     inkscape:pageopacity="0.0"
     borderopacity="1.0"
     bordercolor="#666666"
     pagecolor="#ffffff"
     id="base" />
  <metadata
     id="metadata3203">
    <rdf:RDF>
      <cc:Work
         rdf:about="">
        <dc:format>image/svg+xml</dc:format>
        <dc:type
           rdf:resource="http://purl.org/dc/dcmitype/StillImage" />
        <dc:title></dc:title>
      </cc:Work>
    </rdf:RDF>
  </metadata>
  <g
     style="display:none"
     transform="translate(-151.19622,-90.77641)"
     id="layer1"
     inkscape:groupmode="layer"
     inkscape:label="Layer 1">
    <g
       id="g3265">
      <g
         transform="matrix(0.63628747,0,0,-0.63628747,185.02537,126.0465)"
         id="g2825"
         style="opacity:1;stop-opacity:1">
        <path
           inkscape:connector-curvature="0"
           id="path2827"
           style="fill:#3c3c3b;fill-opacity:1;fill-rule:nonzero;stroke:none"
           d="m 0,0 c -0.182,-0.968 -1.073,-1.976 -2.109,-1.986 -1.135,-0.01 -2.025,1.248 -1.798,2.328 0.244,1.161 1.394,1.665 2.47,1.663 C -1.258,1.911 -1.045,1.9 -0.845,1.959 -0.723,1.895 -0.605,1.813 -0.493,1.7 -0.05,1.255 0.114,0.606 0,0 m -11.249,2.138 c 1.3,-4.369 2.578,-8.746 3.917,-13.103 0.871,-2.833 1.474,-5.965 3.297,-8.334 -10.487,-0.945 -20.929,-1.072 -31.421,-0.186 4.723,16.154 9.748,32.928 11.644,49.686 1.315,-0.446 2.805,-0.655 4.489,-0.55 -0.023,-0.128 -0.021,-0.267 0.024,-0.422 2.645,-9.041 5.364,-18.062 8.05,-27.091 m -5.618,-64.018 c -0.114,1.332 1.633,1.506 2.533,1.232 1.036,-0.317 1.86,-1.112 2.636,-1.837 0.002,-0.035 0.003,-0.071 0.005,-0.106 0.003,-0.069 0.029,-0.121 0.044,-0.182 -1.879,-0.217 -5.1,-0.484 -5.218,0.893 m -4.761,115.342 c 0.158,-0.237 0.443,-0.376 0.823,-0.263 12.43,3.674 14.349,-20.598 1.443,-21.551 -12.67,-0.934 -13.747,19.968 -2.266,21.814 M -34.033,-62.067 c -0.834,0.858 0.082,1.61 0.937,1.695 0.593,0.06 1.39,-0.232 1.912,-0.485 0.714,-0.347 1.287,-0.834 1.824,-1.38 10e-4,-0.116 -0.004,-0.232 -0.003,-0.348 0.001,-0.017 0.008,-0.028 0.009,-0.045 -1.611,-0.245 -3.714,-0.432 -4.679,0.563 m -9.978,78.739 c -0.002,-0.006 -0.007,-0.01 -0.01,-0.016 -0.478,0.127 -0.978,-0.259 -0.869,-0.771 -0.576,-0.224 -1.275,-0.171 -1.79,0.181 -0.638,0.438 -0.866,1.236 -0.75,1.977 0.328,0.219 0.511,0.609 0.865,0.842 0.41,0.271 0.941,0.391 1.426,0.306 1.109,-0.197 1.591,-1.556 1.128,-2.519 m -3.322,11.696 c -0.572,0.081 -0.938,0.616 -0.845,1.227 0.016,0.105 0.066,0.232 0.125,0.364 0.454,-0.194 0.96,-0.264 1.459,-0.209 -0.373,-0.255 -0.556,-0.793 -0.13,-1.142 0.03,-0.025 0.063,-0.043 0.094,-0.067 -0.245,0.064 -0.522,0.005 -0.703,-0.173 m -0.633,4.841 c 0.124,-0.152 0.35,-0.213 0.523,-0.047 0.336,0.322 0.684,0.603 1.111,0.262 0.271,-0.217 0.451,-0.555 0.511,-0.895 0.125,-0.713 -0.221,-1.314 -0.965,-1.414 -0.655,-0.088 -1.351,0.258 -1.471,0.948 -0.073,0.418 0.055,0.816 0.291,1.146 m -1.265,0.02 c -0.307,0.033 -0.626,0.006 -0.943,-0.061 -0.557,0.027 -1.105,0.503 -1.052,1.083 0.044,0.476 0.465,0.86 0.898,1.006 0.952,0.322 1.502,-0.398 2.034,-1.028 -0.395,-0.229 -0.721,-0.583 -0.937,-1 m -0.412,-3.606 c -0.103,-0.074 -0.206,-0.148 -0.321,-0.211 -0.568,-0.31 -1.55,-0.399 -1.71,0.417 -0.253,1.293 1.175,1.671 2.162,2.154 0.002,-0.054 -0.006,-0.109 0,-0.163 0.037,-0.348 0.16,-0.651 0.328,-0.92 -0.262,-0.397 -0.415,-0.917 -0.459,-1.277 m 3.66,6.676 c 0.497,-0.134 0.845,-0.515 0.965,-1.012 0.115,-0.474 -0.022,-0.858 -0.153,-1.271 -0.322,0.345 -0.725,0.619 -1.186,0.693 -0.254,0.041 -0.51,-0.007 -0.745,-0.109 -0.008,0.012 -0.011,0.025 -0.019,0.037 -0.042,0.179 -0.108,0.345 -0.185,0.503 -0.088,0.707 0.495,1.381 1.323,1.159 m 3.742,-5.633 c -0.371,-1.495 -1.8,-1.589 -2.982,-1.14 -0.057,0.209 -0.141,0.413 -0.268,0.596 0.776,0.506 1.154,1.415 1.055,2.326 1.148,0.567 2.523,-0.464 2.195,-1.782 M -0.409,3.749 c -1.547,7.121 -5.819,14.294 -13.736,14.75 -1.118,3.743 -2.239,7.484 -3.376,11.221 -0.019,0.064 -0.057,0.104 -0.085,0.158 14.082,2.915 10.098,29.867 -3.315,24.957 -11.678,2.203 -14.36,-19.325 -3.916,-24.227 -1.481,-5.133 -2.796,-10.312 -4.058,-15.507 -0.643,-0.257 -1.335,-0.785 -1.6,-0.925 -4.48,-2.361 -8.381,-1.289 -12.065,1.423 0.016,0.027 0.039,0.047 0.054,0.075 0.949,1.763 0.1,4.219 -1.824,4.888 -0.518,0.18 -1.074,0.204 -1.614,0.119 0.321,2.079 0.397,4.504 -0.026,6.61 0.232,0.171 0.414,0.387 0.55,0.628 2.035,-0.608 4.459,0.484 4.599,2.904 0.065,1.124 -0.497,2.159 -1.55,2.596 -0.465,0.193 -0.972,0.256 -1.451,0.186 0.813,1.639 -0.399,4.006 -2.324,4.048 -0.88,0.019 -1.765,-0.525 -2.008,-1.398 -0.013,-0.046 -0.01,-0.093 -0.019,-0.14 -1.138,0.754 -2.857,0.703 -3.757,-0.408 -0.805,-0.995 -0.396,-2.457 0.522,-3.033 -1.297,-0.783 -2.211,-2.257 -1.523,-3.694 0.497,-1.038 1.695,-1.365 2.735,-0.995 0.283,0.101 0.53,0.244 0.747,0.418 0.348,-0.791 1.095,-1.388 1.949,-1.495 0.064,-2.11 0.32,-4.293 0.505,-6.371 0.005,-0.06 0.024,-0.115 0.047,-0.167 -0.063,-0.03 -0.132,-0.048 -0.194,-0.082 -0.51,-0.279 -1.126,-0.79 -1.289,-1.376 -0.765,-1.351 -0.59,-3.176 0.691,-4.219 0.243,-0.198 0.513,-0.348 0.795,-0.465 -0.104,-0.105 -0.18,-0.248 -0.189,-0.44 -0.074,-1.542 -0.144,-3.082 -0.181,-4.625 -0.032,-1.368 -0.236,-2.835 0.176,-4.147 0.206,-0.655 1.123,-0.655 1.329,0 0.41,1.302 0.208,2.79 0.176,4.147 -0.036,1.543 -0.107,3.083 -0.18,4.625 -0.003,0.07 -0.026,0.126 -0.044,0.185 0.667,-0.046 1.35,0.088 1.947,0.387 1.962,-2.371 5.214,-3.728 8.25,-3.711 1.819,0.011 3.702,0.459 5.297,1.336 0.27,0.148 0.555,0.319 0.834,0.502 -2.607,-10.889 -5.027,-21.836 -8.163,-32.594 -0.193,-0.663 0.332,-1.192 0.951,-1.248 2.584,-0.238 5.171,-0.415 7.76,-0.541 -0.303,-6.751 0.062,-13.534 0.041,-20.29 -0.019,-5.928 -0.357,-11.864 -0.404,-17.79 -0.889,0.666 -1.929,1.133 -3.018,1.29 -1.665,0.241 -3.599,-0.563 -3.842,-2.422 -0.554,-4.251 6.408,-3.422 8.455,-2.03 0.214,0.145 0.226,0.368 0.125,0.53 0.143,0.223 0.182,0.506 0.011,0.779 -0.015,0.023 -0.033,0.044 -0.048,0.068 1.359,12.874 1.462,27.012 -0.271,39.815 5.071,-0.217 10.147,-0.213 15.216,0.033 -0.332,-12.728 0.375,-25.536 0.921,-38.263 -1.004,0.776 -2.122,1.375 -3.445,1.372 -1.503,-0.004 -2.907,-0.874 -3.258,-2.389 -1.068,-4.613 5.88,-3.108 8.053,-2.244 0.089,0.036 0.156,0.102 0.202,0.179 0.186,0.14 0.316,0.356 0.308,0.667 -0.354,13.555 -0.445,27.231 -1.705,40.738 2.794,0.155 5.586,0.378 8.372,0.686 0.821,0.091 1.087,0.984 0.8,1.524 0.03,0.131 0.015,0.275 -0.074,0.415 -2.222,3.527 -2.813,8.281 -3.997,12.263 -1.212,4.079 -2.434,8.154 -3.653,12.23 -1.182,3.949 -2.357,7.899 -3.536,11.849 C -6.966,16.068 -3.706,9.725 -2.08,3.617 -2.105,3.602 -2.13,3.595 -2.156,3.579 -2.286,3.5 -2.378,3.381 -2.435,3.247 -3.889,3.175 -5.276,2.158 -5.631,0.661 c -0.494,-2.086 1.222,-4.379 3.376,-4.453 2.103,-0.073 3.896,1.811 4.051,3.849 0.1,1.318 -0.877,3.18 -2.205,3.692" />
      </g>
      <path
         style="fill:#f5f5f5;stroke-width:0.239206"
         d="m 163.91259,138.4632 c -0.62493,-0.0579 -1.13623,-0.20204 -1.13623,-0.32039 0,-0.11836 0.85156,-3.21856 1.89235,-6.88935 2.33401,-8.23183 3.66021,-13.87785 4.63554,-19.73475 0.70693,-4.24515 0.77693,-4.49238 1.23701,-4.36877 0.26823,0.0721 0.83297,0.13249 1.25497,0.13429 0.74543,0.003 0.78184,0.0527 1.27789,1.7375 4.16783,14.15587 8.22557,27.51452 8.57024,28.21441 0.39436,0.80082 0.39943,0.90056 0.0532,1.04635 -0.43483,0.1831 -16.04615,0.34172 -17.78493,0.18071 z"
         id="path3216"
         inkscape:connector-curvature="0" />
      <path
         style="fill:#f5f5f5;stroke-width:0.239206"
         d="m 170.39236,105.47574 c -1.52502,-0.4694 -3.17155,-2.30183 -3.69919,-4.11684 -1.00553,-3.458923 0.34288,-7.281792 3.06181,-8.680451 1.20483,-0.619786 4.32263,-0.707509 5.37873,-0.151336 1.84154,0.969814 2.9518,3.23733 2.9518,6.028578 0,2.448029 -0.53223,4.009199 -1.8454,5.413089 -1.62299,1.7351 -3.51909,2.22372 -5.84775,1.50696 z"
         id="path3218"
         inkscape:connector-curvature="0" />
      <path
         style="fill:#f5f5f5;stroke-width:0.239206"
         d="m 155.24139,115.42048 c -0.41781,-0.46167 -0.41781,-0.49516 0,-0.95682 0.48937,-0.54075 1.08231,-0.61605 1.50699,-0.19137 0.40398,0.40398 0.35747,1.14819 -0.0718,1.14819 -0.19734,0 -0.35881,0.10764 -0.35881,0.2392 0,0.40351 -0.61933,0.26588 -1.07642,-0.2392 z"
         id="path3220"
         inkscape:connector-curvature="0" />
      <path
         style="fill:#f5f5f5;stroke-width:0.239206"
         d="m 174.58832,165.54547 c -0.35223,-0.91791 0.76652,-1.12626 2.00215,-0.37288 0.42758,0.2607 0.77742,0.5294 0.77742,0.59712 0,0.0677 -0.59541,0.12312 -1.32314,0.12312 -0.93606,0 -1.36213,-0.10162 -1.45643,-0.34736 z"
         id="path3224"
         inkscape:connector-curvature="0" />
      <path
         style="fill:#f5f5f5;stroke-width:0.239206"
         d="m 163.62847,165.51473 c -0.93695,-0.93694 0.89524,-1.1512 1.94521,-0.22748 l 0.67116,0.59046 -1.11914,0.008 c -0.70969,0.005 -1.25747,-0.13077 -1.49723,-0.37054 z"
         id="path3226"
         inkscape:connector-curvature="0" />
      <path
         style="fill:#f5f5f5;stroke-width:0.239206"
         d="m 182.87803,126.67886 c -0.33642,-0.6286 -0.31252,-0.87348 0.12827,-1.31427 0.87436,-0.87435 2.27251,-0.11586 1.72087,0.93356 -0.49868,0.94865 -1.44132,1.14273 -1.84914,0.38071 z"
         id="path3228"
         inkscape:connector-curvature="0" />
      <path
         style="fill:#f5f5f5;stroke-width:0.0964483"
         d="m 152.65808,104.64938 c -0.24249,-0.24249 -0.24282,-0.39276 -0.002,-0.69952 0.34839,-0.44291 0.9238,-0.40641 1.36874,0.0868 0.15192,0.16841 0.14507,0.19664 -0.11943,0.49212 -0.22824,0.25498 -0.35281,0.31345 -0.66774,0.31345 -0.25855,0 -0.45122,-0.0641 -0.58005,-0.19289 z"
         id="path3230"
         inkscape:connector-curvature="0" />
      <path
         style="fill:#f5f5f5;stroke-width:0.0964483"
         d="m 155.8891,104.05991 c -0.16901,-0.11072 -0.4006,-0.17477 -0.55685,-0.15399 -0.21483,0.0286 -0.27865,-0.009 -0.32409,-0.18987 -0.0907,-0.36147 0.19577,-0.70629 0.58681,-0.70629 0.42932,0 0.72814,0.36157 0.72814,0.88104 0,0.42144 -0.0307,0.43338 -0.43401,0.16911 z"
         id="path3232"
         inkscape:connector-curvature="0" />
      <path
         style="fill:#f5f5f5;stroke-width:0.0964483"
         d="m 156.45709,107.25544 c -0.29648,-0.1198 -0.34314,-0.34356 -0.11416,-0.54748 0.24231,-0.21578 0.46243,-0.71128 0.46243,-1.04094 0,-0.53497 0.90443,-0.34622 1.21454,0.25348 0.43718,0.84541 -0.59413,1.72634 -1.56281,1.33494 z"
         id="path3234"
         inkscape:connector-curvature="0" />
      <path
         style="fill:#f5f5f5;stroke-width:0.0964483"
         d="m 154.58705,107.73572 c -0.19192,-0.19192 -0.25854,-0.5288 -0.12056,-0.60974 0.0398,-0.0233 0.20848,-0.0217 0.37488,0.004 0.26907,0.041 0.30109,0.0797 0.28935,0.3502 -0.0204,0.47022 -0.23048,0.56908 -0.54367,0.25589 z"
         id="path3236"
         inkscape:connector-curvature="0" />
      <path
         style="fill:#f5f5f5;stroke-width:0.0964483"
         d="m 152.3902,107.29623 c -0.44634,-0.31263 -0.15815,-0.92752 0.60225,-1.28495 0.23931,-0.11249 0.45246,-0.20452 0.47366,-0.20452 0.0212,0 0.0644,0.14105 0.0959,0.31345 0.0855,0.46673 -0.15362,1.0587 -0.48472,1.20015 -0.36367,0.15538 -0.4344,0.1529 -0.68713,-0.0241 z"
         id="path3238"
         inkscape:connector-curvature="0" />
      <path
         style="fill:#fffafa;stroke-width:0.0964483"
         d="m 152.33778,107.15242 c -0.0961,-0.13718 -0.12125,-0.28147 -0.0722,-0.41402 0.0978,-0.26448 0.65719,-0.70933 0.99532,-0.79159 0.25904,-0.063 0.26514,-0.0547 0.26119,0.35584 -0.006,0.62893 -0.25219,1.00015 -0.68517,1.03336 -0.271,0.0208 -0.38546,-0.0213 -0.49912,-0.18359 z"
         id="path3246"
         inkscape:connector-curvature="0" />
      <path
         style="fill:#ffd700;stroke-width:0.0964483"
         d="m 154.60523,105.9959 c -0.26778,-0.24948 -0.29494,-0.84325 -0.0423,-0.92485 0.0928,-0.03 0.31305,-0.12628 0.48938,-0.21399 0.31685,-0.1576 0.32333,-0.1563 0.55457,0.11115 0.29662,0.34306 0.30085,0.7421 0.0108,1.01463 -0.2817,0.26464 -0.73608,0.2705 -1.01242,0.0131 z"
         id="path3248"
         inkscape:connector-curvature="0" />
    </g>
  </g>
  <g
     style="display:inline"
     inkscape:label="rbide"
     id="layer3"
     inkscape:groupmode="layer">
    <g
       style="opacity:1;stop-opacity:1"
       id="g2821"
       transform="matrix(0.35277777,0,0,-0.35277777,21.995055,59.137452)">
      <g
         transform="matrix(1.9561937,0,0,1.5134972,19.347145,-45.658191)"
         id="g3337">
        <path
           inkscape:connector-curvature="0"
           id="path2823"
           style="fill:#3c3c3b;fill-opacity:1;fill-rule:nonzero;stroke:none"
           d="m 0,0 c -0.289,-0.848 -1.406,-0.897 -2.151,-0.906 -0.284,-0.003 -1.184,0.014 -1.759,0.243 0.027,0.013 0.053,0.016 0.08,0.034 0.685,0.446 1.295,0.986 2.086,1.242 C -1.141,0.809 0.374,1.096 0,0 m -17.161,0.373 c 0.405,1.479 -0.538,2.895 -2.083,3.032 -1.3,0.115 -2.581,-0.611 -3.691,-1.392 1.621,6.481 1.633,14.22 0.82,20.656 2.054,-0.382 4.127,-0.631 6.176,-0.752 2.605,-0.153 6.107,-0.24 9.665,0.095 -0.32,-7.588 0.3636471,-16.4204439 0.8866471,-23.9714439 0,0 -18.6489891,0.7882942 -12.9251231,0.1996471 M -23.468,-0.312 c -0.032,0.037 -0.078,0.046 -0.12,0.065 0.01,0.031 0.021,0.061 0.031,0.092 h 0.002 c 0.857,0.103 1.448,0.546 2.147,1.029 0.553,0.383 2.023,1.436 2.595,0.508 1.027,-1.664 -3.745,-2.755 -4.655,-1.694 m -16.201,33.209 c 0.183,-0.039 0.388,-0.029 0.612,0.08 9.288,4.541 14.264,15.655 18.037,24.65 0.978,2.332 1.891,4.689 2.767,7.061 0.8,-1.434 1.823,-2.747 3.064,-3.859 0.147,-0.132 0.299,-0.186 0.448,-0.207 -0.233,-0.721 -0.245,-1.49 0.142,-2.258 0.759,-1.509 2.72,-2.315 4.269,-1.531 0.869,0.44 1.514,1.283 1.758,2.219 0.92,-0.229 1.581,1.014 1.656,1.776 0.053,0.546 -0.087,1.058 -0.341,1.516 0.322,0.074 0.625,0.166 0.913,0.274 0.308,-1.845 0.642,-3.68 1.001,-5.498 1.976,-9.994 5.121,-19.851 12.206,-27.401 -6.114,-5.904 -16.068,-6.361 -24.181,-5.638 -8.367,0.746 -15.668,3.903 -22.351,8.816 m 24.838,49.859 c -0.384,-1.729 -0.783,-3.449 -1.262,-5.126 -0.681,-2.386 -1.422,-4.756 -2.204,-7.111 -0.074,0.461 -0.124,0.933 -0.15,1.417 -0.168,3.216 0.947,8.267 3.616,10.82 m 3.413,-24.495 c -0.901,-0.167 -1.813,0.576 -1.93,1.462 -0.093,0.7 0.181,1.344 0.551,1.936 0.091,-0.075 0.205,-0.119 0.337,-0.107 0.856,0.081 1.84,-0.19 2.231,-1.039 0.419,-0.907 -0.222,-2.072 -1.189,-2.252 m 0.221,4.562 c 0.172,0.469 1.111,0.33 1.506,0.126 0.419,-0.217 0.83,-0.522 1.124,-0.895 0.278,-0.353 0.477,-0.816 0.345,-1.268 -0.055,-0.188 -0.163,-0.313 -0.282,-0.429 -0.036,0.208 -0.094,0.413 -0.179,0.613 -0.453,1.069 -1.442,1.731 -2.514,1.853 m 0.406,30.912 c 0.797,-0.147 1.645,-0.198 2.552,-0.108 0.174,0.017 0.334,0.053 0.503,0.077 -1.1,-9.844 -0.384,-20.003 1.187,-29.854 -0.357,-0.228 -0.749,-0.433 -1.187,-0.606 -0.057,-0.023 -0.1,-0.055 -0.142,-0.088 -0.1,0.1 -0.203,0.195 -0.311,0.284 -0.778,0.64 -1.909,1.226 -2.92,0.796 -0.511,-0.217 -0.862,-0.658 -0.969,-1.153 -0.143,0.217 -0.511,0.317 -0.752,0.123 -0.446,-0.361 -0.871,-0.8 -1.227,-1.283 -0.006,0.008 -0.007,0.017 -0.013,0.024 -1.327,1.667 -2.469,3.397 -3.261,5.278 0.957,2.723 1.855,5.467 2.671,8.236 1.707,5.795 3.855,12.18 3.869,18.274 m -0.012,20.07 c 0.094,-0.326 0.346,-0.599 0.748,-0.573 10.529,0.669 11.936,-16.693 1.556,-17.671 -10.251,-0.965 -8.56,14.068 -2.304,18.244 m -6.841,-9.483 c 0.048,0.922 0.042,1.847 0.047,2.77 0.004,0.81 0.009,1.621 0.023,2.432 0.003,0.406 0.011,0.812 0.026,1.218 -0.126,1.682 1.074,2.569 3.6,2.662 0,-0.003 0.002,-0.005 0.002,-0.008 -2.26,-2.279 -3.389,-6.187 -3.698,-9.074 M -4.73,65.692 c -0.642,4.884 -1.026,9.769 -1.281,14.669 1.508,-4.272 3.639,-10.809 1.281,-14.669 M 0.07340641,-1.9776952 C 0.10640641,-1.9306952 1.231,-1.084 1.262,-1.034 2.04,0.254 1.587,1.998 0.016,2.333 c -1.314,0.28 -3.001,-0.25 -4.054,-1.221 0.032,6.983 -0.226,14.111 -0.914,21.046 5.503,0.686 10.893,2.483 13.06,6.707 0.029,0.056 0.037,0.112 0.051,0.168 0.622,0.185 1.07,1.018 0.478,1.635 -7.483,7.812 -10.451,18.289 -12.382,28.672 -0.272,1.465 -0.513,2.93 -0.728,4.394 4.601,4.106 1.576,14.918 -0.944,19.165 -0.164,0.276 -0.457,0.357 -0.728,0.31 -0.157,3.57 -0.275,7.148 -0.404,10.745 9.231,2.566 8.8,17.694 0.967,20.587 0.129,0.127 0.211,0.311 0.175,0.548 -0.908,5.916 -4.789,12.229 -11.559,11.831 -2.522,-0.149 -4.975,-1.36 -6.698,-3.194 -2.406,-2.561 -2.925,-12.078 -7.265,-11.627 -0.985,0.102 -1.227,-1.607 -0.236,-1.744 3.722,-0.514 5.495,2.285 6.19,5.628 1.041,5.014 3.025,9.844 9.411,8.96 5.403,-0.748 7.407,-5.637 9.004,-10.12 -0.866,0.192 -1.806,0.251 -2.823,0.137 -0.033,0.167 -0.159,0.306 -0.396,0.304 -0.118,0 -0.227,-0.023 -0.342,-0.03 0.919,4.5 -3.729,8.415 -8.162,6.597 -2.552,-1.047 -3.908,-3.578 -4.308,-6.189 -0.161,-1.05 -0.148,-2.09 -0.074,-3.133 0.058,-1.481 0.091,-2.914 -0.179,-4.401 -0.209,-1.157 -0.57,-2.277 -0.859,-3.414 -2.284,-0.775 -3.562,-0.254 -3.799,1.604 -0.242,0.912 -1.47,0.638 -1.554,-0.21 -0.451,-4.567 5.649,-6.361 8.137,-2.681 1.295,1.916 0.76,4.356 0.475,6.484 -0.341,2.536 -1.109,7.336 1.455,9.2 3.693,2.685 7.446,-0.067 7.524,-4.106 -0.505,-0.164 -0.975,-0.399 -1.412,-0.691 -0.165,3.026 -4.256,3.131 -5.846,0.345 -1.424,-2.495 -0.701,-6.006 -0.745,-8.743 -0.111,-6.932 -5.233,-10.011 -11.173,-6.178 -0.619,0.399 -1.433,-0.401 -1.023,-1.022 2.504,-3.793 7.853,-4.216 11.235,-1.246 1.616,1.419 2.348,3.306 2.651,5.394 0.033,0.229 0.052,0.458 0.074,0.688 -0.086,-1.79 0.253,-3.515 0.947,-5.015 -0.103,-0.043 -0.2,-0.117 -0.274,-0.249 -2.595,-4.669 -6.968,-5.942 -11.657,-3.326 -0.68,0.38 -1.339,-0.497 -0.82,-1.063 4.082,-4.45 12.046,-2.35 13.415,3.44 0.451,-0.688 1.002,-1.293 1.62,-1.819 -1.208,-1.306 -2.08,-2.881 -3.424,-4.081 -1.689,-1.508 -3.479,-1.945 -5.694,-2.021 -0.7,-0.024 -1,-0.976 -0.364,-1.343 4.446,-2.566 9.139,2.832 10.405,6.778 0.532,-0.335 1.093,-0.631 1.714,-0.833 -1.187,-3.093 -1.924,-6.394 -2.649,-9.691 -3.641,-1.438 -5.392,-6.636 -5.734,-10.157 -0.226,-2.324 0.061,-4.676 0.81,-6.864 -0.695,-1.961 -1.414,-3.914 -2.182,-5.847 -4.241,-10.677 -9.011,-19.951 -18.348,-26.955 -0.44,-0.33 -0.478,-0.826 -0.282,-1.182 -0.044,0.033 -0.088,0.064 -0.132,0.097 -0.53,0.402 -1.07,-0.429 -0.676,-0.876 4.651,-5.285 11.206,-8.282 18.044,-9.691 -0.391,-3.777 -0.534,-7.568 -0.841,-11.354 -0.333,-4.115 -1.272,-8.237 -1.187,-12.356 0.002,-0.066 1.941439,-0.5417968 1.941439,-0.5417968"
           sodipodi:nodetypes="ccccccccccccccccccccccccccccccccccccccccccccccccccccccccccccccccccccccccccccccccccccccccccccccccccccscccccccccccccccccccccccccccccccccccccccccccccccccc" />
        <path
           style="fill:#f5f5f5;stroke-width:0.480899"
           d="m 61.37788,191.31373 c -10.91961,-1.2631 -19.60423,-4.29847 -27.724451,-9.68999 l -2.590135,-1.71975 2.459931,-1.40493 c 3.463473,-1.97807 8.925451,-7.57589 12.125498,-12.42707 3.158731,-4.78854 7.055184,-12.70836 10.610571,-21.56675 l 2.508315,-6.24957 2.138263,2.48237 c 1.176044,1.3653 2.163202,2.70842 2.193685,2.9847 0.03049,0.27628 0.08839,0.89137 0.128672,1.36687 0.123738,1.46047 2.445498,3.22311 4.245501,3.22311 2.266251,0 6.567829,-4.10612 6.567829,-6.2694 0,-2.59901 0.662155,-0.81507 1.523796,4.10535 2.529197,14.44301 7.113393,25.9789 13.780167,34.67705 l 2.442799,3.18713 -1.379368,1.12189 c -2.234373,1.81731 -7.026731,4.00011 -11.073358,5.04365 -3.678395,0.94857 -13.955257,1.59831 -17.957715,1.13534 z"
           id="path3315"
           inkscape:connector-curvature="0"
           transform="matrix(0.75000002,0,0,-0.75000002,-62.348189,167.63373)" />
        <path
           style="fill:#f5f5f5;stroke-width:0.480899"
           d="m 62.75798,138.09275 c -2.57954,-4.16644 -2.56875,-3.57836 -0.202858,-11.05637 3.445597,-10.8907 5.419302,-18.5908 6.050408,-23.60473 l 0.585494,-4.651554 1.503544,6.1e-5 1.503544,6.1e-5 0.02287,13.104442 c 0.01679,9.62166 0.240456,14.65989 0.841574,18.95702 1.048019,7.49183 1.042743,7.85305 -0.114711,7.85305 -0.513379,0 -1.052346,-0.19243 -1.197704,-0.42762 -0.732291,-1.18488 -2.804817,-1.01946 -5.126631,0.40916 -1.306074,0.80364 -2.425531,1.46077 -2.487681,1.4603 -0.06215,-4.7e-4 -0.682181,-0.92019 -1.377846,-2.04382 z"
           id="path3317"
           inkscape:connector-curvature="0"
           transform="matrix(0.75000002,0,0,-0.75000002,-62.348189,167.63373)" />
        <path
           style="fill:#f5f5f5;stroke-width:0.480899"
           d="m 66.695636,94.84411 c -3.119008,-1.625741 -4.123029,-3.848086 -4.087878,-9.048293 0.03335,-4.933448 1.29226,-8.580961 3.959519,-11.472131 l 1.783641,-1.933375 2.771388,0.410426 c 3.446321,0.51038 5.431511,1.644703 7.403706,4.230423 3.12035,4.091054 3.24599,10.534278 0.287287,14.733069 -2.651361,3.762632 -8.134241,5.156186 -12.117663,3.079881 z"
           id="path3319"
           inkscape:connector-curvature="0"
           transform="matrix(0.75000002,0,0,-0.75000002,-62.348189,167.63373)" />
        <path
           style="fill:#f5f5f5;stroke-width:0.480899"
           d="m 66.20884,144.73244 c -0.771094,-0.92911 -0.452734,-2.8658 0.500937,-3.04737 0.419845,-0.0799 1.26017,0.25696 1.867389,0.74865 0.942385,0.7631 1.021773,1.04771 0.542199,1.9438 -0.643209,1.20185 -2.063863,1.37509 -2.910525,0.35492 z"
           id="path3321"
           inkscape:connector-curvature="0"
           transform="matrix(0.75000002,0,0,-0.75000002,-62.348189,167.63373)" />
        <path
           style="fill:#f5f5f5;stroke-width:0.144301"
           d="m 71.633174,142.26348 c -0.263671,-0.88006 -1.465356,-2.03185 -2.466962,-2.36453 -0.702628,-0.23337 -0.753065,-0.27602 -0.473812,-0.40062 1.119859,-0.4997 3.419464,1.23564 3.419464,2.58041 0,0.78195 -0.268692,0.88565 -0.47869,0.18474 z"
           id="path3323"
           inkscape:connector-curvature="0"
           transform="matrix(0.75000002,0,0,-0.75000002,-62.348189,167.63373)" />
        <path
           style="fill:#f5f5f5;stroke-width:0.144301"
           d="m 52.645706,224.29049 c -0.15873,-0.045 -0.413452,-0.16919 -0.566048,-0.27593 -0.217038,-0.15182 -0.232747,-0.20811 -0.07215,-0.25855 0.112913,-0.0355 0.416186,-0.1317 0.673939,-0.21386 0.257753,-0.0822 1.071054,-0.53963 1.807336,-1.0166 1.660907,-1.07594 2.31321,-1.35757 2.864151,-1.23656 0.478473,0.10509 0.913744,0.78935 0.776729,1.22105 -0.142716,0.44965 -1.005747,1.10622 -1.900688,1.44599 -0.838067,0.31817 -2.946769,0.51499 -3.583269,0.33446 z"
           id="path3325"
           inkscape:connector-curvature="0"
           transform="matrix(0.75000002,0,0,-0.75000002,-62.348189,167.63373)" />
        <path
           style="fill:#f5f5f5;stroke-width:0.144301"
           d="m 78.908424,224.58037 c -0.743217,-0.12131 -0.693679,-0.27427 0.298083,-0.92043 1.589995,-1.03592 3.216081,-1.43742 3.732028,-0.92147 0.280031,0.28003 0.282248,0.40177 0.01666,0.91536 -0.311405,0.60219 -1.089501,0.90602 -2.445711,0.95501 -0.642489,0.0232 -1.362968,0.0104 -1.601064,-0.0285 z"
           id="path3327"
           inkscape:connector-curvature="0"
           transform="matrix(0.75000002,0,0,-0.75000002,-62.348189,167.63373)" />
      </g>
    </g>
  </g>
</svg>
