<?xml version="1.0" encoding="UTF-8" standalone="no"?>
<svg
   xmlns:dc="http://purl.org/dc/elements/1.1/"
   xmlns:cc="http://creativecommons.org/ns#"
   xmlns:rdf="http://www.w3.org/1999/02/22-rdf-syntax-ns#"
   xmlns:svg="http://www.w3.org/2000/svg"
   xmlns="http://www.w3.org/2000/svg"
   xmlns:sodipodi="http://sodipodi.sourceforge.net/DTD/sodipodi-0.dtd"
   xmlns:inkscape="http://www.inkscape.org/namespaces/inkscape"
   sodipodi:docname="fig1.svg"
   inkscape:version="1.0beta1 (32d4812, 2019-09-19)"
   id="svg3513"
   version="1.1"
   viewBox="0 0 74 105"
   height="105mm"
   width="74mm">
  <defs
     id="defs3507" />
  <sodipodi:namedview
     inkscape:window-maximized="0"
     inkscape:window-y="25"
     inkscape:window-x="0"
     inkscape:window-height="875"
     inkscape:window-width="1440"
     showborder="true"
     inkscape:pagecheckerboard="true"
     fit-margin-bottom="0"
     fit-margin-right="0"
     fit-margin-left="0"
     fit-margin-top="0"
     showgrid="false"
     inkscape:document-rotation="0"
     inkscape:current-layer="layer1"
     inkscape:document-units="mm"
     inkscape:cy="220.7503"
     inkscape:cx="250.1255"
     inkscape:zoom="2.8685187"
     inkscape:pageshadow="2"
     inkscape:pageopacity="0.0"
     borderopacity="1.0"
     bordercolor="#666666"
     pagecolor="#ffffff"
     id="base" />
  <metadata
     id="metadata3510">
    <rdf:RDF>
      <cc:Work
         rdf:about="">
        <dc:format>image/svg+xml</dc:format>
        <dc:type
           rdf:resource="http://purl.org/dc/dcmitype/StillImage" />
        <dc:title></dc:title>
      </cc:Work>
    </rdf:RDF>
  </metadata>
  <g
     transform="translate(-21.010707,-17.093706)"
     id="layer1"
     inkscape:groupmode="layer"
     inkscape:label="Layer 1">
    <g
       transform="matrix(0.35277777,0,0,-0.35277777,19.185761,307.48818)"
       id="g3645">
      <g
         transform="translate(124.037,649.3382)"
         id="g2925"
         style="opacity:1;stop-opacity:1">
        <path
           inkscape:connector-curvature="0"
           id="path2927"
           style="fill:#3c3c3b;fill-opacity:1;fill-rule:nonzero;stroke:none"
           d="m 0,0 c 2.303,8.737 4.34,17.686 5.831,26.714 5.199,2.5 9.237,7.032 8.988,13.084 -0.038,0.92 -1.451,1.199 -1.669,0.226 -1.127,-5.05 -3.556,-8.264 -6.857,-10.378 1.25,8.256 2.023,16.567 2.095,24.831 1.07,-0.412 2.288,-0.602 3.678,-0.483 1.321,0.114 2.493,0.472 3.531,1.013 C 18.351,45.169 22.044,35.493 25.303,25.81 28.237,17.092 30.55,7.324 34.752,-0.915 23.197,-0.246 11.574,-0.17 0,0 m 5.054,67.088 c 0.466,4.71 2.225,8.32 6.139,10.505 0.137,-0.144 0.332,-0.235 0.592,-0.216 10.586,0.77 10.483,-19.28 0.968,-21.181 C 6.333,54.913 4.58,62.305 5.054,67.088 M 17.136,-43.995 c 0.369,0.732 1.396,0.467 1.957,0.154 0.468,-0.262 0.826,-0.656 1.176,-1.056 -1.421,-0.149 -3.703,-0.226 -3.133,0.902 M 6.183,-44.079 c -0.336,0.07 -3.191,1.15 -1.523,1.635 0.621,0.181 1.888,-0.526 2.389,-0.788 0.542,-0.282 1.008,-0.668 1.496,-1.021 -0.792,-0.016 -1.586,0.012 -2.362,0.174 M -8.876,24.457 c -0.512,-0.61 -1.404,-0.799 -2.051,-0.29 0.578,0.494 0.833,1.211 1.651,1.448 0.238,0.069 0.868,0.146 0.931,-0.027 0.083,-0.229 -0.39,-0.964 -0.531,-1.131 M -11.207,-4.4 c 0.19,-0.368 0.494,-0.491 0.798,-0.473 0.331,-0.814 0.723,-1.607 1.166,-2.392 0.668,-1.181 1.448,-2.7 2.481,-3.778 -0.025,-0.026 -0.052,-0.046 -0.077,-0.075 -6.463,-7.503 -21.173,-6.869 -30.082,-5.34 -4.584,0.786 -9.201,2.088 -13.403,4.103 -2.102,1.008 -4.104,2.191 -5.935,3.633 -0.666,0.525 -3.101,2.369 -4.216,3.886 23.412,3.574 26.079,35.784 25.269,54.735 1.27,-0.527 2.764,-0.696 4.493,-0.386 0.558,0.1 1.081,0.27 1.587,0.471 0.667,-6.959 2.15,-14.002 4.186,-20.954 -2.41,1.984 -4.058,4.497 -5.5,7.346 -0.294,0.581 -1.141,0.163 -1.011,-0.427 0.852,-3.873 3.751,-7.499 7.408,-9.846 3.367,-10.659 7.956,-21.044 12.836,-30.503 m -27.014,68.846 c 0.901,4.571 2.884,8.074 7.003,10.131 0.238,-0.365 0.73,-0.601 1.181,-0.36 4.247,2.269 6.389,-10.406 6.221,-12.364 -0.409,-4.779 -3.988,-11.511 -9.673,-9.983 -5.501,1.479 -5.626,8.038 -4.732,12.576 m 23.782,-110.107 c -0.005,0.026 -0.011,0.053 -0.017,0.08 0.756,0.621 1.561,1.122 2.541,1.39 0.61,0.167 3.247,0.481 3.446,0.013 0.125,-0.293 -3.028,-1.774 -3.43,-1.91 -0.927,-0.311 -1.89,-0.339 -2.829,-0.49 0.227,0.211 0.37,0.52 0.289,0.917 m 5.973,86.63 c 0.393,0.714 1.334,0.735 1.63,-0.08 0.262,-0.72 -0.156,-1.347 -0.857,-1.545 -0.641,-0.18 -1.35,0.046 -1.58,0.712 -0.061,0.176 -0.083,0.353 -0.081,0.528 0.314,-0.099 0.667,-0.018 0.888,0.385 M 36.287,-1.359 c -1.589,9.623 -6.032,19.41 -9.186,28.617 -3.271,9.544 -6.167,19.35 -9.94,28.704 -0.01,0.023 -0.027,0.035 -0.037,0.057 7.78,6.342 5.175,25.058 -4.628,23.236 C 2.192,79.802 -0.711,60.189 7.085,55.141 7.017,55.042 6.963,54.929 6.947,54.787 5.938,45.845 4.882,36.993 3.526,28.197 0.599,26.956 -2.799,26.275 -6.476,25.818 c -0.077,0.791 -0.537,1.458 -1.572,1.662 -0.625,0.124 -1.474,0.001 -2.242,-0.315 -0.063,0.045 -0.135,0.08 -0.223,0.089 -1.392,0.136 -2.44,-0.936 -2.618,-2.175 -3.016,0.301 -5.765,0.616 -8.427,1.829 -1.458,4.93 -2.66,9.916 -3.884,14.899 5.035,0.404 9.699,-0.295 14.473,-1.877 0.022,-0.223 0.063,-0.442 0.135,-0.648 0.603,-1.736 2.7,-2.264 4.261,-1.509 1.078,0.522 1.673,1.598 1.666,2.693 1.682,0.429 3.356,0.877 5.073,1.15 1.585,0.253 3.249,0.112 4.726,0.754 0.655,0.285 0.355,1.177 -0.179,1.375 -1.546,0.573 -3.488,0.08 -5.063,-0.258 -1.699,-0.365 -3.331,-0.931 -4.875,-1.721 -0.088,0.175 -0.187,0.348 -0.315,0.509 -0.71,0.896 -1.981,1.175 -3.008,0.814 -0.102,0.044 -0.219,0.067 -0.352,0.043 -0.788,-0.144 -1.37,-0.69 -1.719,-1.376 -4.796,1.902 -10.032,2.228 -15.075,1.237 -0.015,-0.003 -0.023,-0.012 -0.037,-0.016 -0.636,2.579 -1.283,5.156 -1.981,7.722 4.379,2.764 6.329,9.319 5.843,14.065 -0.334,3.262 -3.786,13.834 -8.485,11.294 -0.042,0.008 -0.081,0.021 -0.13,0.02 -0.38,-0.006 -0.748,-0.042 -1.106,-0.1 2.414,5.756 -5.182,11.661 -10.341,11.972 -3.6,0.217 -7.035,-1.31 -9.672,-3.702 -1.505,-1.366 -2.573,-2.953 -3.652,-4.668 -2.239,-3.562 -4.5,-5.161 -8.592,-6.355 -0.948,-0.277 -0.798,-1.798 0.238,-1.761 5.903,0.211 8.241,4.502 11.268,8.819 3.281,4.679 8.996,7.811 14.551,4.662 2.05,-1.162 3.059,-2.758 3.79,-4.528 -1.967,3.203 -5.779,4.988 -10.04,3.964 -9.22,-2.215 -6.689,-15.594 -14.902,-19.074 -1.231,-0.521 -0.171,-2.338 1.056,-1.806 3.99,1.73 5.639,5.285 7.013,9.213 1.005,2.874 1.791,6.252 4.086,8.431 4.365,4.145 9.567,1.68 11.855,-2.632 -1.998,2.48 -5.777,3.38 -8.967,1.837 -8.944,-4.326 -3.277,-16.623 -10.741,-21.842 -1.056,-0.738 -0.157,-2.287 1.009,-1.727 3.572,1.719 4.975,5.299 5.544,9.043 0.482,3.171 0.224,6.684 1.958,9.524 2.761,4.522 9.653,4.921 11.148,-0.711 -0.256,-0.175 -0.501,-0.369 -0.741,-0.571 -2.077,2.408 -5.797,2.374 -7.786,-0.497 -3.943,-5.69 2.396,-16.636 -6.897,-18.378 -0.888,-0.166 -0.873,-1.601 0,-1.78 3.465,-0.707 6.256,1.999 7.251,5.208 0.71,2.29 0.467,4.723 0.394,7.076 -0.104,3.326 1.586,11.376 6.137,7.506 -5.498,-5.93 -5.657,-19.269 0.63,-22.904 -1.529,-18.516 -2.429,-49.334 -25.772,-53.049 -0.31,-0.049 -0.525,-0.219 -0.656,-0.446 -0.102,-0.123 -0.166,-0.276 -0.151,-0.435 0.002,-0.012 0.005,-0.025 0.006,-0.037 -0.027,-0.265 0.022,-0.543 0.141,-0.777 0.874,-3.505 4.984,-6.418 7.8,-8.191 5.1,-3.212 11.164,-5.113 17.07,-6.119 0.312,-0.053 0.642,-0.103 0.967,-0.154 0.077,-4.449 2.13,-9.271 3.001,-13.497 1.199,-5.815 1.492,-11.901 2.955,-17.628 0.216,-0.847 1.437,-0.648 1.499,0.176 0.662,0.324 1.199,0.848 1.904,1.122 0.458,0.179 2.864,0.767 2.953,-0.202 0.095,-1.025 -2.043,-1.095 -2.628,-1.177 -1.014,-0.143 -2.096,-0.158 -3.002,-0.658 -0.533,-0.294 -0.444,-1.206 0.175,-1.339 0.947,-0.203 1.879,0.046 2.827,0.19 0.859,0.13 1.767,0.211 2.567,0.574 1.09,0.496 1.999,1.664 1.646,2.923 -0.383,1.369 -1.974,1.665 -3.198,1.567 -0.791,-0.064 -1.576,-0.302 -2.277,-0.675 -0.165,-0.088 -0.574,-0.333 -0.952,-0.621 -0.089,4.578 -1.186,9.344 -2.089,13.757 -1.037,5.073 -3.047,10.171 -3.966,15.281 3.506,-0.481 7.588,-0.791 11.678,-0.615 1.839,-8.85 4.593,-17.791 7.184,-26.444 0.106,-0.352 0.334,-0.544 0.593,-0.629 -0.775,-0.265 -0.729,-1.316 0.024,-1.58 1.922,-0.673 4.507,0.32 6.198,1.269 1.155,0.648 3.834,2.286 2.658,3.915 -0.887,1.227 -3.363,1.045 -4.63,0.75 -1.213,-0.283 -2.37,-0.897 -3.277,-1.76 -1.736,8.246 -4.065,16.826 -7.381,24.557 6.664,0.471 13.148,2.325 16.893,6.931 0.195,0.241 0.272,0.504 0.269,0.758 0.226,0.125 0.377,0.37 0.279,0.658 -0.57,1.671 -2.06,3.055 -2.977,4.581 -0.845,1.405 -1.54,2.89 -2.352,4.311 -4.124,8.7 -7.825,17.503 -10.744,26.692 -0.02,0.062 -0.037,0.123 -0.056,0.185 2.565,-0.992 5.294,-1.337 7.857,-0.737 0.042,-0.098 0.087,-0.195 0.143,-0.29 1.077,-1.84 3.683,-1.958 5.15,-0.574 0.501,0.473 0.905,1.174 1.09,1.891 3.032,-0.507 6.471,-0.18 9.695,0.875 -1.426,-8.839 -3.18,-17.625 -5.535,-26.392 -0.182,-0.679 0.336,-1.342 1.032,-1.354 4.165,-0.069 8.33,-0.187 12.494,-0.312 -0.042,-13.463 -0.464,-26.616 -2.228,-39.956 -1.988,1.476 -5.312,2.677 -6.25,0.436 -0.554,-1.322 0.302,-2.607 1.481,-3.179 1.492,-0.723 3.362,-0.724 4.922,-0.21 0.482,-0.344 1.22,-0.285 1.347,0.458 2.37,13.854 3.41,28.397 1.981,42.413 4.903,-0.15 9.806,-0.305 14.709,-0.424 -3.095,-13.071 -4.524,-26.942 -5.848,-40.352 -0.716,0.727 -1.593,1.3 -2.586,1.473 -1.365,0.239 -2.798,-0.375 -3.26,-1.744 -0.429,-1.273 0.183,-2.549 1.464,-2.977 1.317,-0.44 2.899,-0.254 4.158,0.373 0.203,-0.881 1.81,-1.028 1.949,0 1.925,14.256 4.348,28.829 5.079,43.204 2.493,-0.058 4.986,-0.108 7.479,-0.135 0.999,-0.011 1.245,1.08 0.778,1.693" />
      </g>
      <g
         transform="translate(109.455,704.8135)"
         id="g2929"
         style="opacity:1;stop-opacity:1">
        <path
           inkscape:connector-curvature="0"
           id="path2931"
           style="fill:#e20613;fill-opacity:1;fill-rule:nonzero;stroke:none"
           d="M 0,0 C 0.299,-0.01 0.57,-0.125 0.82,-0.294 0.748,-0.33 0.676,-0.364 0.604,-0.413 c -0.339,0.15 -0.7,0.264 -1.079,0.346 C -0.338,-0.022 -0.185,0.007 0,0 M 4.898,3.116 C 3.616,4.063 1.489,4.565 0.368,3.097 0.103,2.75 -0.043,2.349 -0.095,1.946 c -0.076,0.01 -0.143,0.036 -0.223,0.04 -1.769,0.1 -2.942,-1.453 -2.909,-3.12 0.069,-3.368 5.427,-5.985 8.3,-4.593 3.48,1.687 2.448,6.906 -0.175,8.843" />
      </g>
      <g
         transform="translate(123.1347,724.4781)"
         id="g2933"
         style="opacity:1;stop-opacity:1">
        <path
           inkscape:connector-curvature="0"
           id="path2935"
           style="fill:#e20613;fill-opacity:1;fill-rule:nonzero;stroke:none"
           d="m 0,0 c -0.568,3.361 -3.455,2.577 -5.17,0.69 -0.009,0.872 -0.239,1.644 -1.458,2.097 -1.629,0.606 -3.399,-0.429 -4.354,-1.709 -2.587,-3.465 -0.749,-9.397 3.903,-9.834 C -3.129,-9.128 0.609,-3.608 0,0" />
      </g>
      <g
         transform="translate(105.895,736.1487)"
         id="g2937"
         style="opacity:1;stop-opacity:1">
        <path
           inkscape:connector-curvature="0"
           id="path2939"
           style="fill:#e20613;fill-opacity:1;fill-rule:nonzero;stroke:none"
           d="M 0,0 C -0.847,0.949 -2.479,1.822 -3.643,0.897 -3.94,0.662 -4.13,0.339 -4.248,-0.017 -4.43,0.095 -4.625,0.194 -4.847,0.256 -6.138,0.622 -7.309,-0.228 -7.775,-1.393 -9.04,-4.564 -5.667,-7.761 -2.539,-7.134 0.691,-6.486 2.26,-2.533 0,0" />
      </g>
      <g
         transform="translate(121.2895,751.3328)"
         id="g2941"
         style="opacity:1;stop-opacity:1">
        <path
           inkscape:connector-curvature="0"
           id="path2943"
           style="fill:#e20613;fill-opacity:1;fill-rule:nonzero;stroke:none"
           d="M 0,0 C -0.974,-0.031 -1.77,-0.562 -2.352,-1.291 -2.538,-0.936 -2.8,-0.61 -3.164,-0.332 -4.369,0.586 -6.03,0.336 -6.778,-1.025 -8.47,-4.105 -7.259,-8.25 -3.552,-8.752 -0.047,-9.226 2.532,-5.85 2.531,-2.585 2.531,-1.097 1.542,0.049 0,0" />
      </g>
    </g>
    <path
       transform="matrix(0.26458333,0,0,0.26458333,21.010707,17.093706)"
       inkscape:connector-curvature="0"
       id="path3692"
       d="m 110.30251,159.20625 c -2.6087,-3.31643 -3.15932,-11.52966 -1.13257,-16.89389 1.69752,-4.49285 6.65168,-9.33381 9.55207,-9.33381 4.22743,0 8.56191,12.43781 6.79201,19.48968 -0.3848,1.53316 -2.00752,4.34189 -3.60604,6.24163 -3.75045,4.45715 -8.33566,4.65327 -11.60547,0.49639 z"
       style="fill:#f5f5f5;stroke-width:1.12251" />
    <path
       transform="matrix(0.26458333,0,0,0.26458333,21.010707,17.093706)"
       inkscape:connector-curvature="0"
       id="path3694"
       d="m 105.16973,252.08674 c -9.853595,-2.45545 -16.880397,-5.58913 -21.737793,-9.6942 l -3.777567,-3.19249 5.598164,-2.47062 c 14.883856,-6.56866 23.099826,-21.56185 26.097656,-47.62518 0.6036,-5.24775 1.1016,-12.41232 1.10667,-15.92127 0.009,-6.1228 0.1336,-6.3942 3.09612,-6.73508 3.06796,-0.35301 3.10146,-0.28281 5.45524,11.43121 1.30258,6.48252 2.24418,11.93925 2.09244,12.12607 -0.15173,0.18682 -1.38496,-1.45486 -2.7405,-3.64817 -2.44499,-3.95607 -4.52655,-5.19001 -4.52655,-2.68332 0,2.22277 5.57187,10.94236 7.73043,12.09758 1.14756,0.61416 3.40924,4.9401 5.14592,9.84265 3.80115,10.73043 11.71203,27.82826 16.40329,35.45253 l 3.49091,5.67345 -2.63448,2.04858 c -7.06775,5.49592 -25.8785,7.01658 -40.79995,3.29826 z"
       style="fill:#f5f5f5;stroke-width:1.12251" />
    <path
       transform="matrix(0.26458333,0,0,0.26458333,21.010707,17.093706)"
       inkscape:connector-curvature="0"
       id="path3696"
       d="m 169.2273,154.38838 c -6.33786,-7.00326 -2.62962,-23.62101 5.48559,-24.58259 9.35444,-1.10841 12.99237,15.66235 5.10782,23.54691 -3.71288,3.71287 -7.80824,4.11327 -10.59341,1.03568 z"
       style="fill:#f5f5f5;stroke-width:1.12251" />
    <path
       transform="matrix(0.26458333,0,0,0.26458333,21.010707,17.093706)"
       inkscape:connector-curvature="0"
       id="path3698"
       d="m 181.22005,232.01617 c -14.30421,-0.20181 -21.60839,-0.70775 -21.60839,-1.49674 0,-0.65554 0.9742,-5.06453 2.1649,-9.79776 1.19069,-4.73324 2.78629,-11.88924 3.54577,-15.90222 1.18641,-6.26885 1.99222,-7.82596 5.72213,-11.05718 5.15543,-4.46615 7.64994,-8.89513 7.64994,-13.58239 0,-4.88359 -2.7377,-4.33945 -4.2935,0.85337 -0.70472,2.35215 -2.63353,5.50922 -4.28623,7.01571 -2.47375,2.25489 -2.87096,2.36788 -2.24714,0.63917 0.41677,-1.15493 1.08177,-8.12567 1.47777,-15.49053 l 0.72001,-13.39065 4.47782,0.3366 4.47782,0.33659 12.07255,35.92045 c 6.6399,19.75625 11.99658,35.92045 11.90375,35.92045 -0.0928,0 -9.89258,-0.13719 -21.7772,-0.30487 z"
       style="fill:#f5f5f5;stroke-width:1.12251" />
    <path
       transform="matrix(0.26458333,0,0,0.26458333,21.010707,17.093706)"
       inkscape:connector-curvature="0"
       id="path3700"
       d="m 146.47689,178.69756 c -0.25536,-0.41318 1.19377,-2.06652 1.81916,-2.07552 0.66773,-0.01 1.1368,1.1109 0.75987,1.81519 -0.36221,0.6768 -2.20658,0.86297 -2.57903,0.26033 z"
       style="fill:#f5f5f5;stroke-width:0.348612" />
    <path
       transform="matrix(0.26458333,0,0,0.26458333,21.010707,17.093706)"
       inkscape:connector-curvature="0"
       id="path3702"
       d="m 144.88355,198.78572 c 0.91235,-0.97115 2.12252,-1.3996 2.12252,-0.75146 0,0.68425 -1.19223,1.59015 -2.09273,1.59015 h -0.8177 z"
       style="fill:#f5f5f5;stroke-width:0.348612" />
    <path
       transform="matrix(0.26458333,0,0,0.26458333,21.010707,17.093706)"
       inkscape:connector-curvature="0"
       id="path3704"
       d="m 139.33661,293.18667 c 0,-0.26013 0.62767,-0.88834 1.39482,-1.39601 1.1037,-0.7304 1.92227,-0.95228 3.92189,-1.06306 l 2.52706,-0.14 -2.37117,1.24631 c -2.72661,1.43314 -5.4726,2.11191 -5.4726,1.35276 z"
       style="fill:#f5f5f5;stroke-width:0.348612" />
    <path
       transform="matrix(0.26458333,0,0,0.26458333,21.010707,17.093706)"
       inkscape:connector-curvature="0"
       id="path3706"
       d="m 166.35404,290.1892 c -1.7476,-0.61477 -2.62102,-1.66873 -1.38286,-1.66873 0.57701,0 3.99745,1.64563 3.99745,1.92324 0,0.28205 -1.50603,0.13545 -2.61459,-0.25451 z"
       style="fill:#f5f5f5;stroke-width:0.348612" />
    <path
       transform="matrix(0.26458333,0,0,0.26458333,21.010707,17.093706)"
       inkscape:connector-curvature="0"
       id="path3708"
       d="m 182.10883,291.41384 c -0.36403,-0.0943 -0.57901,-0.4084 -0.50926,-0.74394 0.16746,-0.80553 1.9395,-0.63257 2.85028,0.27821 l 0.70987,0.70987 -1.21046,-0.0404 c -0.66575,-0.0222 -1.49395,-0.11391 -1.84043,-0.2037 z"
       style="fill:#f5f5f5;stroke-width:0.348612" />
    <path
       transform="matrix(0.26458333,0,0,0.26458333,21.010707,17.093706)"
       inkscape:connector-curvature="0"
       id="path3710"
       d=""
       style="fill:#f5f5f5;stroke-width:0.348612" />
    <path
       transform="matrix(0.26458333,0,0,0.26458333,21.010707,17.093706)"
       inkscape:connector-curvature="0"
       id="path3712"
       d="m 119.98864,298.35629 c 0.19174,-0.19359 0.97379,-0.68178 1.7379,-1.08486 2.29095,-1.20853 5.54183,-0.80716 3.58954,0.44318 -0.93317,0.59765 -5.87315,1.19266 -5.32744,0.64168 z"
       style="fill:#f5f5f5;stroke-width:0.348612" />
  </g>
</svg>
