<?xml version="1.0" encoding="UTF-8"?>
<svg width="28.037mm" height="62.546mm" version="1.1" viewBox="0 0 28.037 62.546" xmlns="http://www.w3.org/2000/svg" xmlns:cc="http://creativecommons.org/ns#" xmlns:dc="http://purl.org/dc/elements/1.1/" xmlns:rdf="http://www.w3.org/1999/02/22-rdf-syntax-ns#">
 <metadata>
  <rdf:RDF>
   <cc:Work rdf:about="">
    <dc:format>image/svg+xml</dc:format>
    <dc:type rdf:resource="http://purl.org/dc/dcmitype/StillImage"/>
    <dc:title/>
   </cc:Work>
  </rdf:RDF>
 </metadata>
 <g transform="translate(-86.523 -109.33)">
  <g transform="matrix(.35278 0 0 -.35278 106.48 146.68)">
   <path d="m0 0c-0.359-0.19-0.975 0.073-1.262 0.356-0.568 0.558-0.788 1.515-0.181 2.126 0.433 0.437 1.273 0.662 1.729 0.14 0.416-0.476 0.38-1.344-0.15-1.718-0.357-0.252-0.339-0.653-0.136-0.904m0.047-35.147c-3.677 0.184-7.329 0.907-10.812 2.095-1.771 0.604-9.305 2.929-9.586 5.425 0.25-5e-3 0.507 0.094 0.695 0.371 1.435 2.114 2.753 4.337 3.99 6.619 0.317 0.109 0.444 0.438 0.408 0.767 2.457 4.635 4.545 9.515 6.408 14.366 3.698-0.491 7.539 0.028 10.939 1.699 0.494 0.243 0.147 1.024-0.37 0.878-3.578-1.011-6.864-1.281-9.914-0.854 0.136 0.366 0.283 0.733 0.417 1.097 2.982 8.116 5.469 16.614 6.408 25.241 0.569-0.238 1.184-0.43 1.86-0.551 1.26-0.225 2.434-0.204 3.522 4e-3 -0.265-6.436 0.208-12.902 1.313-19.257-0.98-0.553-2.151-0.816-3.368-1.041 0.065 0.727-0.159 1.491-0.685 2.018-1.26 1.26-3.456 0.623-4.268-0.825-0.926-1.651 0.221-3.914 1.984-4.41 0.737-0.208 1.63-8e-3 2.191 0.524 0.3 0.284 0.463 0.639 0.464 0.985 1.349-0.45 2.806-0.137 4.088 0.594 0.69-3.491 1.555-6.946 2.619-10.334 2.252-7.169 5.658-14.312 12.666-17.825 0.109-0.054 0.215-0.077 0.319-0.087-2.774-6.626-15.351-7.795-21.288-7.499m-15.14-28.373c-1.266-0.673-0.606 1.966-0.478 2.433 0.24 0.882 0.596 1.733 1.052 2.525 0.114-0.636 0.277-1.258 0.266-1.928-0.01-0.564-0.2-2.69-0.84-3.03m-6.502 68.498c-0.959-0.625-1.819-0.186-2.235 0.582 0.575 0.583 1.104 1.468 2.065 1.295 1.066-0.192 0.933-1.38 0.17-1.877m-13.172-22.879c5e-3 0.011 0.015 0.016 0.02 0.029 6.399 14.451 11.359 31.93 10.961 47.907 1.509-0.953 3.344-1.434 5.426-1.196 1.824 0.208 3.332 0.81 4.561 1.674-0.046-1.918-0.048-3.965 0.035-6.059-0.26-0.109-0.336-0.57-0.044-0.699 0.025-0.012 0.049-0.024 0.074-0.035 0.336-6.79 1.648-13.989 5.533-18.945 0.218-0.279 0.488-0.279 0.708-0.149-0.616-2.008-1.273-4.007-1.991-5.991-0.245-0.678-0.52-1.335-0.778-2.004-4.041 1.029-7.653 3.378-10.967 6.948 0.32 0.14 0.619 0.331 0.872 0.574 1.185 1.143 1.077 3.141-0.489 3.866-1.024 0.475-2.202 0.174-3.053-0.524 0.079 0.208-0.152 0.383-0.33 0.233-1.09-0.917-1.083-2.62-0.11-3.642 0.48-0.503 1.121-0.736 1.777-0.759 2.543-4.385 6.855-7.281 11.625-8.436-1.912-4.721-4.094-9.264-6.357-13.794-5.786 0.741-11.641 1.253-17.473 1.002m8.521 56.745c0.031 2.207 1.757 10.157 4.513 10.86 0.085-0.025 0.179-0.04 0.29-0.027 10.283 1.156 14.774-15.052 4.71-18.592-5.385-1.894-9.587 2.56-9.513 7.759m21.215-25.465c-0.681-2.576-1.383-5.145-2.148-7.698-1.46 3.427-2.653 6.647-3.455 10.126 0.831-0.373 1.822-0.513 2.662-0.845 1.049-0.414 2.017-0.949 2.941-1.583m1.283 4.911c-0.326-1.26-0.653-2.519-0.983-3.777-1.643 1.44-4.132 3.045-6.181 2.624-0.153 0.772-0.294 1.553-0.407 2.36-0.152 1.087-0.275 2.181-0.394 3.275 2.758-1.332 5.345-2.799 7.965-4.482m-0.77 15.245c0.687 4.513 3.398 7.896 7.697 8.589 0.148-0.079 0.3-0.036 0.411 0.066 6e-3 0 0.012 2e-3 0.018 2e-3 0.076-0.151 0.222-0.268 0.455-0.303 10.826-1.629 7.664-19.553-2.725-18.219-4.965 0.637-6.527 5.459-5.856 9.865m12.04-28.089c-0.151-0.438-0.34-0.815-0.555-1.151-0.444 2.673-0.791 5.359-1.066 8.057 1.516-1.953 2.467-4.451 1.621-6.906m-1.593-70.613c0.546-0.134 1.032-0.509 1.435-0.884 0.727-0.678 1.771-1.972 1.448-3.048-0.491-1.639-2.115-0.327-2.657 0.517-0.641 0.999-0.902 2.255-0.969 3.433 0.244 0.023 0.486 0.045 0.743-0.018m-13.445 1.292c-0.372-1.348-0.725-2.659-1.357-3.918-0.293-0.584-0.609-1.263-1.085-1.723-0.834-0.809-1.065 0.222-1 0.91 0.115 1.228 0.705 2.358 1.57 3.224 0.352 0.352 0.866 0.606 1.18 0.978 0.174 0.205 0.167 0.427 0.323 0.627 0.143-0.025 0.293-0.021 0.434 0.032-0.024-0.041-0.052-0.079-0.065-0.13m-26.271 115.08c0.049 0.091 0.057 0.181 0.039 0.262 0.287 0.56 0.717 1.018 1.43 1.256 1.131 0.38 2.204-0.198 2.69-1.246 0.433-0.932 0.384-2.313-0.626-2.879-0.996-0.558-4.242 1.295-3.533 2.607m-1.774 26.126c0.537 0.322 1.015 0.744 1.381 1.26 0.203 0.287 0.06 0.76-0.24 0.917-0.789 0.415-1.578 0.831-2.366 1.246 0.91 1.07 1.686 2.247 2.322 3.486 0.302-2.188 2.457-4.278 4.678-5.473-0.65-0.796-1.232-1.674-1.766-2.51-0.256-0.403-0.015-1.023 0.459-1.127 0.689-0.151 1.385-0.252 2.082-0.311-2.231-6.415-2.983-13.939-3.299-20.675-0.171-0.039-0.342-0.089-0.512-0.152 0.014 0.035 0.028 0.07 0.033 0.113 0.88 7.749-0.687 15.776-2.772 23.226m-1.907 0.347c2e-3 0.24-1e-3 0.48 0.022 0.712 0.037 0.369 0.105 0.727 0.188 1.084 0.487-0.253 0.973-0.506 1.46-0.759-0.463-0.492-1.015-0.841-1.67-1.037m-0.781 3.829c-0.237-0.273-0.245-0.587-0.136-0.85-5.652-1.754-11.337 0.455-14.408 5.55-3.27 5.425-2.658 12.95 3.512 15.888 5.06 2.41 10.827 0.019 13.55-4.726 3.026-5.274 1.257-11.514-2.518-15.862m3.954 16.53c4.876 10.293 18.508 6.407 18.352-4.697-0.046-3.306-0.79-7.338-2.687-10.09-2.042-2.961-5.226-4.334-8.745-3.764-0.322 0.052-0.668 0.154-1.023 0.295-0.062 0.082-0.158 0.13-0.263 0.115-2.548 1.133-5.448 4.226-4.272 6.935 0.102 0.237-0.069 0.514-0.281 0.554 0.997 3.522 0.787 7.296-1.098 10.63 5e-3 9e-3 0.013 0.013 0.017 0.022m4.515-21.575c0.298 0.624 0.612 1.24 0.912 1.862 0.366-0.154 0.724-0.278 1.072-0.374-0.084-0.507 0.025-1.073 0.21-1.605-0.735-0.017-1.465 0.02-2.194 0.117m52.678-103.5c0.112 0.53-0.371 0.85-0.773 0.781-0.064 0.07-0.135 0.137-0.237 0.19-7.632 3.918-10.597 12.312-12.707 20.107-0.704 2.598-1.284 5.214-1.779 7.841 0.732 0.728 1.317 1.575 1.653 2.427 1.363 3.458-0.17 7.319-3.011 9.488-0.098 0.075-0.195 0.095-0.288 0.091-0.255 2.804-0.441 5.618-0.558 8.442 0.15 0.051 0.289 0.122 0.435 0.181-3e-3 -4.141 3.335-8.358 7.679-8.312 0.83 9e-3 1.005 1.222 0.196 1.451-3.632 1.026-6.38 3.589-6.76 7.406 0.775 0.451 1.486 1 2.113 1.645-0.045-2.066 0.712-4.026 2.115-5.639 1.569-1.803 4.432-3.464 6.884-2.765 0.704 0.2 0.736 1.273 0 1.457-2.127 0.533-3.79 0.785-5.43 2.414-1.554 1.545-2.381 3.627-2.318 5.812 2e-3 0.081-0.014 0.153-0.041 0.218 0.553 0.812 1.023 1.693 1.38 2.626-0.207-2.683 0.675-5.565 3.165-6.892 2.284-1.218 5.627-0.814 6.646 1.812 0.274 0.707-0.779 1.279-1.264 0.736-1.301-1.461-3.383-1.819-5.01-0.592-1.93 1.455-2.221 4.203-2.414 6.418-0.026 0.294-0.304 0.467-0.545 0.436 1.204 5.434-0.909 11.531-7.584 12.535-0.077 0.011-0.143-2e-3 -0.212-0.01-0.307 0.088-0.61 0.154-0.908 0.201 0.22 0.833 2.546 1.345 2.829 1.384 0.883 0.124 1.749 0.047 2.606-0.189 1.713-0.472 3.326-1.606 4.3-3.101 1.797-2.757 1.539-5.791 0.939-8.797-0.567-1.042-0.782-2.14-0.335-3.396 0.461-1.292 1.556-2.396 2.894-2.758 2.286-0.62 6.264 2.175 4.33 4.618-0.314 0.397-0.911 0.121-1.046-0.276-0.283-0.834-0.187-1.536-0.923-2.174-0.701-0.609-1.624-0.767-2.452-0.3-1.004 0.567-1.378 1.505-1.477 2.523 2.524 5.145 1.026 12.367-4.538 14.775-2.13 0.922-4.824 1.094-6.855-0.202-0.855-0.545-1.386-1.293-1.352-2.033-0.981-4e-3 -1.899-0.236-2.747-0.638 2.218 4.869 7.192 7.415 12.59 5.354 5.697-2.176 7.142-7.405 7.85-12.879 0.095-0.736 1.256-1.082 1.433-0.194 1.384 6.971-3.577 14.193-10.503 15.603-6.172 1.256-12.494-2.728-13.191-9.108-4.84-4.305-6.064-14.878-0.164-18.555-0.305-1.151-0.603-2.302-0.901-3.452-2.305 2.171-5.363 3.772-8.475 4.49-0.256 2.369-0.532 4.736-1.062 7.056 6.618 6.065 2.608 21.2-8.518 19.994-0.432-0.047-0.663-0.378-0.711-0.721-3.254 0.525-5.942-9.545-5.994-11.645-0.082-3.353 1.318-6.502 3.717-8.358-0.42-2.199-0.793-4.404-1.154-6.61-6.944 6.621-6.803 14.485-6.602 23.433 0.179-0.091 0.351-0.167 0.504-0.215 2.247-0.708 4.016 1.478 3.769 3.595-0.197 1.691-1.478 3.198-3.136 3.478 1.226 6.83 1.277 13.822 2.806 20.608 0.606-0.018 1.215-9e-3 1.824 0.058 0.588 0.065 0.985 0.619 0.679 1.183-0.248 0.455-0.42 0.916-0.514 1.428-0.018 0.096-0.031 0.184-0.044 0.272 6.857-0.55 10.544 5.914 11.509 11.971 0.955 5.994-0.246 12.483-6.301 15.217-5.585 2.522-11.625-0.191-14.196-5.424-3.714 4.924-10.35 6.773-15.821 3.545-12.836-7.573-0.692-29.172 12.53-23.348-0.22-1.056-0.364-2.279 0.052-3.134 0.208-0.426 0.797-0.257 0.932 0.122v2e-3c0.297 0.024 0.588 0.082 0.874 0.162 1.898-7.519 2.354-15.048 3.165-22.729 0.018-0.176 0.115-0.287 0.234-0.337-1.379-0.738-2.46-2.264-2.019-3.796 0.091-0.316 0.44-0.459 0.726-0.395 0.215-0.41 0.543-0.805 0.912-1.161-0.051-0.022-0.095-0.061-0.1-0.136-0.695-10.806-2.997-20.54-6.019-30.867-0.226-0.772 0.978-1.324 1.331-0.561 2.347 5.08 3.856 10.706 4.63 16.427 0.019-0.729 0.036-1.456 0.048-2.182 0.094-5.689-0.148-11.519 0.479-17.175 0.078-0.706 1.064-0.728 1.116 0 0.395 5.469 0.012 11.059-0.161 16.559 1.25-3.202 3.314-5.966 6.518-7.766 0.027-0.015 0.054-0.017 0.081-0.027-0.878-5.42-1.714-10.843-2.997-16.204-1.942-8.116-4.684-15.86-7.611-23.66-0.124-0.329-4e-3 -0.622 0.213-0.829-0.439-0.216-0.351-0.939 0.232-0.998 2.801-0.285 5.606-0.502 8.412-0.712-1.397-12.378-1.965-25.073-2.234-37.523-6e-3 -0.253 0.097-0.429 0.243-0.542-5e-3 -0.111 0.023-0.229 0.116-0.351 0.681-0.888 1.053-1.593 0.991-2.737-0.027-0.488-0.117-0.966-0.232-1.44-0.212-0.872-0.123-1.137-1.097-1.244-0.668-0.319-1.006-0.106-1.014 0.64-0.097 0.422-0.146 0.848-0.148 1.279-0.013 0.602 0.055 1.22 0.176 1.807 0.202 0.977 0.742 1.858 0.805 2.855 4e-3 0.064-0.073 0.127-0.135 0.103-2.934-1.148-3.633-9.272 0.556-8.929 1.834 0.149 2.305 2.434 2.526 3.894 0.231 1.537 0.146 3.709-1.393 4.549 9e-3 0.04 0.029 0.072 0.033 0.116 1.052 12.375 1.841 25.025 1.767 37.449 2.831-0.211 5.663-0.419 8.49-0.684-0.992-1.977-1.992-3.957-2.983-5.955-0.198-0.398-0.075-0.753 0.168-0.975-4e-3 -5e-3 -0.01-5e-3 -0.013-0.011-1.553-2.307 1.662-4.412 5.93-6.046-0.459-8.063-0.526-16.338-0.216-24.4 4e-3 -0.11 0.028-0.205 0.066-0.288-1.146-1.153-1.956-2.533-2.206-4.192-0.195-1.293 0.278-2.845 1.793-3.001 1.572-0.161 2.217 1.792 2.486 3.001 0.342 1.542 0.368 3.59-0.647 4.888-0.018 0.022-0.041 0.035-0.061 0.053 0.45 7.782 0.344 15.842-0.334 23.612 2.829-1.009 5.992-1.817 8.497-2.349-2.528-8.424-2.627-18.203-2.845-26.94-2e-3 -0.097 0.019-0.176 0.043-0.253-0.141 0.048-0.281 0.088-0.46 0.055-0.409-0.077-0.839-0.408-1.161-0.649-0.621-0.467-1.138-1.071-1.542-1.733-0.809-1.321-1.524-3.649-0.536-5.05 0.986-1.398 2.653-0.541 3.491 0.541 1.279 1.651 2.019 4.095 2.199 6.146 0.038 0.425-0.383 0.609-0.722 0.516 0.094 0.112 0.168 0.248 0.183 0.427 0.741 8.727 2.299 18.097 1.817 26.842 1.771-0.364 3.16-0.579 3.769-0.615 1.087-0.063 2.349-0.089 3.71-0.059-0.154-9.37 0.286-19.011 1.292-28.324 0.05-0.462 0.42-0.706 0.778-0.714-6e-3 -1.715 0.462-3.533 1.819-4.634 1.24-1.005 3.02-0.842 3.739 0.682 0.787 1.668-0.335 3.539-1.49 4.72-0.753 0.77-2.225 1.724-3.381 1.489-0.108 8.9-0.754 18.003-1.896 26.808 7.721 0.3 18.124 2.453 19.691 9.846" fill="#3c3c3b"/>
  </g>
  <g transform="matrix(.35278 0 0 -.35278 108.6 124.72)">
   <path d="m0 0c-0.84 1.981-2.725 3.095-4.859 2.571-1.851-0.454-3.017-1.896-3.549-3.588-1.958 0.922-4.957 0.763-6.227-0.941-3.561-4.778 4.244-9.504 8.269-9.411 5.247 0.123 8.257 6.908 6.366 11.369" fill="#e20613"/>
  </g>
  <g transform="matrix(.35278 0 0 -.35278 105.4 119.18)">
   <path d="m0 0c-1.252 3.377-5.627 3.22-7.109 0.634-1.502 2.007-4.928 2.228-6.69-0.111-2.925-3.885 0.643-8.616 4.906-8.97 4.187-0.348 10.734 3.48 8.893 8.447" fill="#e20613"/>
  </g>
  <g transform="matrix(.35278 0 0 -.35278 113.53 113.28)">
   <path d="m0 0c-1.348 6.437-7.574 5.344-10.622 1.198-0.434 4.491-6.447 5.049-8.999 1.017-4.041-6.383 0.814-12.259 7.37-12.875 5.937-0.559 13.715 3.67 12.251 10.66" fill="#e20613"/>
  </g>
  <g fill="#fff" stroke="#464037" stroke-linecap="round" stroke-linejoin="round">
   <path transform="matrix(.26458 0 0 .26458 86.523 109.33)" d="m13.077 32.804c-6.9661-3.0127-11.686-12.019-9.8719-18.837 2.6023-9.7788 13.942-12.951 21.307-5.96 3.23 3.0656 4.6715 6.5647 4.6715 11.34 0 4.5006-1.2642 7.798-4.7404 12.364-1.5064 1.9786-1.9165 2.1411-5.3449 2.1172-2.0423-0.0142-4.7518-0.47496-6.0212-1.0239z" stroke-width="1.0118" style="paint-order:stroke markers fill"/>
   <path transform="matrix(.26458 0 0 .26458 86.523 109.33)" d="m36.994 33.878c-1.596-0.7245-3.3645-2.199-4.1347-3.4474-1.191-1.9302-1.299-2.8647-0.93875-8.116 0.3178-4.632 0.16677-6.6325-0.68811-9.114-1.0935-3.1743-1.0925-3.1831 0.63363-5.4461 6.7551-8.8564 19.963-4.7649 21.805 6.7546 0.22305 1.3949 0.05896 4.4475-0.36464 6.7835-1.2804 7.0611-3.8259 10.81-8.7309 12.86-3.1312 1.3083-4.1787 1.2704-7.5817-0.27437z" stroke-width="1.0118" style="paint-order:stroke markers fill"/>
   <g stroke-width=".4479">
    <path transform="matrix(.26458 0 0 .26458 86.523 109.33)" d="m36.127 38.988c0-0.08824 0.20462-0.55613 0.45471-1.0397 0.58399-1.1293 1.355-1.0082 1.613 0.25332 0.1919 0.93827 0.18339 0.94686-0.93702 0.94686-0.62187 0-1.1307-0.0722-1.1307-0.16044z" style="paint-order:stroke markers fill"/>
    <path transform="matrix(.26458 0 0 .26458 86.523 109.33)" d="m32.453 75.674c-0.49585-0.30658-1.1764-0.90685-1.5124-1.3339-1.7268-2.1953 2.1049-4.6267 4.1183-2.6133 0.95278 0.95278 1.2558 2.4145 0.72939 3.518-0.50372 1.0559-2.0085 1.2495-3.3353 0.42917z" style="paint-order:stroke markers fill"/>
    <path transform="matrix(.26458 0 0 .26458 86.523 109.33)" d="m47.073 99.656c-2.0899-0.71075-4.7909-3.4533-5.6911-5.7787-1.3929-3.5981-0.53357-10.001 2.0447-15.236 1.6193-3.2876 2.2452-3.701 5.3466-3.5305 5.0856 0.27948 8.9919 3.5298 10.926 9.0912 0.62141 1.7869 0.70114 2.4484 0.60169 4.9918-0.13066 3.3414-0.81574 5.2131-2.6994 7.3751-2.414 2.7707-7.271 4.1947-10.528 3.0869z" style="paint-order:stroke markers fill"/>
    <path transform="matrix(.26458 0 0 .26458 86.523 109.33)" d="m47.511 165.67c-4.3699-0.54328-14.559-1.0491-16.512-0.81965-1.6439 0.19321-1.6516 0.19051-1.4361-0.50664 0.11913-0.38549 0.40524-1.0715 0.6358-1.5246 0.9125-1.7929 4.1957-10.558 5.8689-15.668 5.0186-15.327 7.6475-29.587 7.6482-41.488l2.44e-4 -4.2727 1.6783 0.6902c2.9131 1.198 7.7278 0.84018 10.529-0.78251l0.96961-0.56171-0.01734 4.4538c-0.0095 2.4496 0.05016 5.0448 0.13267 5.7673 0.08251 0.72241 0.28689 2.627 0.45418 4.2323 0.84718 8.1295 4.2285 17.481 7.1961 19.902 0.4919 0.40124 0.47462 0.47026-1.6167 6.4566-1.5554 4.4522-1.1309 4.2223-4.9013 2.6546-2.7301-1.1352-5.9333-3.2656-8.543-5.6818l-2.1193-1.9622 0.87732-0.90629c2.6793-2.7677 0.06618-6.7421-3.5093-5.3376-0.66582 0.26154-1.3133 0.41205-1.4388 0.33447-0.12553-0.0776-0.50146 0.20627-0.83538 0.63079-0.72022 0.91561-0.80301 2.6784-0.18217 3.879 0.38857 0.75142 1.9792 1.7762 2.7569 1.7762 0.17641 0 0.32074 0.12274 0.32074 0.27276s0.76388 1.234 1.6975 2.4089c2.7316 3.4374 7.0107 6.3608 11.625 7.9417l1.7927 0.61424-1.6557 3.7945c-0.9106 2.087-2.7664 6.1259-4.1239 8.9755-2.8371 5.9552-1.9644 5.3895-7.2922 4.7271z" style="paint-order:stroke markers fill"/>
    <path transform="matrix(.26458 0 0 .26458 86.523 109.33)" d="m75.491 109.05c-1.9677-0.63086-4.0735-2.6517-5.0646-4.8602-1.5992-3.5635-1.3132-8.4888 0.73718-12.697 1.7633-3.6187 5.9889-6.4851 9.0415-6.1332 3.6772 0.42393 6.6542 2.4733 8.2235 5.661 0.83175 1.6895 0.96529 2.2867 1.0647 4.7607 0.22907 5.7031-2.3003 10.577-6.5834 12.685-2.0625 1.0151-5.2827 1.2684-7.4189 0.58353z" style="paint-order:stroke markers fill"/>
    <path transform="matrix(.26458 0 0 .26458 86.523 109.33)" d="m73.133 187.69c-8.1538-0.78665-21.271-5.3698-23.883-8.3448-0.56849-0.64747-0.81172-1.1262-0.60688-1.1945 0.8558-0.28527 5.3087-7.7339 8.4245-14.092 1.8609-3.7976 5.1812-11.456 6.2119-14.328l0.3834-1.0683 2.0694 0.15651c3.836 0.29012 10.742-1.1103 12.472-2.5293 0.63599-0.52146 0.65027-0.59523 0.20325-1.0501-0.39898-0.40596-0.64731-0.43537-1.4594-0.17284-2.8319 0.91544-10.316 1.5832-11.717 1.0454-0.34316-0.13168-0.09352-1.1198 1.309-5.181 3.2537-9.4215 5.2311-16.983 6.3883-24.429 0.33685-2.1672 0.66561-4.2233 0.73058-4.5691 0.11433-0.6084 0.16194-0.61544 1.4795-0.21892 0.74875 0.22535 2.2599 0.40972 3.3582 0.40972h1.9968l0.0012 4.0134c0.0018 5.9214 0.53064 12.391 1.6434 20.103l0.17366 1.2036-1.274 0.45451c-0.70069 0.24999-1.6352 0.5318-2.0767 0.62626-0.71503 0.153-0.80266 0.0883-0.80266-0.59271 0-0.48021-0.36901-1.1335-0.99241-1.7569-0.80975-0.80975-1.2153-0.99241-2.2036-0.99241-3.1983 0-5.0272 2.9711-3.5898 5.8319 1.0701 2.1298 3.8166 3.0074 5.433 1.7359 0.42299-0.33272 0.76908-0.78418 0.76908-1.0032 0-0.29154 0.27153-0.35423 1.013-0.2339 0.90222 0.14641 2.719-0.1513 4.0574-0.66489 0.33357-0.128 0.4765-0.0207 0.47908 0.35959 0.0079 1.1655 2.384 10.222 3.773 14.382 1.838 5.5037 3.5879 9.2639 5.991 12.874 2.2088 3.3179 5.8646 6.9128 8.7154 8.5703 1.0718 0.62317 1.9488 1.1906 1.9488 1.2609 0 0.0703-0.40327 0.71399-0.89616 1.4304-2.9236 4.2494-10.185 7.1086-20.265 7.9801-3.9414 0.34073-5.5936 0.33795-9.258-0.0156z" style="paint-order:stroke markers fill"/>
    <path transform="matrix(.26458 0 0 .26458 86.523 109.33)" d="m73.792 140.38c-1.0968-1.1772-0.49557-2.8638 1.0208-2.8638 1.12 0 1.4598 0.99074 0.73955 2.1561-0.32805 0.5308-0.51063 1.0509-0.40573 1.1558 0.1049 0.10489-0.02308 0.19072-0.28438 0.19072-0.26131 0-0.74292-0.28747-1.0702-0.63881z" style="paint-order:stroke markers fill"/>
    <path transform="matrix(.26458 0 0 .26458 86.523 109.33)" d="m44.518 134.3-0.65568-0.53193 0.72052-0.76824c1.3486-1.4379 3.5201-0.44996 2.205 1.0032-0.71427 0.78926-1.5313 0.89617-2.2699 0.29701z" style="paint-order:stroke markers fill"/>
    <path transform="matrix(.26458 0 0 .26458 86.523 109.33)" d="m34.668 225.23c-0.43107-1.1338-0.35557-3.3285 0.17644-5.1286 0.6486-2.1945 0.6658-2.2052 1.5326-0.95084 0.67119 0.97128 0.77173 1.4101 0.77173 3.3686 0 2.3833-0.23855 2.8944-1.5322 3.2823-0.52976 0.15886-0.71291 0.0485-0.94863-0.57144z" style="paint-order:stroke markers fill"/>
    <path transform="matrix(.26458 0 0 .26458 86.523 109.33)" d="m61.107 233.65c-0.54975-1.4326 0.44491-3.7102 2.4746-5.6666l1.4858-1.4321-0.20428 0.94351c-0.50466 2.3309-2.3742 6.1334-3.1646 6.4367-0.23178 0.0889-0.49795-0.0378-0.59151-0.28156z" style="paint-order:stroke markers fill"/>
    <path transform="matrix(.26458 0 0 .26458 86.523 109.33)" d="m54.59 224.16c0.18671-1.7998 1.0323-4.1154 1.4161-3.8782 0.35623 0.22016 0.28782 2.3242-0.1274 3.9187-0.23292 0.89444-0.51759 1.3444-0.89608 1.4163-0.50462 0.0959-0.54008-0.0357-0.39264-1.4568z" style="paint-order:stroke markers fill"/>
    <path transform="matrix(.26458 0 0 .26458 86.523 109.33)" d="m84.433 233.16c-0.91222-0.91223-1.8965-3.3278-1.8965-4.6545 0-1.3288 2.9697 0.70152 4.0247 2.7516 0.54231 1.0538 0.61376 1.4528 0.37339 2.085-0.40773 1.0724-1.313 1.0065-2.5016-0.18214z" style="paint-order:stroke markers fill"/>
   </g>
  </g>
 </g>
</svg>
