<?xml version="1.0" encoding="UTF-8" standalone="no"?>
<svg
   xmlns:dc="http://purl.org/dc/elements/1.1/"
   xmlns:cc="http://creativecommons.org/ns#"
   xmlns:rdf="http://www.w3.org/1999/02/22-rdf-syntax-ns#"
   xmlns:svg="http://www.w3.org/2000/svg"
   xmlns="http://www.w3.org/2000/svg"
   xmlns:sodipodi="http://sodipodi.sourceforge.net/DTD/sodipodi-0.dtd"
   xmlns:inkscape="http://www.inkscape.org/namespaces/inkscape"
   inkscape:version="1.0beta1 (32d4812, 2019-09-19)"
   sodipodi:docname="hanging_info.svg"
   viewBox="0 0 748.83197 849.97805"
   height="849.97809"
   width="748.83197"
   xml:space="preserve"
   id="svg183356"
   version="1.1">
  <metadata
     id="metadata183362">
    <rdf:RDF>
      <cc:Work
         rdf:about="">
        <dc:format>image/svg+xml</dc:format>
        <dc:type
           rdf:resource="http://purl.org/dc/dcmitype/StillImage" />
        <dc:title></dc:title>
      </cc:Work>
    </rdf:RDF>
  </metadata>
  <defs
     id="defs183360">
    <clipPath
       id="clipPath183374"
       clipPathUnits="userSpaceOnUse">
      <path
         inkscape:connector-curvature="0"
         id="path183372"
         d="m 0,718.5 v -595 h 595 v 595 z" />
    </clipPath>
    <clipPath
       id="clipPath183380"
       clipPathUnits="userSpaceOnUse">
      <path
         inkscape:connector-curvature="0"
         id="path183378"
         d="M 0,0 H 595 V 842 H 0 Z" />
    </clipPath>
    <clipPath
       id="clipPath183394"
       clipPathUnits="userSpaceOnUse">
      <path
         inkscape:connector-curvature="0"
         id="path183392"
         d="m 0,718.5 v -595 h 595 v 595 z" />
    </clipPath>
    <clipPath
       id="clipPath183400"
       clipPathUnits="userSpaceOnUse">
      <path
         inkscape:connector-curvature="0"
         id="path183398"
         d="m 34.2125,411.58 v -58.51 h -17.85 v 58.51 z" />
    </clipPath>
    <clipPath
       id="clipPath183406"
       clipPathUnits="userSpaceOnUse">
      <path
         inkscape:connector-curvature="0"
         id="path183404"
         d="M 0,0 H 595 V 842 H 0 Z" />
    </clipPath>
    <clipPath
       id="clipPath183416"
       clipPathUnits="userSpaceOnUse">
      <path
         inkscape:connector-curvature="0"
         id="path183414"
         d="m 0,718.5 v -595 h 595 v 595 z" />
    </clipPath>
    <clipPath
       id="clipPath183422"
       clipPathUnits="userSpaceOnUse">
      <path
         inkscape:connector-curvature="0"
         id="path183420"
         d="M 0,0 H 595 V 842 H 0 Z" />
    </clipPath>
  </defs>
  <sodipodi:namedview
     inkscape:current-layer="svg183356"
     inkscape:window-maximized="0"
     inkscape:window-y="0"
     inkscape:window-x="0"
     inkscape:cy="410.98752"
     inkscape:cx="-193.99395"
     inkscape:zoom="0.44732469"
     inkscape:pagecheckerboard="true"
     showgrid="false"
     id="namedview183358"
     inkscape:window-height="900"
     inkscape:window-width="1440"
     inkscape:pageshadow="2"
     inkscape:pageopacity="0"
     guidetolerance="10"
     gridtolerance="10"
     objecttolerance="10"
     borderopacity="1"
     inkscape:document-rotation="0"
     bordercolor="#666666"
     pagecolor="#ffffff" />
  <g
     transform="matrix(1.3333333,0,0,-1.3333333,-30.505079,1130.297)"
     inkscape:label="hanging_info"
     inkscape:groupmode="layer"
     id="g183364">
    <g
       transform="rotate(90,0,842.00005)"
       id="g183366" />
    <g
       transform="rotate(90,0,842.00005)"
       id="g183388">
      <g
         clip-path="url(#clipPath183394)"
         id="g183390">
        <g
           clip-path="url(#clipPath183400)"
           id="g183396">
          <g
             clip-path="url(#clipPath183406)"
             id="g183402">
            <g
               transform="matrix(0,-58.89646,18.25553,0,16.16213,411.7827)"
               id="g183408" />
          </g>
        </g>
      </g>
    </g>
    <g
       transform="rotate(90,345.48125,379.21016)"
       id="g183412"
       clip-path="url(#clipPath183416)"
       style="opacity:1;stop-opacity:1">
      <g
         id="g183418"
         clip-path="url(#clipPath183422)">
        <path
           d="M 320.9478,701.8126 V 140.1886 H 176.5103 v 561.624 z"
           style="fill:#ac7663;fill-opacity:1;fill-rule:nonzero;stroke:none"
           id="path183424"
           inkscape:connector-curvature="0" />
        <path
           d="M 308.1553,689.1015 V 152.8978 H 189.3028 v 536.2037 z"
           style="fill:#745540;fill-opacity:1;fill-rule:nonzero;stroke:none"
           id="path183426"
           inkscape:connector-curvature="0" />
        <path
           d="m 189.3028,681.5767 v 7.5248 H 308.1553 V 152.8978 h -7.2091 c -0.119,5.5001 -0.2403,10.9908 -0.3641,16.4815 v 421.4518 c 0.05,2.0277 0.1,4.0527 0.1499,6.0773 0.7426,30.3395 1.4899,61.2358 2.1349,92.1931 h -0.8854 c -0.4307,-20.7055 -0.9067,-41.3837 -1.3994,-61.8866 v 54.3618 h -6.2713 c 0.0524,2.5068 0.1047,5.0184 0.1571,7.5248 h -0.8854 c -0.0523,-2.5061 -0.1047,-5.0177 -0.1571,-7.5248 h -6.3117 c 0.0285,2.5059 0.0595,5.0189 0.0904,7.5248 h -0.8734 c -0.031,-2.5085 -0.0619,-5.0163 -0.0929,-7.5248 h -4.3601 c -0.0333,2.5068 -0.0643,5.0163 -0.0952,7.5248 h -0.8711 c 0.0309,-2.509 0.0619,-5.0177 0.0952,-7.5248 h -8.3014 c -0.0453,2.513 -0.0857,5.0206 -0.119,7.5248 h -0.9259 c 0.0357,-2.503 0.0762,-5.012 0.1238,-7.5248 h -6.8496 c 0.002,2.5104 0.01,5.0163 0.0238,7.5248 h -0.8378 c -0.0119,-2.5109 -0.05,-5.0156 -0.0666,-7.5248 h -3.2821 c -0.0142,2.5064 -0.0285,5.0158 -0.0452,7.5248 h -0.8853 c 0.0142,-2.5092 0.0285,-5.0182 0.0452,-7.5248 h -8.4276 c 0.0119,2.5064 0.0238,5.0163 0.0357,7.5248 h -0.8854 c -0.0119,-2.5102 -0.0238,-5.0165 -0.0357,-7.5248 h -6.6473 c 0.005,2.5071 0.01,5.0149 0.0143,7.5248 h -0.8854 c -0.005,-2.5099 -0.01,-5.0177 -0.0143,-7.5248 h -22.4172 c 0.01,2.509 0.0214,5.0158 0.031,7.5248 h -0.8806 c -0.01,-2.5083 -0.0215,-5.0165 -0.0334,-7.5248 h -1.2019 c 0.002,2.5175 0.005,5.0268 0.007,7.5248 h -0.8854 c 0,-2.4975 -0.002,-5.0077 -0.007,-7.5248 h -6.7235 c -0.01,2.5092 -0.0191,5.0146 -0.031,7.5248 h -0.8853 c 0.0143,-2.5094 0.0238,-5.0163 0.0309,-7.5248 h -10.4077 c -0.0429,2.5078 -0.0738,5.0161 -0.0952,7.5248 h -1.7398 c -0.007,-2.5028 -0.0143,-5.0149 -0.0262,-7.5248 h -4.5172 c 0.002,0.605 0.002,1.2102 0.002,1.8162 0,1.899 -0.002,3.7987 -0.007,5.7086 h -0.8853 c 0.005,-1.9109 0.007,-3.818 0.007,-5.7182 0,-0.6033 0,-1.2042 0,-1.8066 h -3.0726 m 118.8525,5.3843 c -1.0996,-62.4517 -1.5542,-125.1933 -1.5542,-187.8699 0,-82.8154 0.7259,-165.4514 1.5542,-246.9402 v 97.3539 c -0.3856,48.7614 -0.6379,97.7871 -0.6379,146.8703 0,42.3111 0.188,84.6623 0.6379,126.9506 v 63.6353 m -109.4848,-5.3843 c 0.01,1.735 0.0143,3.4724 0.019,5.2039 0.0215,-1.7346 0.0429,-3.4694 0.0714,-5.2039 h -0.0904"
           style="fill:#674c39;fill-opacity:1;fill-rule:nonzero;stroke:none"
           id="path183428"
           inkscape:connector-curvature="0" />
        <path
           d="m 189.3028,555.2587 v 14.407 c 2.0183,35.2617 3.0417,72.4173 3.0726,111.911 h 0.883 c -0.0333,-44.9161 -1.3495,-86.8146 -3.9556,-126.318"
           style="fill:#674c39;fill-opacity:1;fill-rule:nonzero;stroke:none"
           id="path183430"
           inkscape:connector-curvature="0" />
        <path
           d="m 190.0025,471.1704 c 5.3598,71.2584 7.4804,142.1391 7.7731,210.4063 h 0.8949 c -0.2927,-68.2767 -2.4252,-139.1829 -7.785,-210.4396 0.002,-106.9572 2.2277,-210.9251 4.9695,-318.2393 h -0.8854 c -2.7418,107.3142 -4.9671,211.2845 -4.9671,318.2726"
           style="fill:#674c39;fill-opacity:1;fill-rule:nonzero;stroke:none"
           id="path183432"
           inkscape:connector-curvature="0" />
        <path
           d="m 193.3131,436.2201 c 0,11.0527 0.0738,22.0816 0.2309,33.0725 0.8853,4.7433 0.8853,9.0321 0.8853,13.1785 0,4.1876 0,8.5173 0.8925,13.2671 7.052,35.3635 10.5649,68.6478 10.5649,101.2671 0,26.6572 -2.3467,52.8712 -7.0234,79.4039 -0.0429,1.7224 -0.0762,3.4448 -0.1024,5.1675 h 0.8759 c 0.0285,-1.6941 0.0642,-3.3882 0.1047,-5.0816 4.6815,-26.5512 7.0281,-52.7905 7.0281,-79.486 0,-32.6667 -3.5152,-66.0153 -10.5791,-101.4378 -0.8758,-4.6643 -0.8758,-8.953 -0.8758,-13.1002 0,-4.1869 0,-8.5161 -0.8925,-13.2666 -0.1571,-10.9765 -0.2285,-21.9817 -0.2285,-33.0249 0,-72.4472 3.1297,-146.0582 6.1642,-217.5439 0.9187,-21.6365 1.8469,-43.6658 2.6966,-65.7379 h -0.8854 c -0.8497,22.0602 -1.7779,44.0752 -2.6965,65.7022 -3.0345,71.4952 -6.1571,145.1039 -6.1595,217.6201"
           style="fill:#674c39;fill-opacity:1;fill-rule:nonzero;stroke:none"
           id="path183434"
           inkscape:connector-curvature="0" />
        <path
           d="m 197.0854,457.9852 c 0.8925,6.683 2.6989,12.9234 4.4435,18.9567 1.7374,6.0045 3.5319,12.2127 4.4125,18.7734 3.044,57.4582 4.1293,114.0327 4.1293,170.7748 0,5.0254 -0.009,10.0581 -0.0262,15.0866 h 0.8854 c 0.0143,-5.0144 0.0238,-10.031 0.0238,-15.0423 0,-56.7759 -1.0853,-113.393 -4.1293,-170.9002 -0.8949,-6.66 -2.7013,-12.8999 -4.4459,-18.9351 -1.735,-6.0047 -3.5319,-12.2117 -4.4125,-18.7734 0.005,-23.6881 2.3681,-48.4282 4.6529,-72.352 1.6946,-17.7429 3.4486,-36.0903 4.2055,-53.7713 0.6259,-25.4137 0.8615,-51.051 0.8615,-76.6932 0,-34.2363 -0.4188,-68.4845 -0.8853,-102.2114 h -0.8854 c 0.4665,33.7317 0.8878,67.9704 0.8878,102.2114 0,25.6303 -0.2357,51.2652 -0.864,76.6622 -0.7544,17.6525 -2.5061,35.988 -4.2007,53.719 -2.2872,23.9452 -4.6529,48.7043 -4.6529,72.4948"
           style="fill:#674c39;fill-opacity:1;fill-rule:nonzero;stroke:none"
           id="path183436"
           inkscape:connector-curvature="0" />
        <path
           d="m 202.8307,434.4375 c 0,5.1836 0.4475,10.3696 1.3424,16.0793 9.1035,32.2928 10.4244,65.0982 11.7024,96.8224 0.219,5.3826 0.4332,10.7655 0.6855,16.1483 0.6711,42.0648 1.0353,81.1435 1.0924,118.0892 h 0.8853 c -0.0571,-36.9531 -0.4212,-76.042 -1.0924,-118.1168 -0.2523,-5.3943 -0.4688,-10.775 -0.6854,-16.1559 -1.2805,-31.7752 -2.6037,-64.6327 -11.7263,-96.9729 -0.8782,-5.6287 -1.3185,-10.7481 -1.3185,-15.877 0,-5.1408 0.4427,-10.2887 1.3328,-15.9579 1.7707,-13.2018 3.1226,-26.1324 4.4292,-38.6393 1.3042,-12.4973 2.6537,-25.4207 4.4244,-38.5988 1.1805,-13.8088 1.5708,-27.5461 1.5708,-41.1383 0,-13.5755 -0.3903,-27.0059 -0.7759,-40.2101 -0.3879,-13.4042 -0.7925,-27.2677 -0.7925,-41.1454 1.0995,-21.8008 1.6588,-43.8206 1.8992,-65.8665 h -0.883 c -0.2427,22.0388 -0.802,44.049 -1.9016,65.845 0,13.9111 0.4046,27.7818 0.7949,41.1931 0.3832,13.1995 0.7735,26.6227 0.7735,40.1887 0,13.5636 -0.3903,27.2724 -1.566,41.0383 -1.7683,13.1709 -3.1178,26.0991 -4.4268,38.606 -1.3042,12.4974 -2.6537,25.4208 -4.4244,38.6012 -0.8949,5.7049 -1.34,10.8861 -1.34,16.0674"
           style="fill:#674c39;fill-opacity:1;fill-rule:nonzero;stroke:none"
           id="path183438"
           inkscape:connector-curvature="0" />
        <path
           d="m 219.486,573.0641 c 0,36.1413 0.0976,72.3259 0.2546,108.5126 h 0.883 c -0.1547,-37.1818 -0.2213,-74.3605 -0.2213,-111.4873 0,-117.6306 0.6688,-234.7456 1.3447,-349.821 0.1309,-22.3077 0.2618,-44.7916 0.3879,-67.3706 h -0.8853 c -0.1262,22.5766 -0.2571,45.0581 -0.388,67.3659 -0.683,116.044 -1.3756,234.1705 -1.3756,352.8004"
           style="fill:#674c39;fill-opacity:1;fill-rule:nonzero;stroke:none"
           id="path183440"
           inkscape:connector-curvature="0" />
        <path
           d="m 242.6005,334.5441 c 0,104.7248 0.1904,208.9343 0.3761,311.6846 0.0214,11.7241 0.0428,23.5184 0.0642,35.348 h 0.8854 c -0.0214,-11.83 -0.0428,-23.6253 -0.0643,-35.3497 -0.1856,-102.2027 -0.3736,-205.8419 -0.3736,-310.0002 0,-60.9947 0.0642,-122.1773 0.2308,-183.329 h -0.871 c -0.1666,60.5924 -0.2476,121.2038 -0.2476,181.6463"
           style="fill:#674c39;fill-opacity:1;fill-rule:nonzero;stroke:none"
           id="path183442"
           inkscape:connector-curvature="0" />
        <path
           d="m 249.2336,356.6448 c 0,78.9422 0.4379,157.4579 0.8687,234.9279 0.1666,29.7407 0.3308,59.7946 0.4712,90.004 h 0.8854 c -0.1404,-30.2129 -0.307,-60.265 -0.4712,-90.0095 -0.4284,-77.0679 -0.8592,-155.1638 -0.8592,-233.6896 0,-68.1417 0.3237,-136.612 1.2519,-204.9798 h -0.8806 c -0.9235,67.9632 -1.2662,136.0098 -1.2662,203.747"
           style="fill:#674c39;fill-opacity:1;fill-rule:nonzero;stroke:none"
           id="path183444"
           inkscape:connector-curvature="0" />
        <path
           d="m 259.8865,681.5767 h 0.8853 c 0.1286,-22.5329 0.2666,-44.9594 0.4046,-67.1953 0.5522,-89.1479 1.0996,-179.7726 1.0996,-270.8099 0,-63.4794 -0.2666,-127.1658 -0.9829,-190.6737 h -0.8878 c 0.7188,63.5626 0.9853,127.2895 0.9853,190.826 0,90.9802 -0.5474,181.5602 -1.0995,270.6519 -0.1381,22.2359 -0.2761,44.6655 -0.4046,67.201"
           style="fill:#674c39;fill-opacity:1;fill-rule:nonzero;stroke:none"
           id="path183446"
           inkscape:connector-curvature="0" />
        <path
           d="m 264.0443,679.1653 c 0,0.8046 0.005,1.6081 0.01,2.4114 h 0.8806 c -0.002,-0.8145 -0.002,-1.6313 -0.002,-2.4457 0,-34.6973 0.9948,-69.5731 3.8627,-104.3261 0.6402,-5.1134 1.3566,-10.4159 2.0516,-15.5433 2.6513,-19.6503 5.3835,-39.8569 5.3835,-59.4408 0,-3.9362 -0.1094,-7.8492 -0.3522,-11.7255 -0.6259,-9.3351 -1.378,-18.9027 -2.1039,-28.1537 -1.9492,-24.7949 -3.9318,-50.0705 -3.9318,-75.2509 0,-19.0043 1.1305,-37.9538 4.2602,-56.6035 -0.8806,-29.2859 -2.23,-58.4933 -3.5343,-86.7415 -1.3066,-28.2411 -2.6561,-57.4461 -3.5414,-86.6368 0,-0.6069 0.0214,-1.2042 0.0238,-1.8111 h -0.8854 c -0.002,0.6116 -0.0238,1.2114 -0.0238,1.823 0.8854,29.2122 2.2348,58.4195 3.5415,86.6677 1.3042,28.2435 2.6537,57.4461 3.539,86.6392 -3.1344,18.6616 -4.2673,37.6254 -4.2673,56.6535 0,25.1994 1.9873,50.5084 3.9365,75.327 0.7259,9.2511 1.4756,18.8163 2.1039,28.1435 0.2404,3.8451 0.3499,7.7233 0.3499,11.6299 0,19.5388 -2.7251,39.7307 -5.3788,59.3634 -0.6902,5.1284 -1.409,10.4334 -2.0516,15.5694 -2.8703,34.8011 -3.8699,69.7205 -3.8699,104.4509"
           style="fill:#674c39;fill-opacity:1;fill-rule:nonzero;stroke:none"
           id="path183448"
           inkscape:connector-curvature="0" />
        <path
           d="m 271.7841,681.5767 h 0.9211 c 0.2594,-14.0818 0.7068,-28.3061 1.4042,-42.7432 0,-36.1379 2.7251,-64.5753 8.8417,-92.2245 0.307,-1.6315 0.5426,-3.3294 0.7425,-5.0501 -0.2975,15.1804 -0.614,30.3145 -0.9377,45.329 -0.6735,31.2822 -1.3304,62.9089 -1.7493,94.6888 h 0.8711 c 0.4189,-31.7754 1.09,-63.3904 1.7636,-94.6712 0.7616,-35.4401 1.5184,-71.44 1.9159,-107.5669 -0.0714,20.2459 -0.1167,40.5221 -0.1167,60.8254 0,47.0483 0.2428,94.2242 0.7973,141.4127 h 0.8759 c -0.5546,-47.6441 -0.7735,-95.255 -0.7735,-142.7479 0,-88.7381 0.764,-177.0099 1.5256,-264.006 0.3522,-40.2625 0.7021,-80.989 0.9805,-121.925 h -0.8853 c -0.2785,40.9336 -0.6284,81.6578 -0.9806,121.9178 -0.4379,50.0729 -0.8735,100.586 -1.171,151.3561 -0.0476,-25.2684 -0.3403,-50.5059 -1.0781,-75.5673 -1.7707,-26.3728 -2.211,-53.036 -2.211,-79.404 0,-13.1804 0.1095,-26.2871 0.2189,-39.2462 0.1095,-12.9662 0.2214,-26.3728 0.2214,-39.5603 0,-13.1329 0.0619,-26.3086 0.1499,-39.4961 h -0.8853 c -0.0881,13.1875 -0.15,26.3632 -0.15,39.4961 0,13.1828 -0.1118,26.5893 -0.2213,39.5508 -0.1095,12.9758 -0.219,26.0943 -0.219,39.2938 0,26.368 0.4403,53.0359 2.2134,79.4087 0.7973,27.1534 1.1115,54.5044 1.1115,81.8934 0,30.7377 -0.3951,61.5175 -0.9449,92.0677 -0.2189,-2.8591 -0.5617,-5.6604 -1.0615,-8.3119 -2.3252,-8.6608 -3.1225,-18.1501 -3.8936,-27.3276 -0.4165,-4.9166 -0.8045,-9.5612 -1.4138,-14.0904 -0.9758,-20.2395 -1.2756,-40.5266 -1.2756,-60.6424 0,-16.3387 0.1975,-32.5655 0.395,-48.5448 0.1928,-15.9603 0.3904,-32.1633 0.3904,-48.4901 0,-20.1491 -0.2999,-40.4886 -1.2781,-60.7852 -1.7612,-15.0012 -2.6418,-30.0975 -2.6418,-45.1939 0,-15.0844 0.8806,-30.1712 2.6394,-45.1486 0.4332,-4.3792 0.764,-8.7798 1.102,-13.1756 h -0.8878 c -0.3356,4.3673 -0.664,8.7346 -1.0948,13.0828 -1.7636,15.0107 -2.6465,30.1284 -2.6465,45.2486 0,15.1201 0.8829,30.245 2.6489,45.2581 0.9758,20.2347 1.2733,40.5218 1.2733,60.6305 0,16.3482 -0.1975,32.5798 -0.3927,48.5639 -0.1952,15.965 -0.3927,32.1657 -0.3927,48.4948 0,20.1467 0.3023,40.4886 1.2804,60.7805 0.6069,4.5458 0.9973,9.1792 1.4114,14.0851 0.7759,9.2148 1.5779,18.7444 3.9151,27.4483 0.8758,4.6714 1.3161,9.8039 1.3161,14.9426 0,5.1484 -0.4427,10.303 -1.3256,15.0009 -6.1262,27.7008 -8.8608,56.1958 -8.8608,92.378 -0.6949,14.4328 -1.1709,28.6766 -1.4375,42.7648"
           style="fill:#674c39;fill-opacity:1;fill-rule:nonzero;stroke:none"
           id="path183450"
           inkscape:connector-curvature="0" />
        <path
           d="m 290.2648,445.9591 c 0,35.4762 0.2213,70.8835 0.664,106.212 0.6426,41.7554 1.5351,83.9304 2.3967,124.7172 0.0333,1.5594 0.0666,3.1231 0.0999,4.6884 h 0.8854 c -0.0333,-1.5718 -0.0666,-3.1416 -0.1,-4.7069 -0.8615,-40.7856 -1.754,-82.9597 -2.3966,-124.7111 -0.4379,-34.976 -0.6545,-70.0517 -0.6545,-105.1715 0,-98.1345 1.7017,-196.5951 5.0575,-294.0894 h -0.9068 c -3.3439,97.1444 -5.0456,195.2694 -5.0456,293.0613"
           style="fill:#674c39;fill-opacity:1;fill-rule:nonzero;stroke:none"
           id="path183452"
           inkscape:connector-curvature="0" />
        <path
           d="m 295.9625,359.0462 c 0,79.442 1.9707,159.7561 3.8842,237.8836 0.2451,10.0401 0.4926,20.1413 0.7354,30.2851 v -36.3838 c -1.8659,-76.2062 -3.7342,-154.4158 -3.7342,-231.7825 0,-16.6671 0.0857,-33.3033 0.2784,-49.8658 1.2043,-46.1196 2.4038,-92.8057 3.4558,-139.8035 v -16.4815 h -0.5212 c -1.1329,52.5599 -2.4752,104.7628 -3.8199,156.2708 -0.1928,16.5624 -0.2785,33.2057 -0.2785,49.8776"
           style="fill:#674c39;fill-opacity:1;fill-rule:nonzero;stroke:none"
           id="path183454"
           inkscape:connector-curvature="0" />
        <path
           d="m 192.3683,689.1015 h 0.8853 c 0.005,-1.9099 0.007,-3.8096 0.007,-5.7086 0,-0.606 0,-1.2112 -0.002,-1.8162 h -0.883 c 0,0.6024 0,1.2033 0,1.8066 0,1.9002 -0.002,3.8073 -0.007,5.7182 m 5.4073,-7.5248 c 0.0119,2.5099 0.0191,5.022 0.0262,7.5248 h 1.7398 c 0.0214,-2.5087 0.0523,-5.017 0.0952,-7.5248 h -0.8759 c -0.0285,1.7345 -0.0499,3.4693 -0.0714,5.2039 -0.005,-1.7315 -0.01,-3.4689 -0.019,-5.2039 h -0.8949 m 12.238,7.5248 h 0.8853 c 0.0119,-2.5102 0.0215,-5.0156 0.031,-7.5248 h -0.8854 c -0.007,2.5085 -0.0166,5.0154 -0.0309,7.5248 m 7.6398,-7.5248 c 0.005,2.5171 0.007,5.0273 0.007,7.5248 h 0.8854 c -0.002,-2.498 -0.005,-5.0073 -0.007,-7.5248 h -0.8853 m 2.0872,0 c 0.0119,2.5083 0.0238,5.0165 0.0334,7.5248 h 0.8806 c -0.01,-2.509 -0.0215,-5.0158 -0.031,-7.5248 h -0.883 m 23.3002,0 c 0.005,2.5071 0.01,5.0149 0.0143,7.5248 h 0.8854 c -0.005,-2.5099 -0.009,-5.0177 -0.0143,-7.5248 h -0.8854 m 7.5327,0 c 0.0119,2.5083 0.0238,5.0146 0.0357,7.5248 h 0.8854 c -0.0119,-2.5085 -0.0238,-5.0184 -0.0357,-7.5248 h -0.8854 m 9.2678,7.5248 h 0.8853 c 0.0167,-2.509 0.031,-5.0184 0.0452,-7.5248 h -0.8853 c -0.0167,2.5066 -0.031,5.0156 -0.0452,7.5248 m 4.2126,-7.5248 c 0.0166,2.5092 0.0547,5.0139 0.0666,7.5248 h 0.8378 c -0.0143,-2.5085 -0.0215,-5.0144 -0.0238,-7.5248 h -0.8806 m 7.6064,7.5248 h 0.9259 c 0.0333,-2.5042 0.0737,-5.0118 0.119,-7.5248 h -0.9211 c -0.0476,2.5128 -0.0881,5.0218 -0.1238,7.5248 m 9.2511,0 h 0.8711 c 0.0309,-2.5085 0.0619,-5.018 0.0952,-7.5248 h -0.8711 c -0.0333,2.5071 -0.0643,5.0158 -0.0952,7.5248 m 5.3264,-7.5248 c 0.031,2.5085 0.0619,5.0163 0.0929,7.5248 h 0.8734 c -0.0309,-2.5059 -0.0619,-5.0189 -0.0904,-7.5248 h -0.8759 m 7.1876,0 c 0.0524,2.5071 0.1048,5.0187 0.1571,7.5248 h 0.8854 c -0.0524,-2.5064 -0.1047,-5.018 -0.1571,-7.5248 h -0.8854"
           style="fill:#5c4333;fill-opacity:1;fill-rule:nonzero;stroke:none"
           id="path183456"
           inkscape:connector-curvature="0" />
        <path
           d="m 300.5821,152.8978 v 16.4815 c 0.1238,-5.4907 0.2451,-10.9814 0.3641,-16.4815 h -0.3641 m 0,437.9333 v 36.3838 c 0.4927,20.5029 0.9687,41.1811 1.3994,61.8866 h 0.8854 c -0.645,-30.9573 -1.3923,-61.8536 -2.1349,-92.1931 -0.0499,-2.0246 -0.0999,-4.0496 -0.1499,-6.0773 m 6.019,-91.74 c 0,62.6766 0.4546,125.4182 1.5542,187.8699 v -63.6353 c -0.4499,-42.2883 -0.6379,-84.6395 -0.6379,-126.9506 0,-49.0832 0.2523,-98.1089 0.6379,-146.8703 v -97.3539 c -0.8283,81.4888 -1.5542,164.1248 -1.5542,246.9402"
           style="fill:#5c4333;fill-opacity:1;fill-rule:nonzero;stroke:none"
           id="path183458"
           inkscape:connector-curvature="0" />
        <path
           d="m 320.9454,613.8466 v 3.1776 h 4.6529 c 3.7747,0 6.8472,3.0519 6.8472,6.802 0,3.7504 -3.0725,6.8021 -6.8472,6.8021 h -4.6529 v 3.1777 h 4.6529 c 5.5382,0 10.0436,-4.4763 10.0436,-9.9798 0,-5.5035 -4.5054,-9.9796 -10.0436,-9.9796 h -4.6529"
           style="fill:#3b4a57;fill-opacity:1;fill-rule:nonzero;stroke:none"
           id="path183460"
           inkscape:connector-curvature="0" />
        <path
           d="m 334.0425,622.2376 h 364.80437 v 3.17754 H 334.0425 Z"
           style="fill:#3b4a57;fill-opacity:1;fill-rule:nonzero;stroke:none;stroke-width:2.07845"
           id="path183462"
           inkscape:connector-curvature="0" />
        <path
           d="m 320.9454,208.1947 v 3.1773 h 4.6529 c 3.7747,0 6.8472,3.0511 6.8472,6.802 0,3.7509 -3.0725,6.8021 -6.8472,6.8021 h -4.6529 v 3.1773 h 4.6529 c 5.5382,0 10.0436,-4.4744 10.0436,-9.9794 0,-5.5025 -4.5054,-9.9793 -10.0436,-9.9793 h -4.6529"
           style="fill:#3b4a57;fill-opacity:1;fill-rule:nonzero;stroke:none"
           id="path183464"
           inkscape:connector-curvature="0" />
        <path
           d="m 334.0425,216.5866 h 283.03331 v 3.1773 H 334.0425 Z"
           style="fill:#3b4a57;fill-opacity:1;fill-rule:nonzero;stroke:none;stroke-width:1.83075"
           id="path183466"
           inkscape:connector-curvature="0" />
      </g>
    </g>
  </g>
  <path
     inkscape:connector-curvature="0"
     id="path183462-1"
     style="opacity:1;fill:#3b4a57;fill-opacity:1;fill-rule:nonzero;stroke:none;stroke-width:2.31398;stop-opacity:1"
     d="M 106.199,0.6487702 V 365.45315 h -3.93852 V 0.6487702 Z" />
  <path
     d="m 646.52058,0 v 364.80438 h -3.93852 V 0 Z"
     style="opacity:1;fill:#3b4a57;fill-opacity:1;fill-rule:nonzero;stroke:none;stroke-width:2.31398;stop-opacity:1"
     id="path183462-1-6"
     inkscape:connector-curvature="0" />
</svg>
